<svg id="_ÎÓÈ_1" data-name="—ÎÓÈ_1" xmlns="http://www.w3.org/2000/svg" viewBox="0 0 81.75 62.5"><defs><style>.cls-1{fill:#299351;}.cls-2{fill:#f29654;}</style></defs><title>Artboard 3 copy 5</title><path id="_Path_" data-name="&lt;Path&gt;" class="cls-1" d="M75.29,23.9A17.22,17.22,0,0,1,73,23.05a5,5,0,0,0-1.27-.49c-.19-.2-.72-.24-.91-.44v.07c-.2-.2-.36-.12-.38-.26a3,3,0,0,1-.72-.24c-.71-.17-1.6-.4-2.3-.51-.35-.05-.53-.11-.88-.16,0,0,0,.07-.18,0a6.51,6.51,0,0,1-1-.16,14.31,14.31,0,0,0-2.48-.5c-.35-.12-.5.09-.66.23l.25.82a19.65,19.65,0,0,0,4.46,2.81v.07a29.74,29.74,0,0,0,4.75,2.39s.17,0,.19.12c.34,0,.91.44,1.26.42a33.36,33.36,0,0,0,3.41,1.15v-.07c0,.2,1.09-.12,1.26-.06,0,0,2.12.45,2.56-.13s-1.91-2.26-1.91-2.26C78,25.81,76.84,24.62,75.29,23.9Z"/><path id="_Path_2" data-name="&lt;Path&gt;" class="cls-1" d="M63,7.06a6.64,6.64,0,0,0-.55,1.85,2.11,2.11,0,0,1-.26,1c.11.27-.19.55-.09.82L62,10.68c.11.27-.09.27.06.4-.12.08-.14.41-.19.55A10.27,10.27,0,0,1,61,13.16c-.17.21-.22.34-.39.55,0,0-.08-.06-.13.08-.25.14-.35.42-.52.63-.4.55-.56,1.3-1.06,1.6-.1.26-.44.16-.72.1l-.83-.85a11.11,11.11,0,0,1-.4-4.57l-.08-.07c.08-1.35-.19-3.16.32-4.33,0,0,.13-.07,0-.2.26-.15.09-.81.34-1a13.09,13.09,0,0,1,.92-2.6l.07.06c-.23-.19.87-.4.93-.53S60.25.68,61.24,1s1.45,2.89,1.45,2.89C62.52,4.09,63.17,5.7,63,7.06Z"/><path id="_Path_3" data-name="&lt;Path&gt;" class="cls-1" d="M71.17,10.46a6.81,6.81,0,0,1-2,.88,2,2,0,0,0-1.14.42c-.32-.13-.61.3-.93.17l.09.11c-.32-.14-.3.15-.47-.06-.07.18-.45.23-.61.3a12,12,0,0,0-1.63,1.4c-.23.26-.38.33-.59.59,0,0,.08.1-.08.18-.13.36-.44.51-.65.77-.59.58-1.44.85-1.71,1.57-.3.15-.13.63,0,1l1.07,1.1c2.14.83,3.67.36,5.29.27l.09.11c1.54-.19,3.65.07,4.93-.71,0,0,.07-.19.23,0,.14-.36.92-.17,1.06-.53a13.12,13.12,0,0,0,2.88-1.43l-.08-.11c.25.32.35-1.24.5-1.32,0,0,1.48-1.32,1-2.67s-3.49-1.84-3.49-1.84C74.64,10.94,72.72,10.13,71.17,10.46Z"/><path id="_Compound_Path_" data-name="&lt;Compound Path&gt;" class="cls-2" d="M45.27,43.65s5.48-3.56,5.44-3.63a3.8,3.8,0,0,0,1-1.05c.93,0,.86-1.34,1.6-1.4-.18-.29.09-.06.18-.12-.09-.14-.18-.29-.08-.35,2.05-1.09,4.4-2.57,5.55-4.9a2.46,2.46,0,0,1,.35-1.05,3,3,0,0,0,.92-1.88c.75-1.26.45-1.53.84-3.16.46-.09.11-1.26,0-2l-1.61-2.55c-2.71-3.24-3.54-4.18-6-4.41-.08-.14-3.51.1-3.69-.18-2.56,0-4.88,1.49-6.73,2.85-.09.06-.18-.08-.27-.22-.09.06,0,.4-.18.11-.38.64-1.56,0-1.94.83a3.79,3.79,0,0,0-1.37.47c0-.07-5.54,3.29-5.54,3.29l.09.14c-.09.06-.09.06-.09.26-.18-.29-.09-.15-.27-.23-.47.89-1.84.76-2.31,1.85-.09-.14-.18-.28-.18-.08-.19.52-1,.44-1.2,1l.08.14c-.18-.09-.18.11-.09.26-.54-.46-.46.49-.92.38-.19.51-.92.18-1,1-.19.11-.19.31-.2.71-.53-.65-.54.15-1,0,.17.69-.46-.11-.37.43l.18.29s-.37-.37,0,.2c-.18.12-.81-.48-.55.15l-.17-.29c.08.15.26.43.17.49l-.18-.29c-.09.06-.27,0-.27.18-.18-.29-.19.11-.1.26-.82-.28-.57,1.35-1.38.67l.27.42c-.45-.5-.73-.33-.73.07-.37,0-.47.29-.47.69-.27-.43-.28,0-.37-.17.27.63-.18.12,0,.6-.1.06-.28-.22-.28-.22,0,.2.18.28.27.42-.27-.22-.27,0,.09.55-.37-.17,0,.39.08.74.27.42.18.08.27.42,0,0-.19.12,0,.6.18-.11.54.05.55-.35.36.37.18-.11.36.17,0,.2,0,.6-.28.57l.18.29c-.27-.23-.19.31-.73-.14-.09-.14-.17-.48,0-.2-.8-1.27-.7-1.53-1.24-2.38.36.37-.09-.14-.09-.34-.36-.17-.1.65-.55.35,0,.19.17.68.08.74s.09.14.18.28c-.1.06-.27-.22-.36-.17-.27-.42.09,0-.09-.34-.18-.08-.19.32-.47.49-.45-.51-.36,0-.37.23-.35-.36-.18.32-.45.1l.17.48c-.18-.29-.27,0-.18.11-.1.06-.18-.08-.27-.22.17.28.09.14-.09.06.26.22,0,0,.17.48-.36-.37.08.54-.27,0,.26.42.08.34.17.68.27,0,.19-.32.37-.23,0,.2.09.14.18.28.09-.06.36.17.09-.26,0,0,.27.43.27.23.09.34,0,.4-.18.31l.08.15c.18.28.1-.06.19.08.26.63-.37,0-.2.72.28,0,.28-.18.38-.44.09,0-.09-.14-.09-.34l.27.43c-.09-.35.18.08.18-.12.09.14.19.08.27.43l-.27-.43c.17.69,0,.6-.19.92.36.36.27-.38.55-.15s0,0,.18.28a1,1,0,0,0-.47.49l-.27-.42c-.18-.09-.09.06-.18.11s-.36-.36-.36-.17a2.5,2.5,0,0,1-.27-.62c-.36-.57-.45-.71-.63-.79,0,.2.09-.06.18.28a1.46,1.46,0,0,1-.45-.51c.36.37-.08-.54.28-.17-.09-.15-.45-.71-.36-.77-.27-.23-.09.06,0,.2-.18-.08,0,0-.09.06L18.73,36c.09.34-.37,0-.19.52-.27-.23-.18-.09-.37,0l.18.28c-.18-.08-.45-.31-.37.24a.85.85,0,0,0-1,.84c-.28-.23-.46-.11-.38.43-.09-.14,0,0-.09.06l.09.14c-.18.12-.46.29-.46.49l-.27-.43s.17.49-.1.26c0,0-.09.06,0,.2-.18-.08-.27-.22-.36-.16.09.14.09.34.17.48-.26-.43-.63-.39-.36,0-.27-.42-.28,0-.19.12-.27.17-.55.15-.55.35l-.09-.14s-.09,0,0,.19c-.1.06-.19-.08-.28,0,.18.28-.09.26-.18.11a2.26,2.26,0,0,1-.11,1.06l.09.14c-.09.06-.18-.08-.18.12l-.27-.42c.09.14.09-.06,0-.2s-.36,0-.37.43v-.2c-.09.06-.09.46-.27.17.17.69-.1.46-.2.72.1-.06.36.57.18.48.18.29.36.17.18-.11.09-.06.27.42.27.22.09.14.18.29,0,.2l.27.43c-.09-.34.1-.26.19-.32l.09.14c.26.63-.28.18-.1.46.09-.06.36,0,.37-.23.18.08.18-.12.18-.12l-.18-.28c-.08-.34-.08-.54.28,0-.09-.14-.1.06,0,.21.28.22.19-.32.46.1a8,8,0,0,1-.47,1.1c.17.48.08.74-.1.85-.09-.34,0-.4,0-.4L14,44.14c0,.2-.27,0-.37,0-.17-.28-.17-.48-.35-.77l-.71-1.13c.09.14-.09-.14,0-.2-.27-.23-.19.11-.37,0-.18-.28.09-.06-.09-.34-.18.12-.36.23-.19.92a.91.91,0,0,1-.36-.37,1,1,0,0,1,.08.54l-.17-.29c-.28,0-.28.38-.65.21.09.34-.09.26.09.54,0,.2-.09-.14-.19-.08l.09.14c-.27-.22-.09.26-.28.38-.18-.29-.08-.35-.08-.35-.36-.36.08.75-.37.24.09.14.18.28,0,.2.09.14.19.08.28.22-.1.06-.46-.31-.28.18L9.84,44c-.27,0,0,.8-.29.78-.17-.28,0-.2-.08-.34s-.09.06-.28.17c.44,1.31-.91-.22-.74.67l-.18-.09c.07.11.11.22.17.32a.67.67,0,0,1-.26-.26c.18.28,0,.4-.1.26-.09.06.09.34-.09.26l.09-.06c-.28,0-.1.46-.28.57-.09-.14-.18-.28,0-.2-.27-.22-.19.12-.1.26,0,0-.09-.07-.09-.14-.18-.09-.18.12,0,.4-.36-.17-.73-.14-.56.35-.08-.14-.17-.09-.26-.23.08.34-.28.18-.19.52-.19.11-.46.09-.38.63L6,47.6c.18.28-.19.11,0,.4-.09,0-.18-.09-.18-.09,0,.4-.46.29-.37.63-.1.06-.1.06-.19-.08.18.28,0,.2.27.63-.09,0-.09,0-.18-.09-.09.06,0,.2-.1.26l.27.43c-.09.05-.36-.37-.54-.45.09.14,0,.19.09.34-.09-.15-.19-.09-.28,0-.09.26-.55.55-.74.87l-.18-.29a2.32,2.32,0,0,0-.47,1.09c.18.09.18.29.27.43s-.18-.09-.27-.23c-.1.06,0,.2,0,.2l.1-.06.26.43c-.18-.08-.18-.08-.27-.22-.09,0,.09.14.18.28s-.09.06.09.34c-.19-.08,0,.2,0,.4-.09-.14-.09.06-.27-.22-.09,0,0,.19-.18.11l-.09-.14c-.09.06.17.28.17.28s-.08-.14-.18-.08l.27.42c-.09-.14-.09-.34.1-.25,0,0-.1.06,0,.2.1-.06-.08-.35.1-.26.27.42-.19.31,0,.6-.09-.14.18.08.37.17.08.34-.19.11-.28,0,.09.14-.18-.08-.18-.08l.27.42c-.09-.14-.19.12.08.34-.18-.08-.18.12-.27,0,.27,0-.18-.48,0-.4l-.27-.43c.09.14.27.43.08.54-.09-.34-.09-.14-.18-.08l-.09-.14s-.18-.28-.09-.34c-.09-.15-.18-.09-.18-.09s.1-.25,0-.4c.17.29,0,0,0,.2.09,0,.36.17.36,0S3,53,3,53l-.18-.29c-.09-.14-.18-.08-.27-.22s.09.14-.09.06a1.07,1.07,0,0,1,.17.68c.09.14.09-.06.27.23-.09,0-.27,0-.27.17l-.09-.14c-.18-.29,0-.2.09-.26-.18-.28-.36-.17-.37,0-.13-.06-.12.22-.18.26a.37.37,0,0,1,.18.14c-.09.06,0,.2.09.34-.1.06.08.15,0,.2.09.15.18.29.09.35.16,0,.21-.09.27-.18a.32.32,0,0,1-.18-.28l.18.28a.18.18,0,0,1,.19-.11c-.08-.13-.16-.11-.24-.21,0-.29.19-.36.34-.45a1.83,1.83,0,0,0,.36.76c-.09-.14-.1.06-.1.06l-.36-.16.18.28c-.09.06-.09.06,0,.2-.1.06-.19-.08-.19-.08l-.09-.15s-.09.06,0,.2L3,55v.4c-.18-.29-.28-.23-.46-.51-.18.31-.19.51-.37.43s.09.14,0,.2a2.61,2.61,0,0,1,.28-.17c.18.28-.1.25,0,.4a.65.65,0,0,0-.27-.23c-.18-.28-.18-.08-.09.06-.1.06-.18-.29-.18-.08-.09,0,.17.68-.1.45a.32.32,0,0,0,.18.29c0,.2.08.34-.1.25.09.15.18.09.27.23l.09.14c-.09.06-.18-.08-.27-.22.18.28,0,.2.09.34s.18.08.18.08l.18.29c-.18-.09-.28.17-.1.45-.09-.14-.18-.08-.27-.22.09-.06.18-.12-.09-.34l.09.14c-.09-.14,0,.2-.09.06,0,.2.09.14.18.28-.27-.22-.18-.08,0,.2-.09.06-.27-.23-.27-.23l.09.15c-.1.06.09.14,0,.2s0,.2-.18-.09l.18.29c-.09.06-.09-.15-.27-.23l.18.29.08.14s-.17-.09-.09.05c-.09.06-.08-.14-.08-.14s0,.2-.19-.08l.09.14c-.09.06,0,0,.09.14-.09.06-.09.26-.27,0,0,0,.09.14-.09,0l.09.15s.08.34-.19.11c.09.14.09.35-.09.26.18.09.09.14,0,.2a.69.69,0,0,1,.27.63c.09.14.08.34,0,.2,0,.2.27.42.18.48.09.14.09.14.18.09.09.14,0,.19,0,.19s.18.09.27.23c-.09.06.09.14.18.28-.09-.14.18.09,0-.2l.18.09c.28-.18.47-.49,1.1-.1,0,0,.09-.07,0-.2l.09.14c.19.08.1-.06,0-.2.36.37.36.17.46-.09l.09.14c.27-.17.54-.15.82-.32.09-.06,0-.2,0-.2,0-.2.1-.06.19-.12.09.15.09.15.18.09l-.09-.15c.83.08,1.19-.35,1.93-.62l-.09-.14s.08,0,.12,0a.32.32,0,0,1,.09.22,2.33,2.33,0,0,0,1.2,0l-.18-.29c.37,0,.84-.32,1.12-.3.09-.06.19-.12.1-.26.09.14.18.09.27.23,0-.17-.15-.46-.16-.6s0,0,0,0c.1.15.23.37.23.37s.19.08.28,0c-.09-.14-.09-.14,0-.2.27.43.27.23.45.51-.09-.14-.09-.14,0-.2.28.23.38-.23.75-.07,0,0-.09-.14,0-.2.18.29.18-.11.36.17l-.08-.35c.46.32.55.06.74-.06.27.23.28-.18.55,0-.09-.15,0-.2-.08-.35.36.37.55.05.56-.35.18.29.36.37.36.17-.06,0,0-.1-.09-.14.09.14.37.36.28,0,0,.2-.09.06-.18-.08.16-.11.44.13.58,0l.06,0s0,0,0,0,.16.09.24,0c-.09-.14.1-.26.28,0a.7.7,0,0,1-.13-.35c.07.09.15.18.22.29v-.2c.73.54-.07-1.36.93-.39.19-.12.28,0,.29-.18s-.1.06-.28-.22c.1-.27.74.33.83.07l-.18-.28c.37.36.19-.12.28-.18.09.14,0,.2.09.34,0-.2.09-.06.19.09-.27-.63.54.25.37-.24,0,0-.1.06-.28-.23.19-.11.56.26.47-.09l.09.15c.09-.07-.18-.29,0-.21.18.29.18.09.46.31,0-.4.37-.23.47-.49l-.18-.29a1.13,1.13,0,0,1,.46.31.85.85,0,0,1-.18-.49c.55.46.73.34.92.22-.18-.28-.09.06-.27-.23,0-.2.28,0,.19-.31-.09,0-.27-.23-.18-.09l-.73-1.14a4.93,4.93,0,0,0-.43-.53,2.15,2.15,0,0,0,.82-.48c.09-.06,0-.2,0-.2a.89.89,0,0,1,.17-.08,2,2,0,0,0,.48,0c.27.43-.18.12-.1.47.09.14.28.22.19.08.36.57.17.49-.1.26l-.18-.29s-.19-.08-.19.12c-.18-.08-.28.18-.37.24.18.28,0-.41.46.11l.09.14c-.09.06-.1.26-.37,0l.27.43c0-.2.09-.05.18.09-.18-.09.18.28.09.34-.18-.28-.37-.17-.19.12,0-.2.46.31.36.37.28,0,.2-.32.74.13-.18-.28.19-.11.28-.17l-.18-.09c.37.17.56,0,.56-.15s-.28-.23-.18-.08L21,54.58c.19.08.1-.06.19-.12l.09.14a2.3,2.3,0,0,1,1,.37c-.09-.15,0-.41.19-.12.09-.06,0-.2.1-.26.09.14.18.08.18.08l-.09-.14c.18.08.28-.18.56-.35.09.14.46.31.19-.12.27.43.46.11.19-.32.09.14.27.23.36.37.1-.06,0-.2,0-.41.09.15.18.09.18.09-.09-.35.28,0,.28,0l-.27-.43c.18.09.46-.09.65-.21l.09.15c.09-.06.18.08.09-.06.46.31.65.19.56-.15a.87.87,0,0,0,1.21-.57c.46.31.37,0,.38-.23l.18.28c.19-.12.28,0,.19-.32.36.37.28-.17.55,0l-.27-.43c.1-.06.09.15.1-.06.09.15.27.43.18.09-.09.06-.45-.51-.54-.66.17.49-.46-.31-.29.18a1.36,1.36,0,0,1-.26-.63c.27.23,0,.2.18.28,0-.2-.09-.34-.45-.91a2.55,2.55,0,0,1-.45-.52c.18.09,0-.2,0-.4s.18.09.19-.12l-.27-.43a.94.94,0,0,0,.5-.13s0,0,.05,0a.06.06,0,0,1,0,0,.41.41,0,0,0,.11-.06c.18.29.09-.06.18.29s-.55,0-.38.44c.37,0,.38-.24.92.22L27.24,49c.28.22.18.28.27.43-.18-.09.09.34-.18.11l.27.43c-.19-.08-.18-.28-.28-.23-.27,0-.46-.1-.56.16.55.45.29-.38.75.13.09.14-.19-.08,0,.2l.09.15c0-.21.1-.26.37,0-.18-.08.09.35.09.35-.27-.43-.18-.09-.28,0,.09.15,0,.2.18.29,0,.2-.28,0-.37.23.27.23.27,0,.54.46-.36-.57.28.22.1-.26.37.37.28,0,.37.37,0-.2-.09-.35.09-.06-.09-.14-.18-.29-.09-.35.09.15.37.17.19-.11l.36.37c-.08-.35.47.1.29-.38.18.08.64.39.37-.24.28-.18.65,0,.65-.21-.18-.28,0,.2-.27-.23.09-.05-.09-.34,0-.4.09.14.08.35.18.29s.45.31.64.39c-.09-.54.55,0,.56-.35-.19-.09-.45-.72-.28-.23-.54-.86-.81-.88-1.62-2.17.18.29-.1.06-.19-.08-.17-.69.28-.38.2-.73l.18.29c.1-.26.46-.1.64,0,.18.29-.18-.09,0,.4-.37-.16-.38.24-.56.36.36.37.55.25.55.25.27.23,0,0,.27.43.27.23.63.8.64.39.36.58.55.66.46.32.09.14.09.34.27.42,0,0-.18-.28-.09-.34.36.37.1-.26.55.25-.09-.14.28,0,0-.4.37.17.64.19.84-.13.36.17.64,0,.38-.64l.27.43c-.27-1,1.11-.1,1.21-1,.1.15.46.31.28,0,.18.08.19-.12.28-.18l-.18-.28c.1-.06.28.22.37.36L35.87,48c.45.51.18-.32.37-.44.36.57.19.09.19.09l.18.28c.45.31,0-.6.55-.15.1-.46.84-.13.48-.9.37.17.55.25.74.13.83.28.84-.53,1.39-.47.11-.47.93,0,.76-.68.09.14.27.23.27,0l.09.14c.56.05.85-.73,1.4-.68.18.08.09-.06,0-.2,1.21,0,1.69-1.27,2.71-1.31,0-.2.09-.06-.09-.34.19.08.19.08.28,0ZM23,34.9l-.09-.14c-.18-.29-.09-.35.18-.12C23.22,35.12,22.68,34.47,23,34.9Zm.38-.84c.09.15,0,.21.08.35C23.32,34.46,23.14,34,23.33,34.06Zm.37-.23c-.09-.14-.09-.14,0-.2l.27.43c-.09.06-.09.06-.18-.09l.18.29C23.87,34.32,23.7,33.83,23.7,33.83Zm6.54-3.72c-.18-.29,0-.21-.09-.35C30.42,30.19,30.33,30.05,30.24,30.11ZM26,34.78c-.09.06-.18-.09-.37-.17.09.34,0,.6-.19.52.09.34,0,.2-.18.11-.26-.82.19-.91.47-.89Zm4.81-4.22c.18.28,0,.2,0,.4l-.27-.43C30.69,30.61,30.6,30.47,30.78,30.56Zm-6.55,4.32-.09-.14c0,.2-.09.06-.27-.22.09-.06.18.08.27.22L24,34.46c.1-.06.18.08.19-.12l.26.43C24.41,35,24.23,34.68,24.23,34.88Zm-.29.78a.64.64,0,0,1-.06-.16l.44-.27C24.5,35.51,24.31,36,23.94,35.66Zm1.1.1c-.27-.42-.36-.37-.45-.31-.45-.71.18.08-.18-.48.18.08.45.51.46.31l.26.42Zm-2.73-.86.18.29c-.09.06-.18-.08-.18-.08C22.13,34.82,22.31,34.9,22.31,34.9Zm-.1.66c-.27-.22,0,.6-.37,0C22,35.68,21.5,34.43,22.21,35.56Zm-.74.47c-.09.06,0,.2.09.34-.09.06-.1.46-.64-.19-.09-.14.09-.06-.08-.35.08.15,0-.19.27-.17-.27-.23-.09.06-.18-.08s0-.2.18.08c0,0,0-.2.27.23l-.09.06c.09.14.09.14.18.08l.09-.06c.36.57-.09.06.18.48Zm-.38,1.23.09-.26.27.43c-.27-.31-.15-.08-.08.11C21.24,37.38,21.23,37.49,21.09,37.26Zm.09.34c-.08-.29.1-.05.21,0s.06.16,0,.09l.17.28C21.44,38,21.35,37.89,21.18,37.6ZM22.46,37c-.18-.28,0-.2-.26-.63l.18.09c.09-.06-.09-.35-.18-.49.09-.05.09.14.18.09a4.7,4.7,0,0,0,.45,1.11C22.74,37.21,22.47,36.79,22.46,37Zm-.1.66c.1-.06.1-.06.28,0,.08.34,0,.2,0,.4C22.45,38,22.45,37.79,22.36,37.65Zm-4.84-.12c.27.42-.09.06-.09.26C17.34,37.64,17.43,37.39,17.52,37.53Zm-.28.37c-.18-.28.18.09-.09-.34.1-.06.18.29.18.29S17.33,38,17.24,37.9Zm-.1.46c-.18-.28,0-.2,0-.2l.09.14C17.32,38.44,17.15,38.16,17.14,38.36Zm3.83.76c.09.14.27.42,0,.2C21,39.12,20.88,39,21,39.12Zm-4.45,1.46a.26.26,0,0,0-.14-.15c.09.14,0,.19-.09,0s-.09-.14,0-.2c-.18-.28-.09.06-.18.12-.18-.48.27-.17.28-.37C16.53,40.26,16.42,40.33,16.52,40.58Zm-2,1-.09-.14c-.27-.43,0,0,.09-.06ZM17.77,39a.33.33,0,0,1,.19-.31c.19-.12.1-.26.28-.18l.26.43c-.05,0-.11-.07-.17-.15a.31.31,0,0,1,.08.21s-.09.06-.36-.37l.27.43c-.09.05-.18-.09-.36-.37l.18.28a.86.86,0,0,0-.37.43c-.09.06-.09.06-.27-.22l.09.14c-.27-.43,0,.2-.28-.23C17.23,38.7,17.5,38.53,17.77,39Zm-4.15,2.82c-.09.06-.09.06-.28,0a.78.78,0,0,0-.17-.48c.18.09.27.23.18.09.09-.06.09.14.27.22,0-.14.12,0,.14,0s.06.28.13.39c-.18-.08-.18-.28-.27-.42C13.62,41.77,13.35,41.35,13.62,41.77Zm-.29.77c-.18-.28,0-.2-.08-.34.09.14.09-.05.18.09S13.43,42.49,13.33,42.54Zm1.11-.49-.18-.29c.09,0,.18.29.18.29l.09.14c0-.2,0-.4.09-.46,0,.2.18.48-.09.46l.09.14c-.1.06-.1.26-.19.32C14.34,42.3,14.52,42.39,14.44,42.05Zm.82-.13c.28,0,.47-.49,1-.44,0,.2-.09.26-.28.38S15.62,42.29,15.26,41.92Zm1.85-1.16.09.14c-.19.12-.19.52-.56.55C16.28,40.68,17,41,17.11,40.76Zm1.09.7c-.1.06-.09-.14-.09-.14L18,41.18c-.09-.34-.18-.29-.27-.43s.09,0-.18-.48c.55-.35.74-.67,1.2-1,.19-.11.46.11.64,0-.08-.15-.08-.34.09-.06a2.72,2.72,0,0,0-.28,1,.8.8,0,0,1-.09-.14c-.18-.08,0-.2-.27-.43-.09-.14-.09.06-.18-.08a.88.88,0,0,1,.18.49c-.28,0-.19.51-.47.49a.85.85,0,0,0,.18.48c-.09-.14-.18-.28-.09.06-.19-.08-.1.06-.19.11.18.29.18.09.36.37C18.56,41.63,18.29,41.41,18.2,41.46ZM6.71,51.67l-.09-.14-.09.06c0-.2,0-.2.1-.26C6.81,51.61,6.71,51.67,6.71,51.67Zm-.18-.28c-.18.12-.35-.37-.36-.17l-.36-.57c-.18-.08-.09.06-.18.12-.09-.14.09-.26.1-.46.09.14,0,0,.18.09-.09-.15-.36-.37-.27-.23-.09.06-.18-.28,0-.2l.09.14.18.29c.09.34,0,0,.09.14s-.09.05-.18-.09c.17.49.36.37.45.31l.18.29C6.36,51.1,6.27,51,6.53,51.39Zm-2.19.19c.18.09,0,0,.09.15-.09.05-.18-.29-.18-.09-.19-.08,0,0-.18-.28A.66.66,0,0,1,4.34,51.58Zm.56-.74.28-.18c.09-.06.08.14.18.08C5.26,50.8,5.08,51.12,4.9,50.84ZM6.19,50c-.18-.48,0-.6.37-.23.18.28.09.34,0,.4l-.09-.14c0-.2,0-.2.1-.26C6.47,49.85,6.19,49.62,6.19,50Zm5.43-2.43c-.18-.28-.28,0-.45-.51-.1.06,0,.2,0,.2s.19.08.18.29c-.18-.29-.09,0-.36-.17-.09-.14.09-.06-.09-.35l.28-.17c.18.29-.09.06,0,.2.27.23.27-.17.36,0C11.8,47.47,11.53,47.25,11.62,47.59ZM8.21,49.14c-.09-.14-.17-.48,0-.4C8.31,49.08,8.22,48.94,8.21,49.14Zm5.92-4.32a.62.62,0,0,0,.08.34L14,44.88Zm-3.86,1c-.09-.14-.18-.28-.09.06L10,45.64C10.09,45.58,10.09,45.58,10.27,45.86Zm2.13-2.14c-.09-.14-.09-.14-.18-.08-.18-.28.09-.06,0-.2C12.32,43.38,12.31,43.58,12.4,43.72ZM12,43.56l.09.14c-.18.12-.1.46-.46.29C11.58,43.65,12,43.62,12,43.56ZM9.46,45.19c.17.48-.19.11-.1.45.18.09.09,0,.09,0,.27.22.28,0,.37,0l.18.29c-.09,0-.18-.09-.28,0,.18.29.27.23.36.17l.27.43c-.09.05-.18-.09-.18.11L9.9,46.1s.08.13,0,.19.1.08.18.29l.09.14-.1.06-.18-.28c.1-.06.19.08.19.08l-.18-.29h0a.48.48,0,0,1-.23-.18s.05,0,.05-.1-.09.06-.36-.37l-.18-.28C9.18,45.16,9.36,45.24,9.46,45.19Zm1.76-1.91c-.09-.14.09-.06-.08-.34.35.37.27,0,.45.11l.18.28c-.09.06-.28,0-.19.32-.18-.29-.09-.14-.27-.23Zm-1.11,1.1c0,.2-.09.06-.1.26C9.83,44.35,9.93,44.29,10.11,44.38ZM7.24,47l.09-.06c.09-.06.27.23.36.37-.18-.08-.09.06-.18.12C7.42,47.26,7.51,47.21,7.24,47Zm1.19-.35c-.09-.15.09.14.18.08.09.14-.09.06-.09.26l-.09-.15C8.52,46.77,8.43,46.63,8.43,46.63Zm-1,.84c-.18-.09,0,.19,0,.19C7.05,47.3,7.14,47,7.41,47.47ZM6,48.54c.18.08,0,.2-.1.26C5.85,48.45,6.12,48.68,6,48.54ZM9.25,46.9c-.09-.14-.18.12-.09.26s-.27-.43-.18-.28c-.09-.34-.18-.29-.27-.43l.09.14c.18.29-.19-.08-.1.06-.17-.28.19-.11-.08-.54C8.53,46,8.44,46,8.44,46s-.09-.34.09-.05c0-.17,0-.22,0-.34.05.09.1.19.18.22l-.18-.28c.09-.06.18.08.27.22s.09.14.08.35.1-.06.1-.06l.27.42-.19.12c.18.28.36.37.36.56s0-.19.09,0-.09,0,0,.2c.27.22.09-.26.36.16-.09-.14-.27-.22-.09.06-.45-.31-.37,0-.55,0C9,47.08,9.34,47.24,9.25,46.9ZM8,49.66c-.18-.09-.18.11-.36-.17s.18.08,0-.2c-.18-.08-.36-.37-.36-.17-.18-.48.36,0,.1-.45ZM3.78,52.13c.09-.06,0-.2,0-.2l.18.29c.1-.06,0-.2,0-.2-.09-.15,0-.2-.27-.43.15.07.08-.09.16-.1a.53.53,0,0,1,0-.15c.07.1.08-.06.16.08l.09.14L4,51.62c-.09.05.18.28.09.34s.09-.06.18.08a.35.35,0,0,0-.19.32C3.87,52.07,4,52.42,3.78,52.13Zm1.38-.87c.1-.06.1-.06.28.23C5.35,51.34,5.25,51.4,5.16,51.26Zm.37.17c.18.28.09.34.18.48s.18-.12.27,0c0,.4-.37,0-.64,0C5.34,51.74,5.43,51.69,5.53,51.43Zm-.38.63.1-.06a.78.78,0,0,1,.17.49ZM3.77,53.33c-.09-.14,0-.2,0-.2l.18.29C3.86,53.47,3.77,53.13,3.77,53.33Zm.46-.49c0-.2.18-.12.36.17,0,.2-.18.11-.19.32C4.23,53,4.32,53,4.23,52.84ZM6.9,51.75c-.09-.14,0,0,0-.19C7.08,51.84,7,51.7,6.9,51.75Zm19.17,1c.09.15-.18.12-.27,0C26,52.81,25.8,52.32,26.07,52.75Zm-.37,0s.28.22.18.28c-.27-.43-.09.06-.27-.23S25.7,52.79,25.7,52.79Zm-.46-.11.09.14s0,.2-.18-.08C25.33,52.82,25.15,52.53,25.24,52.68Zm2.64-3.07c-.15-.23,0-.19-.13-.38.14.15.3.36.14,0l.27.43Zm2.69-.09s0,.2-.19-.08c0,0-.09-.15,0-.21Zm-.65-.19c.72,1.14-.18.11-.19.32C29.37,49.08,30,49.67,29.92,49.33Zm-.65.41-.1.06c-.09.06-.09.06,0,.2l.09-.06c.28.43.09.35.09.35.18.28.18.48,0,.2s.09.14,0-.2c-.1.26-.37,0-.28.17-.18-.28-.18-.08-.27-.22-.36-.78,0-.61.1-.67.09.14.18.29.27.23l-.27-.43C29.17,49.8,28.91,49.17,29.27,49.74Zm.29-.78c-.09,0,.09.14,0,.2-.09-.15-.28-.43-.37-.37V49c-.27-.43-.28-.23-.46-.51.19.08-.08-.35,0-.41A4.3,4.3,0,0,0,29.56,49Zm-1.95.23c0-.12,0-.07.1,0s.13.39-.1.2-.27-.43-.18-.49ZM13.52,56.87c.18.08.18-.12.27,0-.09.06.09.35,0,.21S13.7,57,13.61,57Zm-4.71,1h0Zm8.27-8.36h0c0-.2.09-.06.18-.12h0Zm0,0-.1.07c0-.13,0-.21.06-.25A.33.33,0,0,1,17,49.54Zm14.69-2.95c0-.2.29-.18.56,0,0-.2-.09-.34,0-.4l.27.43c-.09.26-.38.64-1,0C31.54,46.51,31.45,46.36,31.72,46.59Zm6.53-2.91c0,.2-.09.06-.1.26l-.27-.43C38.07,43.59,38.07,43.39,38.25,43.68Zm.45.92c-.09-.15-.1.06-.28-.23C38.52,44.31,38.43,44.17,38.7,44.6Zm-15.16-.17.18.29c-.09.05-.27-.23-.35-.37,0-.4.27-.18.54-.15.18.28.09.34.27.62C23.73,44.32,24.08,45.28,23.54,44.43Zm1.39-.87c.18.28.27.42,0,.2Zm8.85-5.18c0,.2-.18.11-.37,0l-.36-.57c-.18-.08.09.34.09.34-.18-.28-.27-.42-.35-.56.17.08,0-.2-.09-.54C33.15,37.59,33.34,37.27,33.78,38.38Zm-18,9.34a.53.53,0,0,1-.46.09c-.08-.35.28-.18.1-.66.1-.06.37,0,.19-.32.28,0,.45.31.72.74C16.28,47.82,16.18,48.08,15.82,47.72ZM5.55,55a1,1,0,0,0,.11.29L5.48,55c-.09-.14,0-.2,0-.2a.59.59,0,0,1,.06.16l-.06,0C5.55,55.14,5.53,55.08,5.55,55Zm-.15-.93c.18.08.18.28.36.56C5.58,54.57,5.49,54.23,5.4,54.09Zm-.09-.35a.14.14,0,0,1-.17.1C5.21,53.76,5.15,53.47,5.31,53.74Zm14.31-9.41c0,.4-.28.38-.47.49a1.07,1.07,0,0,0-.17-.48l.09.14C19.16,44.42,19,43.34,19.62,44.33ZM5.78,53.05l-.09-.14C5.6,52.77,5.87,53,5.78,53.05Zm-1.1.5c.09.14.18-.12.36,0s0,.19.08.32c-.09,0-.15,0,0,.22C5,54.12,5,54,4.86,53.83c.08.35-.28.18-.1.46a.8.8,0,0,1-.36-.37c.09-.05.09-.25.27-.17l-.09-.14c-.09-.14.1-.06.19.08Zm-.37,0c.09.34-.1.26-.19.52.09.14.18-.12.27,0,.09.34,0,.59-.28.37C4.12,54.1,4,53.76,4.31,53.58Zm-.57,1.15-.09-.14c.1-.06.19.08.19.08S3.84,54.67,3.74,54.73ZM2.27,55.86c-.09-.14-.09-.34.09-.06C2.27,55.86,2.36,56,2.27,55.86Zm.92-.38c.08.14,0,0,.18.08l.27-.17a.39.39,0,0,0-.08-.34c-.18-.29-.1.06-.27-.23.09.15,0-.2,0-.2.18.29.45.31.54.65,0,0-.27-.22-.09.06s0,0-.1.06c0,.4-.18.32-.28.57-.09-.14-.17-.48-.18-.28C3,55.6,3.19,55.48,3.19,55.48ZM2.8,56.71l-.09.06a.84.84,0,0,0-.17-.48c.09-.06.09-.06.09-.26a.73.73,0,0,0,.09.34c.08.14-.09-.14.09-.06.17.49-.1.26.08.54Zm.27.23c.18.28-.18.12-.09.26C2.71,56.77,3,57,3.07,56.94Zm10.24-6.06a1.45,1.45,0,0,1-.27-.62c.19-.12.37,0,.37-.43-.54-.65-.28.57-.82-.08.19-.12.28-.57.47-.69a1.17,1.17,0,0,1,.27.62c.21.19.28.16.44.35,0,.14-.15.12.09.51C13.68,50.65,13.4,50.63,13.31,50.88Zm6.82-4.1C20,46.5,20,46.5,20,46.44c-.17-.28-.09.06-.36-.37.1-.06.19.09.37.17C20.13,46.58,20.4,47,20.13,46.78ZM10.71,58.44c.1-.06.28-.18.28,0C10.9,58.32,11,58.66,10.71,58.44Zm1.68-.86s.18.28.18.08C12.85,58.09,12.57,58.07,12.39,57.58Zm.55.45c-.09-.34-.18-.29-.27-.43.09-.06.18.09.19-.12.09.15.27.43.17.49Zm5.31-2.55.18.29c0,.2-.27,0-.09.46-.18-.29-.19-.08-.28-.23L18,55.86c0-.2.1-.06-.08-.35C18.16,55.74,18.16,55.54,18.25,55.48Zm-1.68,1.06c0,.2-.1.26-.28,0C16.48,56.6,16.39,56.46,16.57,56.54Zm-1.83.89-.31-.14c.18.29,0,.2-.09.06s.09-.06,0-.2c-.27-.43-.28,0-.46-.31.09.14-.08-.35.1-.06l.09.14c-.09-.14,0-.2-.27-.43l-.06-.1.22-.1c0,.07.06.14.12.23l.18-.12.27.43s-.18-.09-.09.06.18.08.27.22.18.29.09.35l-.18-.29A.55.55,0,0,0,14.74,57.43ZM18.36,55c-.09-.15,0,.2-.19-.09.1-.06.1-.06,0-.2C18.27,54.87,18.45,55,18.36,55Zm-.75.27c0-.41.28-.18.47-.3l.09.15C18.07,55.2,17.89,55.51,17.61,55.29Zm-2.32.46c.18.29.18.29.09.34l-.18-.28C15.47,56,15.38,55.89,15.29,55.75Zm-.19.52c.09-.06,0-.2.09-.26l.18.29c-.09.06-.27,0-.19.32,0,0-.09-.15-.09.06.28.22.1-.26.46.1-.09.07-.09.27-.28.18l-.18-.28c-.27-.43-.09-.35-.18-.49s-.11,0-.11,0a.47.47,0,0,1-.06-.29h0l-.05-.08h0s.05.07.05.08.18.09.18.09l-.15-.24.11-.11.06,0,.16.25C15,55.93,14.92,56,15.1,56.27Zm6.35-4c.19-.12.29-.18.47-.1-.2.53-.75.47-.85.74C20.9,52.42,21.27,52.38,21.45,52.27Zm.66-.42c.19-.32.55-.15.74-.27l.09.15C22.66,51.7,22.65,52.51,22.11,51.85ZM19.66,54.4c.1-.06.1-.27.28,0s-.09.06,0,.2C19.85,54.48,19.84,54.68,19.66,54.4Zm1.1.5c-.09-.14,0,0,0,.2a.83.83,0,0,0-.37-.37c0-.2,0-.2.1-.26.27.43,0,0,.19.08-.09-.14-.28-.22-.27-.43.07.12.23.18.3.29s.09.2,0,.14C20.67,54.76,20.86,54.84,20.76,54.9Zm.3-1.19.18.09c-.09.06.18.49-.09.06Zm4-2.33.27.43c-.27-.43-.18-.49-.18-.49a.27.27,0,0,1,.15.17c0-.09-.12-.19-.06-.23l.27.43c0,.2-.09.06-.28.18a.31.31,0,0,1-.37,0c.27.43,0,.61-.28.38-.27-.43.18.09-.09-.34l.09.14c-.18-.29-.18-.29-.09-.34a.86.86,0,0,0,.56-.16l.18.29C25.07,51.58,25,51.44,25.08,51.38ZM23.3,52.7c-.19-.08-.1.46-.47.1.1-.06.37.16.19-.12-.09.06-.18-.09-.18-.09s0-.2.09-.05a.31.31,0,0,0-.08-.2C23,52.54,23.15,52.47,23.3,52.7Zm-2.7.9s.27.23.18.29l-.18-.29c-.28-.22-.28,0-.55-.25.09-.06.27,0,.37,0l.09.14c.1-.26.28,0,.46.11-.09.06-.28,0-.46-.11Zm4.77-3.4c.18.28,0,.2-.09,0-.19.12-.1.47-.29.59-.46.29-.84.32-1.4.68-.27-.43-.18-.09-.36-.37s0-.21-.27-.43l-.07-.12c.08,0,.14-.11.22-.15a.1.1,0,0,0,.11-.06l.05,0c.19.15.15.07.08-.05h0a.77.77,0,0,0,.34.35c.1-.26.56.05.65-.21a.85.85,0,0,1,.36.37c-.09-.14.1-.06,0-.2-.09-.35-.28-.23-.27-.43L24.36,50A2.88,2.88,0,0,0,25.37,50.2Zm.76-1.28c.09.14,0,0-.18-.09C25.86,48.49,26,48.77,26.13,48.92Zm1.69-1.06c.18.08.09-.07.36.16,0,.2,0,.2-.09.26C28,48.14,27.82,48.06,27.82,47.86Zm2.89,0a.79.79,0,0,1-.12-.13c-.17-.49.38-.44.56-.15Zm.36-.62c.09-.06.18-.12-.09-.55l.1-.06.27.43c-.19-.08.08.35.08.55C31.07,47,31.52,47.92,31.07,47.21Zm.63,1-.18-.29c.09.15.18.29.09.35-.19-.29-.28-.43-.09-.35l-.09-.14c.18.08,0-.2.18-.12l.27.43C31.7,48,31.79,48.15,31.7,48.21Zm-.76.87-.09-.14c.27.43-.08-.35.28,0C31.22,49.31,31.12,49.37,30.94,49.08Zm.56-.35c.09.14.19.08.28.23S31.41,48.79,31.5,48.73Zm.65,0s-.36-.37-.27-.43l.18.29c-.09-.15-.09-.15,0-.2l.27.43C32.24,48.86,32.24,48.86,32.15,48.72Z"/></svg>