<svg id="_ÎÓÈ_1" data-name="—ÎÓÈ_1" xmlns="http://www.w3.org/2000/svg" viewBox="0 0 210.92 57.96"><defs><style>.cls-1{fill:#f36543;}</style></defs><title>Artboard 3 copy 4</title><path class="cls-1" d="M19.52,6.27A39.59,39.59,0,0,1,27.64,7a26.09,26.09,0,0,1,6.24,2.11A16.65,16.65,0,0,1,41.4,16.4a18.37,18.37,0,0,1,1.67,4.66,24.84,24.84,0,0,1,.51,5,34,34,0,0,1-.78,7.16,36.64,36.64,0,0,1-2.27,7,33.44,33.44,0,0,1-3.66,6.36,26,26,0,0,1-5,5.18,23,23,0,0,1-6.16,3.49,20.3,20.3,0,0,1-7.26,1.28,19.17,19.17,0,0,1-2.69-.2,25,25,0,0,1-2.66-.53c-.86-.23-1.67-.48-2.44-.76a17.76,17.76,0,0,1-2-.87A1.85,1.85,0,0,1,8.1,54a1.11,1.11,0,0,1-.32-.37,1.46,1.46,0,0,1-.14-.52q0-.3,0-.78,0-4.65.24-9.53a88.92,88.92,0,0,1,1-9.52,56,56,0,0,1,2.1-8.87,29.53,29.53,0,0,1,3.64-7.55,6.59,6.59,0,0,1,3.61-1.37,4,4,0,0,1,3.42,2.29,17.7,17.7,0,0,0-2.16,3.87A34.37,34.37,0,0,0,18,26.09c-.39,1.56-.72,3.15-1,4.78s-.51,3.21-.73,4.76q-.39,2.58-.66,4.41c-.18,1.23-.32,2.29-.42,3.21S15,45,15,45.66s-.07,1.36-.07,2A16.71,16.71,0,0,0,15,49.41a2.43,2.43,0,0,0,.33,1.12,1.53,1.53,0,0,0,.82.61,4.81,4.81,0,0,0,1.47.18,13.08,13.08,0,0,0,5.32-1.11,18.18,18.18,0,0,0,4.65-3,22.83,22.83,0,0,0,3.82-4.33,30.45,30.45,0,0,0,2.89-5.21,31.76,31.76,0,0,0,1.83-5.59,24.7,24.7,0,0,0,.65-5.47,15.06,15.06,0,0,0-1.07-5.82,12.23,12.23,0,0,0-3-4.34,13,13,0,0,0-4.61-2.72,18,18,0,0,0-5.91-.94,40.06,40.06,0,0,0-4.66.28,26.44,26.44,0,0,0-4.29.87,14.6,14.6,0,0,0-3.48,1.5A6.52,6.52,0,0,0,7.5,17.64q-2,3.16-3.36,4.89c-.88,1.15-1.62,1.72-2.22,1.72-.82,0-1.23-.94-1.23-2.83a15.73,15.73,0,0,1,.72-4.93,13.18,13.18,0,0,1,2-3.88,12.52,12.52,0,0,1,3-2.88,17.36,17.36,0,0,1,3.84-2A22.92,22.92,0,0,1,14.7,6.63,31.79,31.79,0,0,1,19.52,6.27Z"/><path class="cls-1" d="M54,54.9A10.4,10.4,0,0,1,49.37,54a9.4,9.4,0,0,1-3.29-2.56,11,11,0,0,1-2-3.73,14.82,14.82,0,0,1-.66-4.44,19.83,19.83,0,0,1,.31-3.32,19.58,19.58,0,0,1,.94-3.43,18.39,18.39,0,0,1,1.58-3.21,13,13,0,0,1,2.23-2.69,10.4,10.4,0,0,1,2.86-1.85A8.86,8.86,0,0,1,54.87,28a8.18,8.18,0,0,1,2.92.5A7.3,7.3,0,0,1,60.13,30a6.37,6.37,0,0,1,1.55,2.19A7.27,7.27,0,0,1,62.24,35a7.75,7.75,0,0,1-.85,3.47A12.52,12.52,0,0,1,59,41.79a16.93,16.93,0,0,1-3.6,2.75,19,19,0,0,1-4.52,1.87,9.06,9.06,0,0,0,.82,1.27,4,4,0,0,0,.83.78,2.56,2.56,0,0,0,.88.39,4,4,0,0,0,1,.11A10.37,10.37,0,0,0,58,48.29a23.76,23.76,0,0,0,3.63-1.68,30.44,30.44,0,0,0,3.33-2.2,27.71,27.71,0,0,0,2.66-2.25l3.62,3.75A37.47,37.47,0,0,1,66,50.42c-.81.56-1.67,1.11-2.59,1.65a22.67,22.67,0,0,1-2.92,1.45,21.15,21.15,0,0,1-3.16,1A14.82,14.82,0,0,1,54,54.9ZM50.25,41.74a5.65,5.65,0,0,0,2.2-.52,10.14,10.14,0,0,0,2.21-1.33,9,9,0,0,0,1.73-1.77,3.17,3.17,0,0,0,.7-1.85,4.12,4.12,0,0,0-.47-2.07,1.31,1.31,0,0,0-1.13-.81A4.27,4.27,0,0,0,52,35a6,6,0,0,0-.92,1.62,10.37,10.37,0,0,0-.53,1.84,11.44,11.44,0,0,0-.24,1.79C50.27,40.83,50.25,41.33,50.25,41.74Z"/><path class="cls-1" d="M72.8,54.9A3.89,3.89,0,0,1,70,53.57,11.37,11.37,0,0,1,67.72,50a23.71,23.71,0,0,1-1.51-5.2,33.5,33.5,0,0,1-.55-6.2A44.62,44.62,0,0,1,66,33.18c.25-1.95.6-4,1.07-6s1-4.16,1.67-6.25a62.79,62.79,0,0,1,2.18-6,51,51,0,0,1,2.65-5.39,28.26,28.26,0,0,1,3-4.37,13.76,13.76,0,0,1,3.27-2.93,6.52,6.52,0,0,1,3.48-1.07,3.46,3.46,0,0,1,2,.55A3.83,3.83,0,0,1,86.56,3.1a7,7,0,0,1,.63,2,14.79,14.79,0,0,1,.18,2.31,25,25,0,0,1-.6,5.37,41.59,41.59,0,0,1-1.62,5.49c-.69,1.84-1.48,3.69-2.37,5.53S81,27.52,80,29.34,78,33,77.05,34.72s-1.9,3.49-2.76,5.17a4.6,4.6,0,0,0-.29.73,9.91,9.91,0,0,0-.3,1c-.09.35-.19.72-.28,1.11s-.17.77-.22,1.15v.39a6.48,6.48,0,0,0,.15,1.41,7.56,7.56,0,0,0,.38,1.24,4.31,4.31,0,0,0,.47.87.69.69,0,0,0,.48.32,4,4,0,0,0,1.22-.23,11.91,11.91,0,0,0,1.46-.6c.51-.25,1-.54,1.58-.87s1.06-.66,1.57-1c1.17-.79,2.41-1.69,3.7-2.72l2.29,5.88a54.81,54.81,0,0,1-4.93,3.2c-.71.39-1.44.78-2.2,1.16a23,23,0,0,1-2.28,1,18.1,18.1,0,0,1-2.24.72A8.53,8.53,0,0,1,72.8,54.9Zm0-22.41q1.26-2.24,2.68-5t2.67-5.77q1.26-3,2.19-5.93a27.46,27.46,0,0,0,1.17-5.5c0-.54,0-1,0-1.39s-.11-.57-.26-.57a2.51,2.51,0,0,0-1.75,1.05,13.54,13.54,0,0,0-1.88,2.84,33.42,33.42,0,0,0-1.79,4.17q-.85,2.38-1.53,5.07A54.26,54.26,0,0,0,73.22,27,40.64,40.64,0,0,0,72.83,32.49Z"/><path class="cls-1" d="M99.7,48.94a25.41,25.41,0,0,1-2.51,2A26.25,26.25,0,0,1,94,52.84a25.37,25.37,0,0,1-3.55,1.48A11.12,11.12,0,0,1,87,54.9a6.51,6.51,0,0,1-2.45-.4,4.06,4.06,0,0,1-1.61-1.14A4.26,4.26,0,0,1,82,51.58a9.27,9.27,0,0,1-.27-2.31,24.41,24.41,0,0,1,.4-4.1c.28-1.56.61-3.18,1-4.85s.81-3.34,1.25-5,.82-3.19,1.16-4.59a2.51,2.51,0,0,1,.78-1.25,5,5,0,0,1,1.33-.84,7.63,7.63,0,0,1,1.54-.48A8,8,0,0,1,90.68,28a2.21,2.21,0,0,1,1.59.43,1.58,1.58,0,0,1,.43,1.17,8.6,8.6,0,0,1-.28,1.77c-.19.78-.43,1.66-.71,2.64s-.57,2-.89,3.16-.62,2.26-.9,3.39-.51,2.24-.7,3.31a16.72,16.72,0,0,0-.28,2.9,5.71,5.71,0,0,0,.28,2,1.11,1.11,0,0,0,1.15.75,4.61,4.61,0,0,0,2.24-.71,19.58,19.58,0,0,0,2.49-1.69c.85-.66,1.67-1.35,2.47-2.06s1.51-1.32,2.13-1.82ZM87.18,20.14a4.45,4.45,0,0,1,.28-1.46,4.5,4.5,0,0,1,.91-1.53A5,5,0,0,1,90.05,16a6.13,6.13,0,0,1,2.62-.49,7.39,7.39,0,0,1,1.85.22,4.54,4.54,0,0,1,1.51.69,3.21,3.21,0,0,1,1,1.22,4,4,0,0,1,.38,1.79,5.53,5.53,0,0,1-.31,1.85,4.23,4.23,0,0,1-1,1.6A5.16,5.16,0,0,1,94.45,24a6.3,6.3,0,0,1-2.46.43,5,5,0,0,1-3.64-1.16A4.16,4.16,0,0,1,87.18,20.14Z"/><path class="cls-1" d="M106.37,54.9a10.14,10.14,0,0,1-4.53-.95,9.55,9.55,0,0,1-3.26-2.55,10.9,10.9,0,0,1-2-3.7,14.16,14.16,0,0,1-.67-4.37,18.5,18.5,0,0,1,.33-3.39,20.35,20.35,0,0,1,1-3.46,19.51,19.51,0,0,1,1.62-3.23,13.2,13.2,0,0,1,2.24-2.71A10.5,10.5,0,0,1,104,28.69a9.11,9.11,0,0,1,6.4-.19,6.9,6.9,0,0,1,2.32,1.36,6.2,6.2,0,0,1,1.52,2.06,6.12,6.12,0,0,1,.54,2.56,7,7,0,0,1-.25,1.88,5.68,5.68,0,0,1-.74,1.66,4,4,0,0,1-1.19,1.19,2.85,2.85,0,0,1-1.57.45c-.88,0-1.45-.23-1.72-.7a3.85,3.85,0,0,1-.41-1.93c0-.34,0-.69,0-1.06s0-.71,0-1a3.6,3.6,0,0,0-.14-1.12.58.58,0,0,0-.61-.45,3.45,3.45,0,0,0-2,.54,4.87,4.87,0,0,0-1.39,1.43,7.71,7.71,0,0,0-.91,2,20.06,20.06,0,0,0-.53,2.2,16.24,16.24,0,0,0-.25,2.09c0,.66-.06,1.22-.06,1.67a13,13,0,0,0,.18,2.1,6.16,6.16,0,0,0,.69,2,4.31,4.31,0,0,0,1.37,1.51,3.87,3.87,0,0,0,2.24.61,6.64,6.64,0,0,0,3-.83,21,21,0,0,0,3.26-2.09,29.12,29.12,0,0,0,3.13-2.77A36,36,0,0,0,119.48,41l1.93,3.25a36.25,36.25,0,0,1-4.54,5.35,27.25,27.25,0,0,1-2.25,2,20.19,20.19,0,0,1-2.55,1.7,15.78,15.78,0,0,1-2.77,1.2A9.54,9.54,0,0,1,106.37,54.9Z"/><path class="cls-1" d="M135.36,48.94a25.17,25.17,0,0,1-2.5,2,27,27,0,0,1-6.78,3.41,11.18,11.18,0,0,1-3.44.58,6.55,6.55,0,0,1-2.45-.4,4.06,4.06,0,0,1-1.61-1.14,4.38,4.38,0,0,1-.88-1.78,9.27,9.27,0,0,1-.27-2.31,24.52,24.52,0,0,1,.41-4.1c.27-1.56.6-3.18,1-4.85s.81-3.34,1.25-5,.83-3.19,1.16-4.59a2.53,2.53,0,0,1,.79-1.25,4.69,4.69,0,0,1,1.33-.84,7.44,7.44,0,0,1,1.54-.48,7.83,7.83,0,0,1,1.44-.15,2.22,2.22,0,0,1,1.6.43,1.61,1.61,0,0,1,.42,1.17,8,8,0,0,1-.28,1.77c-.19.78-.42,1.66-.7,2.64l-.9,3.16c-.32,1.13-.61,2.26-.89,3.39s-.52,2.24-.7,3.31a16.72,16.72,0,0,0-.28,2.9,5.71,5.71,0,0,0,.28,2,1.09,1.09,0,0,0,1.14.75,4.64,4.64,0,0,0,2.25-.71,19.58,19.58,0,0,0,2.49-1.69c.84-.66,1.66-1.35,2.46-2.06s1.52-1.32,2.13-1.82Zm-12.52-28.8a4.45,4.45,0,0,1,.28-1.46,4.67,4.67,0,0,1,.91-1.53,5,5,0,0,1,1.68-1.2,6.13,6.13,0,0,1,2.62-.49,7.39,7.39,0,0,1,1.85.22,4.45,4.45,0,0,1,1.51.69,3.33,3.33,0,0,1,1,1.22,4,4,0,0,1,.37,1.79,5.78,5.78,0,0,1-.3,1.85,4.49,4.49,0,0,1-1,1.6,5.21,5.21,0,0,1-1.7,1.13,6.24,6.24,0,0,1-2.45.43A5,5,0,0,1,124,23.23,4.13,4.13,0,0,1,122.84,20.14Z"/><path class="cls-1" d="M150.58,33.92a15.54,15.54,0,0,1,1.22,3.43,15.41,15.41,0,0,1,0,6.8,18.4,18.4,0,0,1-1.05,3.25,16.43,16.43,0,0,1-1.68,2.94,12.24,12.24,0,0,1-2.27,2.38,11,11,0,0,1-2.79,1.6,8.84,8.84,0,0,1-3.22.58,8,8,0,0,1-4.22-1.07A8.89,8.89,0,0,1,133.74,51a12.6,12.6,0,0,1-1.64-3.92,18.89,18.89,0,0,1-.52-4.43,17.48,17.48,0,0,1,.93-5.76,13.81,13.81,0,0,1,2.64-4.65,12.43,12.43,0,0,1,4.22-3.11A13.47,13.47,0,0,1,145,28a14.8,14.8,0,0,1,5,.82,19.26,19.26,0,0,1,4.36,2.22,24.7,24.7,0,0,1,3.78,3.18,46.9,46.9,0,0,1,3.26,3.7l-.53,4a15.91,15.91,0,0,0-2.05-2.19c-.85-.78-1.76-1.55-2.73-2.3s-1.91-1.45-2.84-2.11-1.74-1.22-2.41-1.67Zm-8.66,15.61a2.59,2.59,0,0,0,1.85-1,9.24,9.24,0,0,0,1.57-2.44,17.21,17.21,0,0,0,1.08-3.25,15.27,15.27,0,0,0,.4-3.4,13.9,13.9,0,0,0-.19-2.4,7.76,7.76,0,0,0-.59-1.92,3.57,3.57,0,0,0-1-1.29,2.41,2.41,0,0,0-1.49-.47,3.13,3.13,0,0,0-2.18,1,9.08,9.08,0,0,0-1.82,2.51,14.3,14.3,0,0,0-1.23,3.37,15,15,0,0,0-.45,3.56,10.42,10.42,0,0,0,.22,2.21,5.65,5.65,0,0,0,.7,1.81,3.54,3.54,0,0,0,3.14,1.7Z"/><path class="cls-1" d="M177.64,29.83a17.66,17.66,0,0,1-.17,2.06c-.11.87-.25,1.82-.43,2.86s-.37,2.1-.58,3.2-.39,2.13-.57,3.09-.32,1.78-.43,2.5a10.37,10.37,0,0,0-.17,1.5q0,.8,0,1.44a4.69,4.69,0,0,0,.16,1.15,1.61,1.61,0,0,0,.44.76,1.2,1.2,0,0,0,.85.27,4.88,4.88,0,0,0,1.5-.31,14.69,14.69,0,0,0,1.88-.83c.66-.34,1.34-.74,2-1.18a23.79,23.79,0,0,0,2-1.38q.94-.74,1.71-1.44a10.59,10.59,0,0,0,1.25-1.34c0,.62,0,1.18,0,1.69s0,1,0,1.44,0,.93,0,1.41,0,1,0,1.63a17.23,17.23,0,0,1-1.53,1.32c-.61.46-1.28.93-2,1.4s-1.52.91-2.35,1.34a26.63,26.63,0,0,1-2.51,1.14,20.93,20.93,0,0,1-2.49.78,9.72,9.72,0,0,1-2.3.29,3.68,3.68,0,0,1-1.82-.42,4,4,0,0,1-1.3-1.17,7.15,7.15,0,0,1-.93-1.81,19.46,19.46,0,0,1-.66-2.34,21.79,21.79,0,0,1-2.13,2.42,16.59,16.59,0,0,1-2.28,1.92,10.87,10.87,0,0,1-2.35,1.28,6.37,6.37,0,0,1-2.31.46,4.76,4.76,0,0,1-1.74-.31,3.56,3.56,0,0,1-1.44-1,5.27,5.27,0,0,1-1-1.92,10.41,10.41,0,0,1-.36-3,36.48,36.48,0,0,1,.52-5.49c.34-2.22.77-4.76,1.27-7.62q.06-.42.21-1.14a16,16,0,0,1,.42-1.55,16.61,16.61,0,0,1,.66-1.71,8.3,8.3,0,0,1,.92-1.57,4.85,4.85,0,0,1,1.25-1.15,3.16,3.16,0,0,1,1.61-.47,5.57,5.57,0,0,1,2.13.37c.43.22.65.49.65.8-.17,1-.36,2.1-.55,3.31s-.4,2.44-.6,3.67-.41,2.43-.59,3.6L163,42.91c-.15.92-.26,1.66-.35,2.22s-.12.85-.12.86a4.37,4.37,0,0,0,.1,1,2.9,2.9,0,0,0,.29.83,1.81,1.81,0,0,0,.5.59,1.21,1.21,0,0,0,.73.22,2.87,2.87,0,0,0,1.26-.32,4.35,4.35,0,0,0,1.22-.93,5.94,5.94,0,0,0,1-1.48,7.84,7.84,0,0,0,.68-2l2.77-14.24c.09-.44.47-.82,1.13-1.13a5.31,5.31,0,0,1,2.26-.46,4.37,4.37,0,0,1,2.27.5A1.49,1.49,0,0,1,177.64,29.83Z"/><path class="cls-1" d="M182.74,44.15q1.56-1.35,2.55-2.25c.65-.59,1.21-1.14,1.68-1.63a18.75,18.75,0,0,0,1.27-1.5c.39-.51.84-1.1,1.36-1.8s1.16-1.53,1.91-2.53,1.72-2.25,2.91-3.74a10.52,10.52,0,0,1,.81-1,6.38,6.38,0,0,1,1-.86,5.21,5.21,0,0,1,1.2-.61A4.28,4.28,0,0,1,198.9,28a5.94,5.94,0,0,1,2.08.29A2.59,2.59,0,0,1,202,29a1.62,1.62,0,0,1,.39.88,6.3,6.3,0,0,1,.06.8,2.78,2.78,0,0,1-.53,1.48,16.09,16.09,0,0,1-1.18,1.57c-.43.51-.83,1-1.22,1.39a3,3,0,0,0-.66.94,9.53,9.53,0,0,0,.13,1.58,11,11,0,0,0,.34,1.4c.14.46.28.94.43,1.46s.3,1.1.43,1.78a18.33,18.33,0,0,1,.34,2.32c.09.88.13,1.92.13,3.11a16.73,16.73,0,0,1,2.17-1.22l2.42-1.13c.84-.39,1.71-.83,2.59-1.3a20.87,20.87,0,0,0,2.68-1.73l0,6.28a25.64,25.64,0,0,1-4,2.52,39.51,39.51,0,0,1-4.79,2.07,37.31,37.31,0,0,1-5.08,1.42,24.84,24.84,0,0,1-4.86.52,15,15,0,0,1-3.08-.31,8,8,0,0,1-2.5-1,5.36,5.36,0,0,1-1.76-1.72,5.82,5.82,0,0,1-.81-2.58,4.2,4.2,0,0,1-.77.11l-.74,0q-.45,0-.84,0a1.3,1.3,0,0,1-.67-.21,1.17,1.17,0,0,1-.45-.59,3.15,3.15,0,0,1-.17-1.16,2.4,2.4,0,0,1,.34-1.25,4.92,4.92,0,0,1,.78-1,7.82,7.82,0,0,1,.9-.78C182.37,44.45,182.59,44.28,182.74,44.15Zm3.59,3.58a1.12,1.12,0,0,1,.74.42c.27.28.58.59.94.93a7,7,0,0,0,1.23.92,3.06,3.06,0,0,0,1.6.42,4,4,0,0,0,1.8-.36,3,3,0,0,0,1.14-1,3.92,3.92,0,0,0,.59-1.4,8.23,8.23,0,0,0,.16-1.67,13.65,13.65,0,0,0-.09-1.54c-.07-.52-.15-1-.26-1.5s-.21-.92-.33-1.34-.23-.78-.32-1.08Z"/></svg>