<svg id="_ÎÓÈ_1" data-name="—ÎÓÈ_1" xmlns="http://www.w3.org/2000/svg" viewBox="0 0 350 350"><defs><style>.cls-1{fill:#f36543;}.cls-2{fill:#299351;}.cls-3{fill:#f29654;}.cls-4{fill:#ebd71c;}.cls-5{fill:#71b6db;}.cls-6{fill:#fff;}.cls-7{fill:#c16344;}.cls-8{fill:#f46661;}.cls-9{fill:#dfa558;}.cls-10{fill:#d88c6e;}.cls-11{fill:#f1cd7d;}.cls-12{fill:#d1de3d;}.cls-13{fill:#d6a1c6;}.cls-14{fill:#fda94e;}.cls-15{fill:#f88aa9;}.cls-16{fill:#d24a43;}.cls-17{fill:#fbdb4a;}</style></defs><title>Artboard 3</title><g id="_Group_" data-name="&lt;Group&gt;"><path id="_Path_" data-name="&lt;Path&gt;" class="cls-1" d="M39.94,157.12c6.36-2,15.08-3.8,18.15-10.37,3.77-8.05-7.34-27.53-15.6-32.79C39.33,112,29,98.06,21.24,100.5c-12.9,4.07-14.62,26-14.73,35.61C6.25,159.1,13,165.29,37,158Z"/><path id="_Path_2" data-name="&lt;Path&gt;" class="cls-2" d="M41,161.28c-5.55,1-14.2,7.39-9,14.51,2.9,1.75,3.67-7.13,7.14-7.14-1,4.8-.51,9.47,3.58,12,5.44-5,3.1-7.26,3-11.4-.1-3.84,8.45,4.2,9.77-.36-.49-5-10.31-9.51-14.49-7.6Z"/><g id="_Group_2" data-name="&lt;Group&gt;"><path id="_Path_3" data-name="&lt;Path&gt;" class="cls-2" d="M235.64,240.68a20.8,20.8,0,0,1,1.52,2.43,5.87,5.87,0,0,0,.8,1.35c0,.32.48.73.51,1l.05-.07c0,.31.24.36.15.5a3.3,3.3,0,0,1,.48.73c.53.66,1.17,1.5,1.73,2.1.29.3.41.48.69.77,0,0,0-.06.16.12a7.19,7.19,0,0,1,.85.89,15.31,15.31,0,0,0,1.89,2.22c.24.36.52.28.76.26l.36-.92a22.66,22.66,0,0,0-2-5.72l0-.07a34.31,34.31,0,0,0-2.62-5.55s-.16-.12-.08-.25c-.32-.23-.52-1.05-.84-1.28a37.7,37.7,0,0,0-2.29-3.46l0,.06c.13-.2-1.07-.66-1.18-.84,0,0-1.61-1.92-2.41-1.7s.11,3.4.11,3.4C234.53,237,234.74,238.91,235.64,240.68Z"/><path id="_Path_4" data-name="&lt;Path&gt;" class="cls-2" d="M234.81,264.71a8.09,8.09,0,0,0,1.81-1.29,2.45,2.45,0,0,1,1-.74c.09-.32.56-.36.65-.68l0,.11c.09-.31.28-.18.23-.4.17,0,.42-.27.57-.36a11.53,11.53,0,0,1,1.93-.72c.31-.07.45-.16.76-.22,0,0,0,.11.16,0a2.92,2.92,0,0,0,.93-.2c.75-.22,1.43-.79,2.1-.7.27-.17.51.17.72.42l.15,1.36c-.66,2.11-1.89,3.15-2.89,4.43l0,.12c-1,1.17-2.07,3-3.37,3.7,0,0-.17,0-.12.21-.33,0-.65.67-1,.63a15.51,15.51,0,0,1-2.68,1.71l0-.11c.07.34-1.08-.26-1.22-.18s-1.79.63-2.47-.35.74-3.66.74-3.66C233.13,267.74,233.68,265.82,234.81,264.71Z"/><path id="_Path_5" data-name="&lt;Path&gt;" class="cls-2" d="M229.8,255.8a8.1,8.1,0,0,1,2.49.66,2.32,2.32,0,0,0,1.34.44c.2.34.77.15,1,.5v-.16c.19.35.38.08.38.39.2-.11.58.12.77.15a12.87,12.87,0,0,0,2.48-.1c.39-.07.58,0,1-.11,0,0,0-.15.19-.11a2.9,2.9,0,0,1,1.14-.23c1-.12,1.92.24,2.68-.22.37.08.56-.47.74-.9l-.19-1.75c-1.35-2.28-3.07-2.94-4.61-4v-.16c-1.53-.92-3.26-2.66-5-2.86,0,0-.19.12-.19-.19-.39.23-1-.5-1.34-.27a15.22,15.22,0,0,0-3.64-.75v.15c0-.46-1.2.88-1.39.85,0,0-2.29.14-2.82,1.7s1.85,4.16,1.85,4.16C227,252.9,228.17,255,229.8,255.8Z"/><g id="_Group_3" data-name="&lt;Group&gt;"><path id="_Path_6" data-name="&lt;Path&gt;" class="cls-3" d="M315.08,253.15s0,0-.05,0h.05Z"/><path id="_Compound_Path_" data-name="&lt;Compound Path&gt;" class="cls-3" d="M276.94,244.12s-7.5-.68-7.51-.58a4.41,4.41,0,0,0-1.69.22c-.83-.68-1.73.6-2.45.14,0,.38-.12,0-.25,0,0,.19,0,.39-.17.38-2.64-.47-5.83-.8-8.53.49,0,.13-.48.41-1.07.71a3.37,3.37,0,0,0-2.16,1.05c-1.59.61-1.51,1.06-3,2.26-.49-.24-1,1.07-1.45,1.8l-.36,3.46c.16,4.88.24,6.31,2.32,8.28,0,.19,3.26,2.41,3.22,2.79,2.35,1.8,5.49,2.12,8.14,2.2.12,0,.1.21.08.4.13,0,.29-.36.25,0,.79-.31,1.4,1.11,2.34.63a4.53,4.53,0,0,0,1.59.55c0,.09,7.37,1,7.37,1s0-.14,0-.19.12,0,.27-.17c0,.39,0,.2.08.4,1.06-.47,2.22.62,3.42,0,0,.2,0,.39.11.21.54-.33,1.23.32,1.77,0l0-.19c.11.2.25,0,.27-.17.17.79.77-.12,1.11.31.54-.34,1,.49,1.66-.22.25,0,.4-.15.69-.51,0,1,.6.25.94.68.33-.75.33.42.64-.13l0-.39s.07.6.15-.17c.25,0,.4,1,.6.25l0,.39c0-.2.06-.58.19-.57l0,.39c.12,0,.23.22.37,0,0,.38.25,0,.27-.17.55.83,1.48-.82,1.73.37l.06-.57c0,.78.42.82.71.46.36.23.63.06.92-.3-.06.58.23.22.21.41.2-.75.25,0,.44-.53.12,0,.08.39.08.39.15-.18,0-.38.06-.57.09.39.23.21.31-.56.21.42.29-.35.45-.73.06-.57-.1-.2.06-.57,0,0,.25,0,.44-.54-.25,0-.46-.44-.75-.08-.07-.59-.25,0-.21-.41.14-.18.43-.54.66-.32l0-.39c.09.4.4-.15.57.65,0,.19-.19.56-.15.18-.18,1.73-.44,1.89-.56,3-.07-.59,0,.19-.17.37.21.41.56-.52.75.08.15-.18.33-.75.46-.73s0-.2,0-.39c.12,0,.08.4.21.41-.06.58-.13,0-.17.37.11.21.4-.15.78-.11,0,.78.35.23.5.05.06.59.39-.15.48.25l.18-.57c0,.39.23.22.25,0,.13,0,.11.2.09.39,0-.38,0-.19.12,0-.08-.4,0,0,.19-.57.06.59.31-.55.23.22.06-.58.16-.37.33-.74-.23-.22-.4.15-.5-.05.14-.18,0-.2,0-.39-.13,0-.22-.41-.27.17,0,0,0-.58-.09-.4.16-.37.29-.36.4-.15l0-.2c0-.38-.13,0-.11-.2.2-.76.36.23.68-.51-.23-.22-.37,0-.64.12-.13,0,0,.2-.17.38l.06-.58c-.16.37-.1-.21-.25,0,0-.19-.1-.2.06-.57l-.06.57c.33-.74.44-.54.83-.69-.06-.59-.52.14-.6-.26s0,0,0-.38a1.1,1.1,0,0,0,.78-.12l-.06.58c.1.21.12,0,.25,0,.1.2.06.59.21.41a3,3,0,0,1-.2.75c-.08.77-.1,1,0,1.17.15-.18-.12,0,0-.38a1.6,1.6,0,0,1,0,.78c-.07-.59-.31.55-.38,0,0,.19-.1,1-.22.95.08.4.12,0,.14-.18.11.21,0,0,.13,0l-.06.58c.16-.37.35.23.54-.33.08.39.1.2.35.23l0-.39c.11.21.19.61.5.05a1,1,0,0,0,1.52,0c.09.4.34.42.65-.13,0,.19,0,0,.12,0s0-.06,0-.19c.25,0,.63.06.77-.12l-.06.58s.19-.56.27-.16c0,0,.13,0,.15-.18.1.2.08.39.21.41,0-.2.16-.38.18-.57-.06.58.3.81.36.23-.06.58.23.22.25,0,.37,0,.6.26.75.08l0,.19s.12,0,.14-.18c.13,0,.11.2.23.22,0-.39.27-.17.25,0,.17-.37.44-.53.85-.88,0-.09,0-.07,0-.19s.11.2.25,0l-.05.58c0-.19-.13,0-.15.18s.36.23.65-.13l-.15.18c.13,0,.42-.35.38,0,.33-.74.41-.35.68-.51-.12,0,.08-.77.19-.57,0-.38-.21-.41-.25,0-.13,0,.05-.58-.09-.4,0-.19,0-.39.14-.18l.06-.58c-.16.37-.27.17-.39.16l0-.2c.2-.75.37,0,.41-.34-.12,0-.35-.23-.5-.05-.1-.21-.25,0-.25,0l0,.38c-.16.38-.31.56-.23-.21,0,.19.13,0,.15-.18-.09-.4-.4.15-.34-.43.4-.15.69-.51,1.21-.65.18-.56.45-.73.7-.7-.16.37-.29.35-.29.35l-.06.58c.15-.18.23.22.36.23,0,.39-.19.57-.23.95,0,.58-.07.77-.15,1.54,0-.19,0,.19-.15.18.09.4.25,0,.36.23,0,.39-.13,0-.17.37.25,0,.51,0,.83-.69a1,1,0,0,1,.07.59,1.23,1.23,0,0,1,.31-.55l0,.38c.23.22.52-.14.73.27.17-.37.27-.16.31-.55.15-.18,0,.2.11.21l0-.19c.08.39.27-.17.52-.14,0,.38-.17.37-.17.37.07.59.46-.73.5.05,0-.19,0-.39.15-.18,0-.19-.11-.21-.09-.4.13,0,.19.6.38,0l0,.38c.23.22.58-.71.81-.49,0,.38-.15.17-.17.37s.13,0,.38,0c.53-1.5.67.84,1.14-.08l.11.2a3,3,0,0,1,.08-.41.91.91,0,0,1,0,.43c0-.39.29-.36.27-.17.13,0,.17-.37.27-.17h-.12c.23.22.41-.34.66-.32,0,.19,0,.39-.14.18.08.4.25,0,.27-.17,0,.07,0,.14,0,.2.1.2.25,0,.29-.36.21.41.56.64.75.08,0,.19.1.2.08.39.17-.37.38,0,.54-.33.25,0,.48.24.79-.31l.09.4c0-.39.25,0,.29-.36.12,0,.1.21.1.21.29-.36.63.06.79-.31.13,0,.13,0,.11.2,0-.38.14-.18.2-.75.13,0,.13,0,.11.2.12,0,.14-.18.27-.16l.06-.58c.12,0,.06.59.17.79,0-.19.14-.18.16-.37,0,.19.11.21.23.22.27-.17.9-.1,1.3-.26l0,.39a2.72,2.72,0,0,0,1.2-.65c-.1-.21,0-.39.06-.58s.11.2.09.4c.12,0,.14-.18.14-.18l-.12,0,.06-.57a.48.48,0,0,1,.08.39c.13,0,0-.19,0-.38s.13,0,.16-.37c.11.2.15-.18.29-.36,0,.19.13,0,.09.4.13,0,.15-.18.25,0l0,.2c.13,0,0-.39,0-.39s0,.19.11.21l.06-.58c0,.19-.17.37-.27.16,0,0,.12,0,.14-.17-.13,0-.16.37-.27.16.06-.57.4-.15.43-.54,0,.2-.1-.2-.21-.41.17-.37.25,0,.23.22,0-.19.11.21.11.21l.06-.58c0,.19.25,0,.16-.37.11.2.25,0,.23.22-.23-.22-.18.56-.29.35,0,.39,0,.39-.05.58,0-.19.05-.58.3-.55-.16.37,0,.19.11.21l0,.19s0,.38-.16.37c0,.19.1.21.1.21,0,.19-.27.16-.29.35,0-.38,0,0,.15-.18-.13,0-.21-.41-.36-.23s.11.21.11.21l0,.38c0,.2.1.21.08.4,0,0,0-.19.13,0a1.22,1.22,0,0,1,.33-.74c0-.19-.13,0-.09-.4.13,0,.23.22.38,0a1.76,1.76,0,0,0,0,.19c0,.39-.15.18-.27.17,0,.39.21.41.35.23.08.15.27-.11.35-.1a.45.45,0,0,1-.06-.26c.13,0,.15-.18.17-.37.12,0,0-.19.14-.18,0-.19,0-.38.17-.37a.32.32,0,0,0-.38,0,.37.37,0,0,1,0,.39l0-.39a.21.21,0,0,1-.25,0c0,.17.07.21.08.35a.64.64,0,0,1-.64.17,1.93,1.93,0,0,0,.22-1c0,.19.13,0,.13,0l.21.42,0-.39c.13,0,.13,0,.15-.18.12,0,.1.21.1.21l0,.19s.13,0,.15-.18,0,0,0-.39l.29-.35c0,.38.09.39,0,.78.4-.16.54-.34.65-.13.12,0,0-.19.14-.18l-.37,0c0-.38.27-.17.29-.36a.82.82,0,0,0,.08.4c0,.39.11.21.13,0,.12,0,0,.39.1.21.13,0,.33-.75.42-.35a.38.38,0,0,0,0-.38c.14-.18.16-.37.27-.17,0-.19-.11-.2-.09-.4l0-.19c.13,0,.11.21.09.4,0-.39.14-.18.16-.37s-.1-.21-.1-.21l0-.38c.1.2.37,0,.41-.35,0,.19.11.21.09.4-.13,0-.25,0-.17.37l0-.19c0,.19.15-.18.13,0,.14-.18,0-.19,0-.38.08.39.1.2.14-.18.13,0,.09.39.09.39l0-.19c.12,0,0-.19.14-.18s.15-.18.11.21l0-.39c.12,0,0,.19.08.4l0-.38,0-.2s.11.21.13,0c.12,0,0,.19,0,.19,0,.19.14-.18.1.2l0-.19c.13,0,0,0,0-.19.13,0,.27-.17.23.22,0,0,0-.2.13,0l0-.19s.16-.37.25,0c0-.19.16-.37.27-.16-.11-.21,0-.2.14-.18a.78.78,0,0,1,.21-.76c0-.19.16-.37.14-.18.15-.18.06-.58.19-.56,0-.2,0-.2-.11-.21,0-.19.14-.18.14-.18,0-.19-.1-.2-.08-.4.12,0,0-.19,0-.38,0,.19-.11-.21-.15.18l-.1-.21c-.38,0-.77.12-1.07-.69,0,0-.12,0-.14.18l0-.19c-.11-.21-.13,0-.15.18-.06-.59-.21-.41-.48-.25l0-.19c-.37,0-.6-.26-1-.29-.12,0-.14.18-.14.18-.15.17-.13,0-.25,0,0-.19,0-.19-.11-.21l0,.2c-.69-.66-1.33-.53-2.19-.81l0,.19c0-.05-.07-.05-.1-.09a.35.35,0,0,1,.07-.27,2.77,2.77,0,0,0-1.06-.89l0,.39c-.36-.23-1-.3-1.23-.52-.12,0-.25,0-.27.17,0-.2-.11-.21-.09-.4-.12.15-.19.52-.28.65s0,0,0,0l.05-.5c-.13,0-.11-.2-.23-.22,0,.2,0,.2-.15.18.06-.58-.09-.4-.05-.78,0,.19,0,.19-.15.18-.08-.4-.5-.06-.72-.47,0,0,0,.19-.14.18,0-.39-.26,0-.22-.41l-.17.37c-.19-.61-.46-.44-.72-.46-.08-.41-.37,0-.46-.44,0,.19-.15.18-.17.37-.07-.6-.46-.44-.76-.08,0-.39-.07-.59-.21-.41,0,.07,0,.13,0,.19,0-.19-.07-.59-.23-.22.14-.18.12,0,.1.21-.22,0-.31-.44-.5-.45H315s.05,0,.07,0-.08-.19-.18-.2c0,.19-.28.17-.24-.22a.73.73,0,0,1-.13.41c0-.14,0-.28,0-.42l-.15.18c-.28-1-.9,1.27-1.12-.32-.25,0-.23-.22-.38,0s.13,0,.09.41c-.27.16-.43-.83-.7-.66l0,.38c-.07-.59-.26,0-.38,0,0-.19.14-.18.16-.37-.15.18-.13,0-.11-.21-.2.77-.31-.62-.5-.05,0,0,.13,0,.09.4-.26,0-.33-.62-.49-.25l0-.19c-.13,0,0,.39-.15.18,0-.39-.1-.21-.19-.61-.3.36-.51,0-.78.12l0,.39a1.19,1.19,0,0,1-.2-.61,1,1,0,0,1-.18.57c-.17-.8-.43-.83-.68-.86,0,.39.12,0,.08.4-.14.19-.23-.22-.4.16.13,0,.09.4.11.21l-.16,1.55a6.71,6.71,0,0,0,0,.79,2.35,2.35,0,0,0-1.09-.15c-.13,0-.15.18-.15.18s-.14,0-.21,0a2.05,2.05,0,0,0-.41-.37c.06-.59.26,0,.43-.35,0-.2-.09-.4-.11-.21.08-.77.19-.57.27-.17l0,.39s.11.21.25,0c.11.21.39,0,.51.05,0-.39-.29.36-.34-.43l0-.19c.13,0,.28-.17.36.23l.06-.58c-.14.18-.12,0-.1-.21.1.21,0-.38.16-.37,0,.39.21.41.25,0-.14.19-.19-.6-.06-.59-.23-.22-.4.15-.58-.65,0,.39-.25,0-.37,0l.1.21c-.21-.41-.47-.44-.61-.26s.08.4.1.21l-.06.58c-.1-.21-.12,0-.25,0s0-.1,0-.19a2.63,2.63,0,0,1-.66-1c0,.19-.3.36-.25,0-.13,0-.15.19-.28.17,0-.19-.1-.2-.1-.2l0,.19c-.11-.21-.39,0-.76-.08,0-.19-.2-.61-.26,0,.06-.59-.34-.43-.4.15,0-.19-.08-.4-.06-.6-.13,0-.15.18-.3.37,0-.2-.11-.21-.11-.21-.16.37-.23-.22-.23-.22l-.06.58c-.1-.21-.49-.25-.74-.27,0-.13,0-.11,0-.2s-.11-.2-.13,0c-.19-.61-.44-.63-.61-.26a1,1,0,0,0-1.5-.35c-.2-.61-.36-.23-.51-.05l0-.39c-.25,0-.23-.22-.4.16-.07-.6-.38,0-.47-.44l-.06.58c-.13,0,0-.2-.13,0,0-.19.06-.58-.1-.2.12,0,0,.79,0,1,.19-.57.2.61.39,0a1.64,1.64,0,0,1-.21.76c-.09-.4.15-.18,0-.39-.15.19-.17.38-.25,1.16a2.77,2.77,0,0,1,0,.78c-.11-.2-.15.19-.3.37-.12,0-.1-.21-.25,0l-.06.58a1.28,1.28,0,0,0-.55-.24l0,0,0,0-.14,0c0-.39-.12,0,0-.39s.47.44.66-.13c-.37-.23-.51,0-.68-.85l-.06.58c-.09-.4,0-.39.06-.58.1.21.16-.38.25,0l.06-.58c.1.21,0,.39.08.4.24.22.35.43.62.26-.17-.8-.53.15-.58-.64,0-.2.11.2.15-.18l0-.2c-.15.18-.27.17-.36-.23.11.2.17-.38.17-.38-.06.58.1.21.23.22,0-.19.15-.18,0-.38.15-.19.24.21.51.05-.09-.4-.23-.22-.17-.8-.08.77-.09-.41-.28.16-.07-.59-.23-.22-.07-.59-.14.18-.16.37-.12,0,0,.2,0,.39-.17.38,0-.19-.21-.41-.25,0l-.07-.59c-.17.37-.34-.43-.52.14-.11-.21-.31-.82-.51,0-.38,0-.6-.46-.74-.27,0,.38.14-.19.08.4-.12,0-.16.37-.29.36,0-.2.17-.38,0-.39s-.2-.61-.3-.81c-.31.55-.47-.45-.76-.08.1.2-.1,1,.08.4-.12,1.16.12,1.38-.06,3.13,0-.39.13,0,.11.21-.34.74-.53.14-.7.51l0-.39c-.27.17-.49-.24-.59-.45,0-.39.1.21.29-.36.22.41.51.05.76.08-.07-.6-.32-.62-.32-.62-.08-.41,0,0,.06-.59-.08-.4,0-1.17-.3-.81.08-.78,0-1-.19-.61,0-.19.16-.37.06-.58,0,0,0,.39-.17.37-.06-.59-.27.17-.32-.62,0,.2-.23-.22-.29.36-.22-.41-.45-.63-.85-.48-.22-.41-.59-.45-.8.31l.06-.58c-.5,1.13-1.08-.7-1.8,0,0-.19-.19-.61-.23-.22-.11-.2-.26,0-.38,0l0,.39c-.13,0-.09-.4-.07-.59l0,.38c0-.78-.4.16-.65.13.08-.77-.11-.2-.11-.2l0-.39c-.19-.61-.44.54-.61-.26-.42.35-.85-.48-1.08.48-.21-.42-.32-.63-.57-.65-.55-.84-1.14-.12-1.61-.56-.42.35-.83-.67-1.16.08,0-.2-.09-.4-.24-.22l0-.2c-.46-.44-1.28.07-1.75-.37-.1-.21-.12,0-.14.18-1.07-.9-2.44-.06-3.39-.74-.14.18-.12,0-.16.37-.11-.21-.11-.21-.24-.22S276.93,244.19,276.94,244.12ZM291,268l0,.19c0,.39-.17.38-.25,0C290.88,267.55,290.91,268.53,291,268Zm-.94.49c0-.19.15-.18.17-.37C290.32,268.08,290.14,268.64,290,268.44Zm-.5-.05c0,.19,0,.19-.14.18l.06-.58c.12,0,.12,0,.1.2l0-.38C289.72,267.82,289.53,268.39,289.53,268.39Zm-8.59-1.28c0,.39-.14.18-.16.37C280.84,266.91,280.82,267.1,280.94,267.11Zm7.21-1.2c.12,0,.1.21.21.41.16-.37.43-.54.54-.33.16-.37.14-.18.25,0-.35.94-.83.7-1.06.48Zm-7.38.41c0-.39.15-.18.29-.36l-.06.57C280.9,266.33,280.88,266.52,280.77,266.32Zm9,.73,0,.19c.14-.17.12,0,.08.4-.12,0-.1-.2-.08-.4,0,.13,0,.28,0,.39s-.11-.21-.25,0l.06-.57C289.69,266.85,289.65,267.23,289.8,267.05Zm.81-.5a.74.74,0,0,1-.05.19l-.6-.06C290,266.3,290.54,266,290.61,266.55Zm-.92-.87c-.06.58.06.59.19.6-.1,1-.11-.2-.19.57-.1-.21,0-.79-.19-.61l.06-.57Zm1.87,2.72c0-.19,0-.19,0-.38.13,0,.11.2.11.2C291.66,268.61,291.56,268.4,291.56,268.4Zm.56-.53c.08.4.43-.53.35.24C292.37,267.9,292,269.41,292.12,267.87Zm1,.11c.12,0,.14-.18.16-.37.13,0,.42-.35.44.62,0,.2-.12,0-.16.38,0-.2-.15.18-.38,0,.09.4.13,0,.11.2,0,.39-.15.18-.11-.2,0,0-.14.18-.08-.4h.12c0-.19,0-.19-.1-.2l-.13,0c.08-.76.13,0,.19-.56Zm1.22-.85-.27.17.06-.58c0,.48.09.18.16-.05C294.29,266.91,294.38,266.82,294.34,267.13Zm.17-.37c-.14.32-.13,0-.21-.15s.07-.19.1-.06l0-.38C294.57,266.18,294.55,266.38,294.51,266.76Zm-1.61-.36c0,.38-.15.18-.21.76l-.1-.21c-.13,0-.17.37-.19.57-.12,0,0-.2-.1-.21a5.25,5.25,0,0,0,.39-1.32C292.81,266,292.75,266.58,292.9,266.4Zm.56-.53c-.13,0-.13,0-.23-.21.16-.38.14-.18.29-.36C293.62,265.5,293.48,265.68,293.46,265.87Zm4.31,3.56c.06-.58.13,0,.27-.17C298,269.46,297.75,269.62,297.77,269.43Zm.52-.14c0,.38-.1-.21-.16.37-.13,0,0-.38,0-.38S298.31,269.1,298.29,269.29Zm.42-.35c0,.39-.15.18-.15.18l0-.19C298.6,268.74,298.56,269.12,298.71,268.94Zm-2.94-3.41c0-.19.06-.58.15-.18C295.77,265.53,295.75,265.72,295.77,265.53Zm5.08,1.84a.3.3,0,0,0,0,.24c0-.19.14-.18.12,0,0,0,0,.2-.14.18,0,.39.12,0,.25,0-.19.56-.38,0-.52.14C300.61,267.65,300.76,267.67,300.85,267.37Zm2.52.5,0,.19c-.06.58,0,0-.13,0Zm-4.81.09a.4.4,0,0,1-.4.15c-.25,0-.27.17-.37,0l.06-.58c.08,0,0,.15,0,.26a.33.33,0,0,1,.07-.24s.13,0,.07.59l.06-.58c.12,0,.1.2.06.59l0-.39a1,1,0,0,0,.65-.12c.12,0,.12,0,.08.39l0-.19c-.06.58.15-.18.09.4C298.87,268.57,298.5,268.53,298.56,268Zm5.77.4c.12,0,.12,0,.23.21a1,1,0,0,0-.18.57c-.11-.21-.09-.4-.11-.21-.12,0,0-.19-.09-.39-.09.12-.09-.1-.1-.14s.15-.29.16-.44c.11.2,0,.38-.06.58C304.33,268.36,304.27,268.93,304.33,268.36Zm.81-.5c0,.38-.15.18-.16.37,0-.19-.13,0-.11-.21C304.91,267.64,305,267.84,305.14,267.86Zm-1.36-.34,0,.39c-.12,0,0-.39,0-.39l0-.19c-.14.18-.29.36-.41.35.14-.18.18-.57.41-.35l0-.19c.13,0,.27-.17.4-.16C304.05,267.36,304,267.15,303.78,267.52Zm-.83-.47c-.23-.22-.77.11-1.23-.32.14-.18.27-.17.52-.14S302.88,266.46,303,267.05Zm-2.5-.26,0-.19c.25,0,.54-.34.89-.11C301.14,267.44,300.72,266.62,300.45,266.79Zm-.49-1.41c.13,0,0,.19,0,.19l0,.19c-.16.38,0,.39-.06.58,0,.38-.12,0-.18.56-.75-.07-1.15.08-1.77,0-.25,0-.34-.43-.59-.45,0,.19-.16.37-.12,0a3,3,0,0,0,.95-.68,1.68,1.68,0,0,0,0,.2c.11.2-.14.18-.06.57,0,.2.13,0,.11.21a1,1,0,0,1,.18-.56c.23.21.54-.34.77-.12a1,1,0,0,0,.19-.56c0,.19,0,.38.12,0,.11.2.13,0,.25,0,0-.38-.1-.2-.06-.59C299.75,265,299.84,265.37,300,265.38Zm17.69-1.09,0,.19h.12c-.14.18-.14.18-.27.17C317.52,264.27,317.65,264.29,317.65,264.29Zm0,.38c.25,0,.06.59.21.41l-.08.77c.1.21.12,0,.25,0,0,.19-.27.16-.42.34,0-.19,0,0-.1-.2,0,.19.06.59.08.39.13,0,0,.39-.14.18l0-.19,0-.38c.16-.38,0,0,0-.2s.12,0,.1.21c.19-.56-.06-.59-.19-.6l0-.39C317.57,265.06,317.55,265.25,317.61,264.67Zm2.13,1.39c-.11-.21,0,0,0-.2.12,0,0,.39.1.21.11.21,0,0,0,.38A.78.78,0,0,1,319.74,266.06Zm-1,.28-.38,0c-.12,0,0-.19-.1-.21C318.34,266.11,318.74,266,318.7,266.34Zm-1.75-.18c-.19.56-.44.54-.5-.05,0-.39.16-.38.29-.36l0,.19c-.15.18-.15.18-.27.17C316.57,266.12,316.66,266.52,317,266.16Zm-6.66-1.66c0,.38.23.22,0,.78.12,0,.14-.18.14-.18,0-.19-.1-.2,0-.38,0,.38.13,0,.21.41,0,.19-.12,0-.16.37l-.38,0c0-.38.13,0,.15-.18-.09-.4-.38,0-.36-.23C310,264.47,310.13,264.87,310.29,264.5Zm4.2,1c0,.19-.19.56-.29.35C314.36,265.5,314.34,265.69,314.49,265.52Zm-8.45-.29a.76.76,0,0,0,.17-.37l0,.38Zm4.25,1.8c0,.19,0,.38.12,0l0,.38C310.25,267.41,310.25,267.41,310.29,267Zm-3.46.42c0,.19,0,.19.1.2,0,.39-.12,0-.14.18C306.66,267.82,306.81,267.64,306.83,267.45Zm.21.41,0-.19c.25,0,.41-.35.62.06C307.52,268.1,307.16,267.87,307,267.86Zm3.5.36c.19-.57.25,0,.42-.35-.11-.2-.13,0-.13,0-.08-.4-.23-.22-.35-.23l0-.39c.12,0,.1.21.23.22,0-.38-.09-.4-.21-.41l.06-.58c.12,0,.1.21.25,0l-.06.58s0-.19.14-.18c0-.06,0-.14,0-.39l0-.19h.13l0,.39c-.13,0-.11-.21-.11-.21l0,.39h0a.51.51,0,0,1,.07.32s0,0-.11.06.13,0,.07.59l0,.39C310.77,268.44,310.67,268.23,310.54,268.22Zm-3,.47c0,.19-.13,0-.17.37-.06-.59-.23-.21-.33-.42s0-.19,0-.38c.13,0,.24.21.4-.16,0,.39,0,.19.09.4Zm1.79-.2c.14-.18.12,0,.27-.17C309.61,268.71,309.48,268.69,309.38,268.49Zm4.45-.32h-.12c-.13,0-.09-.4-.07-.59.11.2.13,0,.25,0C313.87,267.78,313.75,267.77,313.83,268.17Zm-1.33-.53c0,.2,0-.19-.11-.2,0-.19.13,0,.27-.17l0,.19C312.52,267.45,312.5,267.64,312.5,267.64Zm1.52,0c.1.2.14-.18.14-.18C314.23,268,314,268.18,314,267.61Zm2,0c-.11-.21.14-.18.27-.17C316.14,267.82,316.06,267.43,316,267.62Zm-4.09-.81c0,.19.25,0,.27-.17l0,.39c-.16.37,0,.38-.06.57l0-.19c0-.38.11.21.13,0,0,.38-.25,0-.31.55,0,.19.1.2.1.2,0,.19-.16.37-.12,0l-.25.3a.61.61,0,0,0,0-.33l0,.39c-.13,0-.11-.21-.09-.4s0-.19.17-.37-.13,0-.13,0l.06-.57.25,0c0-.38-.06-.59.08-.77s-.14.18-.12,0,.12,0,.14-.18c-.08-.4-.27.17-.21-.41,0,.19.09.4.13,0,.19.61.35.23.46.44C312.33,266.85,312.12,266.44,312,266.81Zm3.08-1.63c.1.21.25,0,.21.41s-.11-.2-.15.18c.11.21.07.59.21.41-.18.57-.35-.23-.41.35Zm5.61.77c-.13,0-.15.18-.15.18l0-.38c-.13,0-.15.18-.15.18,0,.19-.14.18-.05.58-.09-.18-.14,0-.22,0a.76.76,0,0,1-.06.18c0-.14-.12,0-.1-.19l0-.19h.12c.13,0,0-.39.17-.37s-.13,0-.11-.21a.38.38,0,0,0,.4-.15C320.51,265.94,320.67,265.57,320.64,266Zm-1.88-.19c-.13,0-.13,0-.09-.4C318.65,265.56,318.78,265.57,318.76,265.76Zm-.21-.41c0-.38.16-.37.18-.56s-.25,0-.23-.22c.29-.36.36.23.59.45C318.94,265.2,318.82,265.18,318.55,265.35Zm.79-.31h-.13a1,1,0,0,1,.19-.56Zm2.16-.16c0,.19-.14.18-.14.18l0-.39C321.52,264.69,321.36,265.06,321.5,264.88Zm-.77.11c-.14.18-.25,0-.21-.41.15-.18.25,0,.4-.15C320.88,264.81,320.75,264.8,320.73,265Zm-3.19-.91c0,.19,0,0-.14.18C317.44,263.88,317.42,264.07,317.54,264.08Zm-16.69-14.56c0-.19.25,0,.23.22C301,249.54,300.79,250.11,300.85,249.52Zm.36.24s-.09-.4,0-.39c-.06.58.12,0,.08.4C301.31,250,301.21,249.76,301.21,249.76Zm.34.42,0-.19s.15-.18.11.21C301.57,250,301.53,250.38,301.55,250.18Zm-4.58.9c0,.32-.1.21-.15.45,0-.24,0-.55-.14-.08l.06-.59Zm-2.5-1.82s.15-.18.11.21c0,0,0,.19-.15.18Zm.44.63c.16-1.55.26,0,.41-.15C295.24,250.51,295.08,249.52,294.91,249.89Zm.89.09.13,0c.13,0,.13,0,.15-.18l-.13,0c.06-.58.17-.37.17-.37,0-.39.18-.57.14-.18,0,.19,0-.2-.14.18.27-.17.36.23.38,0,0,.38.11.2.09.4-.23.95-.45.54-.57.53,0-.2,0-.39-.09-.4l-.06.58C295.93,250,295.72,250.76,295.8,250Zm-.82.51c.13,0,0-.2.15-.18,0,.19-.06.58.07.59l.14-.18c-.06.58.09.4.05.79-.11-.21-.17.37-.29.36A5,5,0,0,0,295,250.49Zm1.93,1.18c-.05.12-.07,0-.09-.08s.16-.45.24-.1-.06.58-.19.56Zm18.27,3.06c-.11-.21-.26,0-.24-.22.13,0,.17-.38.15-.18,0,0,0,.19.11.2Zm5,2.44,0,0h0S320.16,257.17,320.15,257.17Zm-13.45,1.7h0c-.14.18-.12,0-.25,0h0Zm.07,0,.14,0c-.06.15-.14.19-.23.18A.34.34,0,0,1,306.77,258.87Zm-15.44-7.78c-.15.18-.38,0-.46-.44-.15.18-.17.38-.3.36l.06-.58c.28-.17.8-.31,1,.69C291.44,251.3,291.42,251.49,291.33,251.09Zm-8-2c.14-.18.12,0,.27-.17l-.06.58C283.44,249.3,283.3,249.48,283.34,249.09Zm.24-1.15c0,.19.13,0,.09.4C283.54,248.33,283.52,248.52,283.58,247.94Zm13.64,10.93,0-.38c.12,0,.08.4.06.59-.29.36-.37,0-.6-.26,0-.38.16-.37.2-.75C297,258.85,297.34,257.72,297.22,258.87Zm-1.88-.19c0-.38.06-.58.15-.18Zm-11.72-1.6c.15-.18.25,0,.36.23l-.08.77c.1.21.16-.37.16-.37l-.08.77c-.1-.2-.14.18-.31.55C283.63,258.25,283.23,258.4,283.62,257.08Zm22.95,4.31a.59.59,0,0,1,.48.25c-.17.37-.38,0-.56.52-.13,0-.36-.23-.4.16-.23-.22-.19-.61-.13-1.18C306.23,261,306.5,260.8,306.57,261.39Zm14.51.69a1.16,1.16,0,0,0,.12-.34l0,.38c0,.19-.15.18-.15.18a1.39,1.39,0,0,1,.06-.19h.09C321.18,262,321.15,262,321.08,262.08Zm-.52.95c-.11-.21,0-.38.08-.77C320.74,262.47,320.58,262.84,320.56,263Zm-.17.37a.17.17,0,0,1,.23,0C320.5,263.46,320.35,263.77,320.39,263.4Zm-19.68-1.64c.29-.36.52-.14.77-.11a1.38,1.38,0,0,0-.18.56l0-.19C301.19,262,300.58,263.11,300.71,261.76Zm18.77,1.94,0,.19C319.44,264.08,319.35,263.68,319.48,263.7Zm1.35.33c0-.19-.25,0-.35-.23s.12-.19.15-.35c.08.08.13.14.16-.2.12,0,.1.2.08.4.17-.38.38,0,.42-.35a1,1,0,0,1,.06.59c-.12,0-.27.17-.37,0l0,.19c0,.2-.13,0-.11-.2A1.76,1.76,0,0,1,320.83,264Zm.36.23c.16-.37.27-.16.54-.33,0-.19-.25,0-.23-.22.16-.37.43-.54.52-.14C321.73,263.93,321.56,264.3,321.19,264.26Zm1.33-.64,0,.19c-.13,0-.11-.2-.11-.2C322.41,263.42,322.39,263.61,322.52,263.62Zm2.15,0c0,.19-.17.37-.13,0C324.67,263.65,324.69,263.46,324.67,263.65Zm-1.11-.31c0-.19,0,0-.11-.21l-.37,0a.45.45,0,0,0-.17.37c0,.38.13,0,.09.4,0-.2-.15.17-.15.17,0-.38-.19-.6,0-1,0,0,.08.4.12,0,0-.19,0,0,.13,0,.29-.36.39-.16.66-.32,0,.19-.18.56,0,.38C323.81,263.37,323.56,263.34,323.56,263.34Zm1.22-.85.13,0a1,1,0,0,0-.18.56c-.13,0-.13,0-.27.17a.85.85,0,0,0,.16-.37c0-.2,0,.19-.12,0,.18-.56.27-.16.3-.55Zm-.08-.39c0-.39.25,0,.27-.17C324.91,262.51,324.82,262.11,324.7,262.1Zm-13.6-1.79a1.72,1.72,0,0,1-.2.75c-.25,0-.36-.23-.65.13,0,1,.67-.32.69.65-.25,0-.66.33-.91.3a1.36,1.36,0,0,1,.2-.76c-.06-.32-.15-.34-.16-.62.13-.11.23,0,.28-.53C310.6,260.25,310.83,260.47,311.1,260.31ZM302,259.17c0,.39,0,.39-.17.37,0,.39.13,0,.07.59-.12,0-.1-.2-.21-.41C301.84,259.35,301.9,258.77,302,259.17Zm16.85-3.87c-.13,0-.39,0-.24-.22C318.58,255.27,318.75,254.9,318.84,255.3Zm-2.14-.42s0-.39-.11-.2C316.65,254.09,316.89,254.31,316.7,254.88Zm-.18-.8c-.16.38,0,.39-.06.58-.12,0-.1-.2-.25,0,0-.2.06-.59.19-.57Zm-6.63-1.47,0-.39c.14-.18.23.22.41-.35,0,.39.11.21.09.41l0,.19c-.15.18-.13,0-.17.38C310.16,252.44,310,252.62,309.89,252.61Zm2.28.24c.14-.18.27-.17.23.22C312.29,252.86,312.27,253.05,312.17,252.85Zm2.29.49.18.35c0-.39.15-.18.13,0,0,0-.13,0-.15.18-.06.59.24.23.2.61,0-.19-.17.38-.13,0l0-.19c0,.19-.15.18-.06.58,0,0,0,.08,0,.13l-.27-.07a1.78,1.78,0,0,0,.05-.28l-.25,0,.06-.58s.11.21.13,0a.46.46,0,0,1-.09-.4c0-.19,0-.39.17-.37l0,.38A.58.58,0,0,0,314.46,253.34Zm-5-.38c0,.19.15-.18.11.21-.13,0-.13,0-.15.18C309.44,253.15,309.34,253,309.46,253Zm.87.29c-.29.36-.38,0-.63-.07l0-.19C309.85,253,310.24,252.85,310.33,253.25Zm2.44,1.23c0-.39,0-.39.16-.38l0,.39C312.81,254.09,312.79,254.28,312.77,254.48Zm.55-.34c-.13,0-.15.18-.28.17l0-.39c.13,0,.24.22.4-.15,0,0,0,.19.13,0-.09-.4-.27.17-.34-.43.13,0,.27-.16.38,0l0,.39c-.06.58-.17.37-.19.57s.08.1.1.08a.58.58,0,0,1-.14.3h0v.1h0s0-.09,0-.11-.1-.2-.1-.2l0,.32a1.1,1.1,0,0,0-.18,0l-.07,0,0-.35C313.15,254.52,313.28,254.53,313.32,254.14Zm-8.63-.89c-.25,0-.38,0-.48-.24.54-.34,1,.1,1.28-.07C305.3,253.51,305,253.28,304.69,253.25Zm-.89-.09c-.39.16-.61-.26-.86-.28l0-.2C303.19,252.9,303.78,252.18,303.8,253.16Zm4-.56c-.13,0-.28.16-.24-.22,0-.2.13,0,.15-.18C307.73,252.39,307.88,252.21,307.84,252.6Zm-.64-1.25c0,.2,0,0,.14-.18a1,1,0,0,0,.07.6c-.15.18-.15.18-.27.17.06-.59,0,0-.11-.21,0,.19.09.4-.06.58,0-.15-.09-.32-.07-.47s.06-.25.13-.11C307.18,251.55,307.07,251.34,307.2,251.35Zm-1.12.87L306,252c.13,0,.19-.57.13,0Zm-5.3-.74.06-.59c-.06.59-.19.57-.19.57a.32.32,0,0,1,0-.25c0,.11,0,.25-.11.24l.06-.58c.15-.18.13,0,.38,0a.37.37,0,0,1,.36.23c.06-.58.44-.54.53-.14-.06.58-.11-.21-.17.37l0-.19c0,.39,0,.39-.16.38a1,1,0,0,0-.62-.26l0-.39C300.92,251.3,300.9,251.49,300.78,251.48Zm2.55.06c.11.21.42-.34.49.25-.13,0-.21-.41-.25,0,.12,0,.1.21.1.21,0,.2-.14.18-.12,0a.31.31,0,0,0-.07.23C303.45,251.88,303.3,251.87,303.33,251.54Zm3.09,1.11s-.08-.4,0-.39l0,.39c.09.4.23.22.32.62-.13,0-.23-.22-.36-.24l0-.19c-.27.17-.23-.22-.34-.43.13,0,.24.22.34.43Zm-6.76-.31c0-.39.15-.18.13,0,.25,0,.42-.35.67-.33.63.07,1,.3,1.76.38-.06.58.1.21.06.59,0,.2-.14.19-.06.59v.16c-.11,0-.21,0-.31,0a.14.14,0,0,0-.15,0h-.07c-.06-.28-.09-.18-.1,0h0a.86.86,0,0,0-.07-.56c-.27.17-.47-.44-.74-.27a1,1,0,0,1-.06-.6c0,.2-.13,0-.15.18-.17.38.09.4-.06.59l0,.19A3.28,3.28,0,0,0,299.66,252.34Zm-1.6.62c0-.19,0,0,.1.21C298,253.54,298,253.16,298.06,253Zm-2.28-.23c-.11-.21-.13,0-.22-.42.15-.18.15-.18.28-.17C295.82,252.34,295.92,252.54,295.78,252.73Zm-2.64-2a1.21,1.21,0,0,1,0,.2c-.19.57-.66.12-.62-.26Zm-.77.31c-.13,0-.26,0-.32.56l-.13,0L292,251c.11.21.17-.37.32-.55C292.22,251.18,292.47,250,292.37,251Zm.14-1.36c0,.11,0,.26,0,.39,0-.19,0-.39.16-.37,0,.38-.06.58-.16.37l0,.2c-.11-.21-.15.18-.26,0l.06-.58C292.36,249.82,292.38,249.63,292.51,249.64Zm1.31-.25,0,.19c.06-.58-.17.38-.24-.22C293.73,249,293.86,249,293.82,249.39Zm-.76-.08c0-.2-.11-.21-.09-.4S293.18,249.32,293.06,249.31Zm-.6-.46s.07.6-.06.59l0-.39c0,.19,0,.19-.15.18l.06-.58C292.48,248.66,292.48,248.66,292.46,248.85Z"/><path id="_Path_7" data-name="&lt;Path&gt;" class="cls-3" d="M323.13,265.88a.42.42,0,0,1,0,.14C323.17,265.92,323.15,265.89,323.13,265.88Z"/></g></g><path id="_Path_8" data-name="&lt;Path&gt;" class="cls-4" d="M136.38,216.48c8.36,7,10.41,18.49-5,29.48C109,261.9,17.67,275.42,8.14,241.16c-3.14-11.26,26.79.33,71.65-10,21.77-5,33.12-21.35,41.52-21.27,4.37,0,6.76,3.2,10.45,2.15,4.7-1.35,5.48-7.36,12.16-7,.76,1.87,2.14,2.74,1.55,4.88-.91,3.31-8.6,11-11.37,8.43Z"/><g id="_Group_4" data-name="&lt;Group&gt;"><path id="_Path_9" data-name="&lt;Path&gt;" class="cls-5" d="M205.43,183c-2.3-4.82-3.94-9.62-3.11-12.6-2.86,3.27-3.46,6.55-4.1,9.42-.36,1.63-.54,13.24-.54,13.24v0c-6.6,1.84-25.49,8.24-37.61,24-14.84,19.27-15.78,43.43-13.56,45.14,2.85,2.19,25.33-5.39,40.17-24.66,12.05-15.67,14.47-34.67,14.12-42,1.16.18,2.75-.5,7.29-1.41,3.63-.73,11.38-4.64,12.81-7.53-3.06-.49-5.75-.26-10.58-.71C210.33,185.88,206.41,185,205.43,183Z"/><path id="_Path_10" data-name="&lt;Path&gt;" class="cls-6" d="M157.35,246.94a3.27,3.27,0,1,1-4.87.36A3.47,3.47,0,0,1,157.35,246.94Z"/></g><path id="_Path_11" data-name="&lt;Path&gt;" class="cls-7" d="M245.88,142.51c15.22,11.8,31.46,22.11,39.76,23.37s23.3-5.8,23.86-15.48,1.56-18.26-13.38-24.8c-19.31-8.45-41.4,3.87-47.77,6s-20.73-.39-25.37-3.27-10.91.27-7.6,3-6.79,8.27.54,10.59S238,136.42,245.88,142.51Z"/><g id="_Group_5" data-name="&lt;Group&gt;"><path id="_Path_12" data-name="&lt;Path&gt;" class="cls-8" d="M286.4,104.35c-4.7,4.45,7.4,9.25,17.92,12.24C310.45,118.33,325,122,323.65,148c-.3,5.95,1.87,16.15,8.12,18.55,11.43,4.39,9.28-26.78,8.25-33.32-2.62-16.61-10.25-29.55-28-32.41-12.45-2-21.48-1.64-26.38,5.12Z"/><path id="_Path_13" data-name="&lt;Path&gt;" class="cls-8" d="M332.92,168.27c-.94,1.94-3.76,3.28-3,5.65,1.31-.76,2.93-1.54,4.5-.11,0-1.63,1-2.61,2.15-1.08.29-.11.45-.37.86-.27-2.41-2.73-1.67-4.63-6-4.11a.87.87,0,0,0,.48,1Z"/><path id="_Path_14" data-name="&lt;Path&gt;" class="cls-8" d="M282.93,104.56c-2.09-.51-4-3-6.16-1.77,1,1.12,2.13,2.54,1.06,4.37,1.58-.37,2.76.44,1.5,1.88.18.26.47.37.45.78,2.16-2.93,4.17-2.6,2.76-6.73a.87.87,0,0,0-.84.68Z"/></g><path id="_Path_15" data-name="&lt;Path&gt;" class="cls-9" d="M324.49,207.2c11.43,5.7,19.19,13.35,13.59,24.59-5.15,10.34-16.38,9.65-27.81,4s-20.79-18.34-17.16-26.36C295.91,203.19,313.06,201.5,324.49,207.2Z"/><g id="_Group_6" data-name="&lt;Group&gt;"><path id="_Path_16" data-name="&lt;Path&gt;" class="cls-8" d="M171.34,164.28c5.49,3.43,8.56-13.28,9.12-16.88,1-6.29,3.54-23.2,23.7-30.15,5.64-2,15.16-5.89,15.91-12.54,1.38-12.16-28.76-3.19-34.32.41-12.49,8.09-19.07,19.33-21.28,33.54-1.1,7.12.8,23,8.57,26Z"/><path id="_Path_17" data-name="&lt;Path&gt;" class="cls-8" d="M221.48,103.16c2.11.42,4.12,2.81,6.23,1.51-1.07-1.08-2.23-2.45-1.24-4.33-1.57.45-2.77-.31-1.59-1.81-.18-.25-.47-.34-.48-.76-2,3-4.05,2.78-2.46,6.84a.86.86,0,0,0,.81-.7Z"/><path id="_Path_18" data-name="&lt;Path&gt;" class="cls-8" d="M172.42,167.59c0,2.14-1.88,4.61-.17,6.4.83-1.27,1.93-2.7,4-2.12-.76-1.44-.27-2.78,1.44-1.93.21-.23.24-.54.64-.63-3.38-1.35-3.57-3.38-7.2-1a.86.86,0,0,0,.86.64Z"/></g><path id="_Path_19" data-name="&lt;Path&gt;" class="cls-10" d="M251,108a47,47,0,0,0,10.13-3.27c3.31-1.39,5.85-6.08,2.2-8.77-2.33-1.73-8.73-1.37-11.2,0-1.76,1-6.47,4.76-6.43,6.9-.69-1.64-2.41-3.36-3.57-4.82-1.57-2-2.93-3.06-5.73-1.83-4.24,1.87-4.5,8.7-3.85,12.51.93,5.47,3.59,9.84,9.47,11.17a32.82,32.82,0,0,0,14.36-.58,15.5,15.5,0,0,0-1.79-6,38.47,38.47,0,0,0-3.27-5.78Z"/><path id="_Path_20" data-name="&lt;Path&gt;" class="cls-2" d="M70.4,113.1c-5.52-5.12-5.75-12.74,7.16-18.84,18.73-8.86,89.27-11.46,92.58,11.49,1.08,7.54-20.21-2-55.3,1.62-17,1.78-27.45,11.65-33.8,11C77.75,118.07,70.4,113.1,70.4,113.1Z"/><path id="_Path_21" data-name="&lt;Path&gt;" class="cls-10" d="M207.9,250.75a51.41,51.41,0,0,0,2.87-11.24c.63-3.86-2.22-8.94-6.84-7.14-3,1.14-6.34,7.26-6.54,10.32-.14,2.18.64,8.74,2.64,9.95-1.91-.32-4.5.27-6.53.49-2.75.29-4.54.92-5,4.22-.73,5,5.44,9.22,9.34,10.84,5.61,2.32,11.19,2.42,15.84-2.23,3.44-3.43,6.28-8.79,7.83-13.59a17.21,17.21,0,0,0-6.56-1.82,42.56,42.56,0,0,0-7.25-.35Z"/><g id="_Group_7" data-name="&lt;Group&gt;"><path id="_Path_22" data-name="&lt;Path&gt;" class="cls-11" d="M77.71,158.45C79.35,153,87.53,137.18,92,133.56c5.09-4.09,13.32-7.69,19.62-7.69,13,0,32.49,7.79,38.69,16.76,4.82,7,9.26,18.51,9.18,19-2.86,1.18-12.57,2.79-14.07,3.18-1.83.48-13,4.08-17.52,5.36-4.33,1.23-7.93,4.56-12.22,5.95a97.85,97.85,0,0,0-10.39,4.29c-3.66,1.68-7.53,1.88-11.07,4.28-3.23,2.2-6.27,3.24-12.73,4.88C78.57,183.66,75,167.32,77.71,158.45Z"/><path id="_Path_23" data-name="&lt;Path&gt;" class="cls-6" d="M116.17,140.22c-.28,1.18-2.82,4.28-1.2,5.4,1.34.92,1.62-.89,2.07-1,.77-.25,1.27.06,1.84-.06,1.57-.31,3.63-1.25,2.78-3.54-.59-1.6-4.94-2.53-5.49-.77"/><path id="_Path_24" data-name="&lt;Path&gt;" class="cls-6" d="M97.08,149.13c-.48,2-4.84,7.34-2.06,9.26,2.29,1.58,2.79-1.52,3.54-1.77,1.34-.43,2.18.1,3.16-.1,2.7-.53,6.24-2.15,4.79-6.07-1-2.75-8.5-4.35-9.43-1.32"/><path id="_Path_25" data-name="&lt;Path&gt;" class="cls-6" d="M128.61,154.38c-.35,1.49-3.58,5.43-1.52,6.85,1.69,1.17,2.06-1.13,2.62-1.31,1-.32,1.61.07,2.34-.07,2-.4,4.61-1.6,3.53-4.5-.75-2-6.28-3.22-7-1"/><path id="_Path_26" data-name="&lt;Path&gt;" class="cls-6" d="M99.52,166.72c-.4,1.71-4.09,6.22-1.74,7.85,1.94,1.34,2.36-1.29,3-1.5,1.13-.37,1.85.08,2.68-.08,2.28-.46,5.28-1.83,4.05-5.15-.86-2.32-7.19-3.68-8-1.12"/></g><g id="_Group_8" data-name="&lt;Group&gt;"><path id="_Path_27" data-name="&lt;Path&gt;" class="cls-12" d="M271.21,208.16c-.22,9.44-15.95,19.54-28.42,15.52a23.72,23.72,0,0,1,14.57-45.15C269.82,182.55,277.17,196.73,271.21,208.16Z"/><path id="_Path_28" data-name="&lt;Path&gt;" class="cls-2" d="M269.51,215.15c-1.06,3.74.26,11,6.25,10,2-1.27-3.3-4.44-2.25-6.58,2.67,2,5.7,3.18,8.5,1.42-1.46-4.89-3.54-4.12-6.14-5.31-2.4-1.11,5.17-4,2.75-6.16-3.22-1.2-9,3.49-9.11,6.65Z"/></g><path id="_Path_29" data-name="&lt;Path&gt;" class="cls-13" d="M89.54,197.62c-8.4-5.77-54-18.61-70.18-13.09-11,3.77-14.6,18-11.21,26.68,8.09,20.7,44.69,16.94,64.41,6.36C95,205.55,96.39,202.33,89.54,197.62Z"/><path id="_Path_30" data-name="&lt;Path&gt;" class="cls-2" d="M96,199.76c.07,4.89,4.31,13.21,11.14,9.76,1.91-2.23-5.58-4.15-5.09-7.12,4,1.51,8,1.78,10.76-1.36-3.54-5.37-5.77-3.68-9.33-4.18-3.3-.47,4.79-6.64,1.08-8.41-4.31-.29-9.6,7.47-8.56,11.31Z"/><g id="_Group_9" data-name="&lt;Group&gt;"><path id="_Path_31" data-name="&lt;Path&gt;" class="cls-14" d="M285.18,183.58c-2-4.25-.42-8.84,8.2-9.65,12.49-1.17,52.73,12.72,49.5,27.11-1.06,4.72-10.91-5.64-31.44-11.14-10-2.67-18,.92-21.45-.84C288.21,188.15,285.18,183.58,285.18,183.58Z"/><path id="_Path_32" data-name="&lt;Path&gt;" class="cls-2" d="M282.32,178c-.68-2.39-3.86-5.92-6.76-3.32-.64,1.35,3.29,1.3,3.44,2.82-2.14-.21-4.17.19-5.1,2.1,2.45,2.17,3.32,1,5.13.82s-1.47,3.89.58,4.27c2.16-.43,3.73-4.94,2.71-6.69Z"/></g><path id="_Path_33" data-name="&lt;Path&gt;" class="cls-10" d="M146.73,184.73a49.79,49.79,0,0,0-11.71.51c-3.92.52-8,4.87-5,8.93,1.95,2.59,8.83,4.14,11.86,3.42,2.15-.51,8.28-3.25,8.88-5.6.23,2,1.54,4.4,2.33,6.35,1.06,2.65,2.18,4.24,5.51,3.74,5.05-.76,7.39-8.16,7.85-12.53.65-6.27-.84-11.85-6.67-15.09-4.3-2.39-10.3-3.61-15.38-3.72a18,18,0,0,0,.1,7.07,44.85,44.85,0,0,0,1.72,7.31Z"/><g id="_Group_10" data-name="&lt;Group&gt;"><path id="_Path_34" data-name="&lt;Path&gt;" class="cls-15" d="M206.36,158c-.86,3.17-2.4,7.29-.48,10.31,2.37,3.7,13.43,4.21,17.81,2.16,1.67-.79,10.19-1.43,11.23-5.31,1.71-6.46-7-13-11-15.55-9.52-6.19-13.89-5-17.18,6.9Z"/><path id="_Path_35" data-name="&lt;Path&gt;" class="cls-2" d="M204.34,157.39c1-2.58.67-7.88-3.68-7.6-1.49.76,2,3.42,1.09,4.87C200,153,197.94,152,195.81,153c.66,3.61,2.2,3.22,4,4.27s-4,2.41-2.43,4.17c2.2,1.11,6.69-1.79,7-4Z"/></g><path id="_Compound_Path_2" data-name="&lt;Compound Path&gt;" class="cls-14" d="M98.82,282c-5.08-12.51-21.36-16.27-33-9.06a24.83,24.83,0,0,0,26.12,42.23C103.58,307.93,106.2,288.55,98.82,282ZM84.24,303.1A10.63,10.63,0,0,1,73.06,285c5-3.09,12-1.48,14.14,3.87C90.35,291.71,89.23,300,84.24,303.1Z"/><g id="_Group_11" data-name="&lt;Group&gt;"><path id="_Path_36" data-name="&lt;Path&gt;" class="cls-5" d="M46.42,90.41c1.73,5.06,2.81,10,1.64,12.88,3.22-2.92,4.19-6.11,5.16-8.88.55-1.59,2.06-13.1,2.06-13.1h0c6.78-1.08,26.28-5.25,40.13-19.48,17-17.43,20.7-41.32,18.69-43.27C111.51,16,88.31,21,71.34,38.4,57.56,52.57,53,71.17,52.47,78.46c-1.14-.31-2.8.18-7.41.56-3.68.3-11.83,3.29-13.59,6,3,.83,5.68.92,10.42,1.92C41.89,86.94,45.69,88.26,46.42,90.41Z"/><path id="_Path_37" data-name="&lt;Path&gt;" class="cls-6" d="M101.58,32.41a3.47,3.47,0,0,1-.35-4.87,3.67,3.67,0,1,1,.35,4.87Z"/></g><g id="_Group_12" data-name="&lt;Group&gt;"><path id="_Path_38" data-name="&lt;Path&gt;" class="cls-15" d="M185.92,311.68c4.28-.9,10.11-1.56,12.53-5.68,3-5-3.12-18.49-8.21-22.44-1.94-1.51-7.86-11.25-13.09-10.13-8.71,1.87-11.18,16.14-11.84,22.43-1.59,15.05,2.47,19.52,18.59,16.23Z"/><path id="_Path_39" data-name="&lt;Path&gt;" class="cls-2" d="M186.37,314.47c-3.7.31-9.77,4-6.8,9,1.8,1.32,2.85-4.45,5.12-4.24-.93,3.08-.91,6.17,1.61,8.07,3.87-3,2.48-4.56,2.67-7.28.17-2.53,5.27,3.27,6.42.37,0-3.29-6.17-6.87-9-5.88Z"/></g><g id="_Group_13" data-name="&lt;Group&gt;"><path id="_Path_40" data-name="&lt;Path&gt;" class="cls-2" d="M248.77,43.75a20,20,0,0,1-2.7-1,5.61,5.61,0,0,0-1.46-.56c-.22-.23-.83-.28-1.05-.51v.08c-.23-.22-.42-.14-.43-.29a3.87,3.87,0,0,1-.83-.28c-.82-.2-1.85-.47-2.66-.59-.41-.06-.62-.13-1-.19,0,0,0,.08-.2,0a6.54,6.54,0,0,1-1.22-.18,16.37,16.37,0,0,0-2.86-.57c-.4-.14-.57.09-.75.26l.28.95A22.75,22.75,0,0,0,239,44.14v.08A34.76,34.76,0,0,0,244.52,47s.2,0,.21.15c.4,0,1.06.5,1.45.48a39.61,39.61,0,0,0,3.94,1.32v-.08c0,.24,1.25-.13,1.45-.07,0,0,2.45.52,2.95-.15s-2.19-2.6-2.19-2.6C251.91,46,250.56,44.58,248.77,43.75Z"/><path id="_Path_41" data-name="&lt;Path&gt;" class="cls-2" d="M234.59,24.33a8.19,8.19,0,0,0-.63,2.13,2.37,2.37,0,0,1-.3,1.18c.12.31-.22.64-.1.94l-.09-.07c.12.3-.11.31.07.46-.15.09-.17.47-.22.63a11.26,11.26,0,0,1-1.09,1.76c-.19.25-.25.4-.45.64,0,0-.09-.07-.15.09-.29.17-.4.49-.6.73-.46.64-.64,1.5-1.22,1.84-.11.31-.51.18-.83.12l-1-1c-.78-2.07-.45-3.64-.46-5.27l-.09-.08c.09-1.56-.22-3.64.37-5,0,0,.15-.08,0-.23.29-.16.09-.93.39-1.1a15.48,15.48,0,0,1,1.05-3l.09.08c-.27-.22,1-.47,1.06-.62s1-1.6,2.16-1.24,1.68,3.33,1.68,3.33C234,20.91,234.79,22.76,234.59,24.33Z"/><path id="_Path_42" data-name="&lt;Path&gt;" class="cls-2" d="M244,28.25a7.84,7.84,0,0,1-2.36,1,2.36,2.36,0,0,0-1.32.49c-.37-.15-.7.35-1.07.2l.1.12c-.37-.15-.35.18-.54-.07-.08.21-.53.27-.7.35A13.25,13.25,0,0,0,236.24,32c-.25.29-.43.38-.68.68,0,0,.09.11-.08.2-.16.42-.51.59-.76.89-.68.68-1.65,1-2,1.82-.34.17-.15.72,0,1.16L234,38c2.47,1,4.23.41,6.1.31l.1.13c1.78-.22,4.21.08,5.69-.83,0,0,.08-.21.27,0,.16-.41,1.06-.19,1.22-.61a15.35,15.35,0,0,0,3.32-1.65l-.09-.12c.28.36.41-1.43.57-1.52,0,0,1.72-1.53,1.17-3.09s-4-2.13-4-2.13C248,28.8,245.81,27.87,244,28.25Z"/><g id="_Group_14" data-name="&lt;Group&gt;"><path id="_Path_43" data-name="&lt;Path&gt;" class="cls-3" d="M178.56,83s0,0,.05,0h0Z"/><path id="_Compound_Path_3" data-name="&lt;Compound Path&gt;" class="cls-3" d="M214.15,66.53s6.32-4.09,6.27-4.18a4.41,4.41,0,0,0,1.19-1.21c1.07,0,1-1.54,1.84-1.62-.21-.33.11-.07.22-.14-.11-.16-.21-.33-.11-.39,2.37-1.27,5.08-3,6.41-5.66a2.88,2.88,0,0,1,.4-1.21A3.45,3.45,0,0,0,231.43,50c.87-1.46.53-1.76,1-3.65.53-.1.12-1.44,0-2.3l-1.85-3c-3.14-3.74-4.09-4.81-6.94-5.08-.1-.16-4.05.12-4.26-.21-2.95,0-5.62,1.72-7.76,3.29-.1.07-.21-.09-.31-.26-.11.07,0,.46-.21.14-.43.73-1.79,0-2.23,1a4.17,4.17,0,0,0-1.59.54c0-.08-6.39,3.8-6.39,3.8l.11.16c-.1.06-.1.06-.11.29-.2-.32-.1-.16-.31-.26-.54,1-2.12.88-2.67,2.14-.1-.16-.2-.33-.2-.1-.22.6-1.17.51-1.39,1.11l.1.16c-.21-.09-.21.13-.11.3-.62-.52-.53.56-1.06.44-.22.59-1.06.21-1.17,1.2-.22.13-.22.36-.23.82-.62-.75-.63.17-1.16.05.2.79-.52-.13-.43.5l.21.32s-.42-.42,0,.24c-.21.13-.94-.55-.63.17l-.21-.33c.11.16.31.49.21.56l-.21-.33c-.1.07-.32,0-.32.2-.2-.33-.21.14-.11.3-.94-.32-.65,1.56-1.59.77l.31.5c-.52-.59-.84-.39-.85.07-.42,0-.53.34-.54.8-.31-.49-.31,0-.42-.19.31.72-.21.13,0,.69-.11.06-.32-.26-.32-.26,0,.23.21.32.31.49-.31-.26-.31,0,.1.62-.42-.19,0,.47.09.86.31.49.21.1.31.49,0,0-.21.13,0,.69.21-.13.63.06.64-.4.42.42.21-.13.42.19,0,.23,0,.69-.32.66l.2.33c-.31-.26-.22.37-.84-.15-.11-.17-.2-.56,0-.24-.92-1.47-.82-1.77-1.43-2.75.41.43-.11-.16-.11-.39-.42-.19-.11.76-.63.4,0,.23.19.79.09.86s.1.16.21.32c-.11.07-.32-.25-.42-.19-.31-.49.1-.06-.1-.39-.21-.1-.22.36-.54.56-.52-.58-.42,0-.42.27-.42-.42-.22.37-.53.11l.2.55c-.2-.32-.31,0-.21.14-.11.07-.21-.1-.32-.26.21.33.11.16-.1.06.31.27,0,0,.2.56-.41-.42.1.63-.32,0,.31.5.11.4.2.79.32,0,.22-.36.43-.27,0,.23.1.17.21.33.11-.07.42.19.11-.3,0,0,.31.49.31.26.1.4,0,.46-.22.37l.11.16c.2.33.1-.07.21.1.3.72-.43,0-.23.83.32,0,.32-.21.43-.51.11-.06-.1-.16-.1-.39l.31.49c-.1-.39.21.1.21-.13.11.16.22.09.31.49-.1-.16-.2-.33-.31-.49.2.79,0,.69-.22,1.06.42.42.32-.44.64-.18s0,0,.2.33a1.06,1.06,0,0,0-.53.57l-.31-.5c-.22-.09-.11.07-.22.14-.21-.1-.41-.42-.41-.19a2.85,2.85,0,0,1-.31-.72c-.42-.66-.52-.82-.73-.92,0,.23.11-.07.21.33A1.71,1.71,0,0,1,184,59c.42.42-.1-.62.32-.2-.1-.17-.52-.82-.41-.89-.31-.26-.11.07,0,.23-.21-.09,0,0-.11.07l-.31-.49c.1.39-.42,0-.22.6-.31-.26-.21-.1-.42,0l.21.33c-.22-.09-.53-.36-.43.27a1,1,0,0,0-1.17,1c-.32-.26-.53-.13-.43.5-.11-.17,0,0-.11.06l.11.17c-.22.13-.54.33-.54.56l-.31-.49s.2.56-.11.3c0,0-.11.07,0,.23-.21-.1-.31-.26-.42-.19.1.16.1.39.2.56-.31-.5-.73-.46-.42,0-.31-.49-.32,0-.22.14-.31.2-.63.17-.63.4l-.11-.16s-.1.06,0,.23c-.11.06-.21-.1-.31,0,.2.32-.11.29-.22.13a2.57,2.57,0,0,1-.12,1.22c0,.07,0,.06.1.16-.11.07-.21-.09-.21.14l-.31-.49c.1.16.1-.07,0-.23s-.42,0-.42.5v-.23c-.11.06-.11.52-.32.2.2.79-.12.53-.23.82.11-.06.42.66.21.56.21.33.42.19.21-.13.11-.07.31.49.31.26.11.16.21.33,0,.23l.31.49c-.1-.39.11-.3.22-.36l.1.16c.31.72-.32.2-.11.53.1-.07.42,0,.42-.27.21.1.22-.14.22-.14l-.21-.32c-.1-.4-.1-.63.32,0-.11-.17-.11.06,0,.23.32.26.22-.37.53.12a9.3,9.3,0,0,1-.55,1.26c.21.56.1.86-.12,1-.1-.39,0-.46,0-.46L178,67.1c0,.23-.32,0-.42,0-.21-.33-.2-.56-.41-.89l-.83-1.31c.11.17-.1-.16,0-.23-.31-.26-.21.14-.42,0-.2-.33.11-.07-.1-.39-.21.13-.42.26-.22,1a1.06,1.06,0,0,1-.42-.42,1.12,1.12,0,0,1,.1.62l-.21-.33c-.31,0-.32.44-.74.24.1.4-.11.3.1.63,0,.23-.1-.16-.21-.1l.1.17c-.31-.26-.11.29-.32.43-.21-.33-.1-.4-.1-.4-.42-.42.09.86-.43.27.11.17.21.33,0,.23.1.17.21.1.31.26-.11.07-.52-.35-.32.21l-.2-.33c-.32,0,0,.92-.33.89-.21-.33,0-.23-.1-.39s-.11.06-.32.2c.51,1.51-1.05-.25-.85.76l-.22-.09a3.35,3.35,0,0,1,.2.37.78.78,0,0,1-.3-.31c.21.33,0,.47-.11.3-.11.07.1.4-.11.3l.1-.07c-.31,0-.11.53-.32.67-.1-.17-.2-.33,0-.23-.31-.27-.21.13-.11.29,0-.06-.1-.08-.1-.16-.21-.1-.21.13,0,.46-.42-.19-.84-.16-.64.4-.1-.16-.2-.09-.31-.26.1.4-.32.2-.22.6-.21.13-.52.1-.43.73l-.31-.26c.2.33-.22.13,0,.46-.1.07-.21-.1-.21-.1,0,.46-.53.34-.43.73-.11.07-.11.07-.21-.09.21.32,0,.23.31.72-.11.06-.11.06-.21-.1-.11.07,0,.23-.11.3s.2.33.31.49c-.11.07-.42-.43-.63-.52.1.16,0,.23.1.39-.1-.16-.21-.09-.31,0-.11.3-.65.64-.86,1l-.21-.33a2.68,2.68,0,0,0-.54,1.26c.21.1.2.33.31.49s-.21-.09-.32-.26c-.1.07,0,.23,0,.23l.11-.06.31.49c-.21-.1-.21-.1-.32-.26-.1.06.11.16.21.33s-.11.06.1.39c-.21-.1,0,.23,0,.46-.1-.16-.1.07-.31-.26-.1.07,0,.23-.21.13l-.11-.16c-.1.07.21.33.21.33s-.1-.17-.21-.1l.31.49c-.1-.16-.1-.39.11-.3,0,0-.11.07,0,.24.1-.07-.1-.4.11-.3.3.49-.22.36,0,.69-.1-.17.21.1.42.19.09.4-.22.14-.32,0,.1.17-.21-.09-.21-.09.21.32.21.32.31.49-.1-.17-.21.13.1.39-.21-.09-.21.13-.31,0,.31,0-.21-.56,0-.46-.2-.33-.2-.33-.31-.49.11.16.31.49.1.62-.1-.39-.1-.16-.21-.09l-.11-.16s-.2-.33-.09-.4c-.11-.16-.22-.1-.22-.1-.1-.16.11-.29,0-.46.21.33,0,0,0,.23.1-.06.42.2.42,0s-.21-.1-.21-.1l-.2-.33c-.11-.16-.22-.09-.32-.26,0,0,.1.17-.1.07a1.32,1.32,0,0,1,.2.79c.1.16.1-.07.31.26-.11.06-.32,0-.32.2l-.1-.17c-.21-.32,0-.22.11-.29-.21-.33-.42-.2-.43,0-.15-.08-.14.25-.21.29a.45.45,0,0,1,.21.17c-.11.06,0,.23.1.39-.11.07.1.16,0,.23.11.17.21.33.11.39.18,0,.24-.09.31-.2a.35.35,0,0,1-.2-.32l.2.32c0-.07.09-.14.21-.13-.09-.15-.18-.12-.27-.23a.62.62,0,0,1,.39-.53,2.19,2.19,0,0,0,.41.89c-.1-.17-.11.06-.11.06l-.42-.19.21.33c-.1.06-.1.06,0,.23-.11.07-.21-.1-.21-.1l-.11-.16s-.1.06,0,.23l.21.32c0,.24,0,.24,0,.47-.2-.33-.31-.26-.52-.59-.21.36-.22.6-.42.5-.11.07.1.16,0,.23l.32-.2c.21.32-.11.29,0,.46a.78.78,0,0,0-.32-.26c-.21-.33-.21-.1-.1.07-.11.06-.21-.33-.22-.1-.1.07.2.79-.11.53a.36.36,0,0,0,.21.32c0,.24.1.4-.11.3.1.17.21.1.31.26l.1.17c-.1.06-.2-.1-.31-.26.21.32,0,.23.1.39s.21.1.21.1l.21.32c-.21-.09-.32.21-.12.53-.1-.16-.2-.09-.31-.26.11-.06.22-.13-.1-.39l.1.16c-.1-.16,0,.23-.1.07,0,.23.1.16.21.33-.32-.26-.22-.1,0,.23-.1.06-.31-.26-.31-.26l.1.16c-.11.07.11.16,0,.23s0,.23-.21-.1l.21.33c-.11.07-.11-.16-.32-.26l.21.33.1.16s-.21-.09-.1.07c-.11.07-.11-.16-.11-.16-.1-.17,0,.23-.21-.1,0,0,.21.33.11.16-.11.07,0,0,.1.17-.11.06-.11.3-.32,0,0,0,.11.16-.1.06l.1.17s.1.39-.21.13c.1.17.1.4-.11.3.21.1.1.16,0,.23a.77.77,0,0,1,.31.72c.11.16.1.4,0,.23,0,.23.31.49.2.56.11.16.11.16.21.1.1.16,0,.23,0,.23.1.16.21.1.31.26-.11.06.1.16.2.33-.1-.17.22.09,0-.24l.21.1c.32-.2.53-.56,1.26-.11,0-.06.1-.08,0-.23l.1.16c.21.1.11-.07,0-.23.41.43.42.19.53-.1l.1.16c.32-.2.63-.17.95-.37.11-.07,0-.23,0-.23,0-.23.11-.07.22-.14.1.17.1.17.21.1l-.1-.17c.94.09,1.37-.4,2.22-.71l-.1-.17s.08,0,.13,0a.39.39,0,0,1,.11.26,2.69,2.69,0,0,0,1.38,0l-.2-.33c.42,0,1-.37,1.28-.34.11-.07.22-.14.11-.31.11.17.21.1.32.27,0-.2-.17-.54-.18-.69s0,0,0,0l.27.42c.11-.07.21.09.32,0-.1-.17-.1-.17,0-.24.31.5.31.27.52.59-.11-.16-.11-.16,0-.23.32.26.44-.27.86-.08,0,0-.11-.16,0-.23.21.33.22-.13.42.2l-.09-.4c.52.35.64,0,.85-.08.31.26.32-.2.64.06-.1-.17,0-.24-.1-.4.42.43.64.06.64-.41.21.33.43.43.43.2-.07,0-.06-.12-.11-.17.11.17.43.43.32,0,0,.23-.1.07-.21-.1.19-.12.51.15.67,0l.08,0s0,0-.06,0,.18.1.27,0c-.1-.17.12-.3.32,0a.84.84,0,0,1-.15-.41c.09.11.18.22.26.34v-.23c.85.62-.08-1.57,1.08-.45.21-.13.32,0,.32-.2s-.11.07-.32-.26c.12-.31.85.38,1,.08l-.2-.33c.42.43.21-.13.32-.2.11.16,0,.23.1.4,0-.24.11-.07.21.09-.31-.72.64.3.44-.27,0,0-.12.07-.32-.26.21-.14.63.29.53-.11l.11.17c.11-.07-.21-.33,0-.24.21.33.21.1.53.36,0-.46.43-.27.54-.57l-.21-.33a1.16,1.16,0,0,1,.53.36,1,1,0,0,1-.2-.56c.63.52.84.39,1.06.25-.21-.33-.11.07-.31-.26,0-.24.32,0,.21-.37-.1.07-.31-.26-.21-.1l-.83-1.32c-.17-.26-.34-.4-.5-.61a2.11,2.11,0,0,0,.94-.56c.11-.06,0-.23,0-.23l.2-.09a2.07,2.07,0,0,0,.55,0c.31.5-.22.14-.12.54.11.16.32.26.22.09.41.66.2.57-.12.31l-.2-.33s-.22-.1-.22.13c-.21-.09-.33.21-.43.27.21.33,0-.46.53.13l.1.17c-.1.06-.11.3-.42,0l.31.5c0-.23.1-.07.21.1-.21-.1.21.33.1.39-.21-.33-.42-.19-.21.14,0-.23.52.36.41.43.32,0,.22-.37.86.15-.21-.33.21-.13.32-.2l-.21-.1c.42.19.64.06.64-.17s-.31-.27-.21-.1l-.31-.5c.21.1.1-.06.21-.13l.11.16a2.59,2.59,0,0,1,1.16.42c-.1-.17,0-.47.22-.14.1-.06,0-.23.11-.3.11.17.21.1.21.1l-.1-.16c.21.09.32-.21.64-.41.11.16.53.36.22-.14.31.5.53.13.22-.37.11.17.31.27.42.43.11-.07,0-.23,0-.47.1.17.21.1.21.1-.1-.4.32,0,.32,0l-.31-.5c.21.1.53-.1.75-.24a1.19,1.19,0,0,1,.1.17c.11-.07.21.1.11-.07.53.36.74.22.64-.18a1,1,0,0,0,1.4-.65c.53.36.43,0,.43-.27l.21.33c.22-.13.32,0,.22-.37.42.43.32-.2.64.06l-.31-.49c.11-.07.1.16.11-.07.1.16.31.49.21.1-.11.06-.53-.6-.63-.76.2.56-.53-.36-.33.2a1.59,1.59,0,0,1-.3-.73c.31.27,0,.24.21.33,0-.23-.11-.39-.52-1.05a2.83,2.83,0,0,1-.52-.6c.21.1,0-.23,0-.46.11-.07.21.1.22-.14l-.31-.49a1.33,1.33,0,0,0,.58-.15h.05s0,0,0,0l.13-.07c.21.33.1-.06.21.33s-.64,0-.44.51c.43,0,.43-.27,1.06.25l-.31-.49c.32.26.21.33.31.49-.21-.1.1.4-.21.14l.31.49c-.21-.1-.21-.33-.31-.26-.32,0-.54-.12-.65.18.63.52.33-.44.85.15.11.16-.21-.1,0,.23l.1.17c0-.24.11-.3.43,0-.21-.1.1.4.1.4-.31-.5-.21-.1-.32,0,.1.16,0,.23.21.33,0,.23-.32,0-.43.27.31.26.32,0,.63.53-.42-.67.32.26.11-.31.42.43.32,0,.42.43,0-.23-.1-.4.11-.07-.11-.16-.21-.33-.1-.4.1.17.42.2.21-.13l.42.43c-.1-.4.54.12.33-.44.21.09.74.45.43-.27.33-.21.75,0,.75-.24-.21-.34,0,.23-.31-.27.1-.07-.1-.4,0-.46.1.16.09.39.2.33s.53.35.74.45c-.1-.63.64.06.65-.4-.21-.1-.52-.83-.32-.27-.62-1-.94-1-1.87-2.5.2.33-.12.07-.22-.1-.2-.79.33-.43.23-.83l.21.33c.11-.31.53-.11.74,0,.21.33-.21-.1,0,.46-.43-.19-.44.28-.65.41.42.43.64.29.64.29.31.26,0,0,.31.5.31.26.73.92.74.45.41.66.63.76.52.36.11.17.11.4.31.5,0,0-.2-.33-.09-.4.41.43.11-.3.63.29-.1-.16.32,0,0-.47.42.2.74.23,1-.14.43.19.75,0,.44-.74l.31.49c-.3-1.19,1.28-.11,1.41-1.11.1.16.53.36.32,0,.21.1.22-.14.32-.21l-.21-.33c.11-.06.32.26.43.43l-.21-.33c.52.59.21-.37.43-.5.42.66.21.09.21.09l.21.33c.53.36,0-.7.64-.17.12-.54,1-.15.55-1,.43.19.64.29.86.15,1,.33,1-.61,1.6-.55.12-.53,1.07,0,.87-.78.11.17.32.27.32,0l.11.17c.64.06,1-.85,1.61-.79.21.1.11-.07,0-.23,1.39.05,1.95-1.46,3.12-1.51,0-.23.11-.06-.1-.39.22.09.22.09.32,0S214.11,66.48,214.15,66.53ZM188.4,56.44l-.11-.16c-.2-.33-.09-.4.22-.14C188.71,56.7,188.09,56,188.4,56.44Zm.44-1c.1.16,0,.23.09.4C188.83,55.94,188.62,55.39,188.84,55.48Zm.42-.27c-.1-.16-.1-.16,0-.23l.31.49c-.1.07-.1.07-.21-.09l.21.32C189.46,55.77,189.26,55.21,189.26,55.21Zm7.55-4.3c-.21-.32,0-.23-.1-.39C197,51,196.92,50.84,196.81,50.91Zm-4.93,5.4c-.1.06-.21-.1-.42-.2.1.4,0,.69-.22.6.1.39,0,.23-.21.13-.3-1,.22-1.06.54-1Zm5.55-4.88c.21.33,0,.23,0,.47l-.31-.5C197.33,51.5,197.22,51.34,197.43,51.43Zm-7.56,5-.1-.17c0,.23-.1.07-.31-.26.1-.06.21.1.31.26l-.21-.32c.11-.07.22.09.22-.14.1.16.2.33.31.49S189.88,56.19,189.87,56.43Zm-.32.89a.67.67,0,0,1-.08-.18l.51-.32C190.18,57.15,190,57.74,189.55,57.32Zm1.26.12c-.31-.49-.41-.43-.52-.36-.52-.82.21.1-.2-.56.2.1.51.59.52.36l.31.49Zm-3.15-1a3.7,3.7,0,0,1,.21.33c-.11.06-.21-.1-.21-.1C187.45,56.35,187.66,56.45,187.66,56.45Zm-.11.76c-.32-.26,0,.69-.43,0C187.33,57.34,186.72,55.9,187.55,57.21Zm-.86.53c-.1.07,0,.24.1.4-.1.07-.11.53-.73-.22-.11-.17.11-.07-.1-.4.1.17,0-.23.32-.2-.31-.26-.11.07-.21-.1s0-.23.21.1c0,0,0-.23.31.26l-.11.07c.11.16.11.16.21.09l.11-.06c.41.65-.11.06.2.56Zm-.44,1.43.11-.3.31.49c-.31-.36-.18-.08-.09.13C186.43,59.31,186.42,59.44,186.25,59.17Zm.1.39c-.09-.34.12-.06.25,0s.07.19,0,.11l.21.33C186.66,60.05,186.56,59.89,186.35,59.56Zm1.49-.71c-.21-.32,0-.23-.31-.72l.21.1c.11-.07-.1-.4-.2-.56.1-.07.1.16.21.1a5.11,5.11,0,0,0,.51,1.28C188.15,59.11,187.84,58.62,187.84,58.85Zm-.12.76c.11-.07.11-.07.32,0,.1.39,0,.23,0,.46C187.82,60,187.82,59.78,187.72,59.61Zm-5.58-.14c.31.5-.11.07-.11.3C181.92,59.61,182,59.31,182.14,59.47Zm-.33.44c-.2-.33.21.09-.1-.4.11-.06.21.33.21.33S181.92,60.07,181.81,59.91Zm-.11.53c-.21-.33,0-.24,0-.24l.11.17C181.91,60.53,181.7,60.2,181.7,60.44Zm4.41.87c.11.16.31.49,0,.23C186.11,61.31,186,61.15,186.11,61.31ZM181,63a.33.33,0,0,0-.16-.17c.1.16,0,.23-.1.06,0,0-.11-.16,0-.23-.21-.32-.11.07-.22.14-.2-.56.33-.2.33-.43C181,62.63,180.87,62.71,181,63Zm-2.29,1.17-.1-.16c-.31-.49,0,0,.11-.07Zm3.74-3a.39.39,0,0,1,.21-.37c.22-.13.11-.29.32-.2l.31.5c-.07,0-.13-.09-.2-.17a.31.31,0,0,1,.1.23s-.11.07-.42-.42c.1.16.2.33.31.49-.11.07-.21-.1-.42-.43l.21.33a1,1,0,0,0-.43.5c-.1.07-.1.07-.31-.26l.1.16c-.31-.49,0,.24-.31-.26C181.8,60.83,182.12,60.63,182.43,61.12Zm-4.8,3.25c-.1.06-.1.06-.31,0a1,1,0,0,0-.2-.56c.21.1.31.26.21.1.1-.07.1.16.31.26,0-.16.14,0,.16,0s.07.32.15.45c-.21-.1-.21-.33-.31-.49C177.63,64.37,177.33,63.88,177.63,64.37Zm-.32.89c-.21-.32,0-.23-.1-.39.1.16.1-.07.21.09C177.62,65.29,177.41,65.19,177.31,65.26Zm1.27-.57-.2-.33c.1-.07.2.33.2.33l.11.16c0-.23,0-.46.11-.53,0,.23.2.56-.11.53l.1.16c-.11.07-.11.3-.22.37C178.47,65,178.68,65.08,178.58,64.69Zm.95-.14c.32,0,.54-.57,1.17-.51,0,.23-.11.3-.32.43S180,65,179.53,64.55Zm2.13-1.35.1.17c-.21.13-.22.59-.64.63C180.71,63.12,181.55,63.5,181.66,63.2Zm1.26.81c-.11.07-.11-.16-.11-.16l-.1-.16c-.1-.4-.21-.33-.31-.5s.1-.06-.21-.55c.64-.4.86-.77,1.39-1.1.21-.14.53.12.74,0-.1-.17-.1-.4.1-.07a3.23,3.23,0,0,0-.32,1.12c0-.06-.08-.12-.11-.16-.21-.1,0-.23-.31-.49-.1-.16-.11.07-.21-.1a1.06,1.06,0,0,1,.21.56c-.32,0-.22.6-.54.57a1.05,1.05,0,0,0,.2.56c-.1-.17-.2-.33-.1.06-.21-.09-.11.07-.22.14.21.32.21.09.42.42C183.33,64.21,183,64,182.92,64ZM169.67,75.79l-.1-.16-.11.06c0-.23,0-.23.11-.3C169.78,75.72,169.67,75.79,169.67,75.79Zm-.21-.33c-.21.14-.41-.42-.42-.19-.2-.33-.2-.33-.41-.65-.2-.1-.1.06-.21.13-.1-.16.11-.3.11-.53.11.16,0,0,.21.1-.1-.17-.41-.43-.31-.26-.11.06-.2-.33,0-.23l.11.16.2.33c.1.39,0,0,.1.16s-.1.07-.2-.1c.2.56.41.43.52.36l.21.33C169.26,75.14,169.15,75,169.46,75.46Zm-2.53.23c.21.09,0,0,.1.16-.1.07-.2-.32-.2-.1-.22-.09,0,0-.21-.32A.79.79,0,0,1,166.93,75.69Zm.64-.86.33-.21c.1-.06.1.17.2.1C168,74.79,167.78,75.15,167.57,74.83Zm1.49-.94c-.2-.56,0-.7.43-.27.21.33.1.39,0,.46l-.1-.16c0-.24,0-.24.11-.3C169.39,73.68,169.07,73.42,169.06,73.89Zm6.27-2.81c-.21-.32-.32,0-.52-.59-.11.07,0,.24,0,.24.11.16.22.09.21.32-.21-.32-.1.07-.42-.19-.1-.16.11-.07-.1-.4l.32-.2c.21.33-.1.07,0,.23.31.27.32-.2.42,0C175.54,71,175.23,70.69,175.33,71.08Zm-3.93,1.79c-.1-.16-.2-.56,0-.46C171.51,72.8,171.4,72.64,171.4,72.87Zm6.82-5a.69.69,0,0,0,.1.39l-.21-.33Zm-4.45,1.2c-.1-.16-.2-.33-.1.07l-.21-.33C173.57,68.76,173.57,68.76,173.77,69.09Zm2.46-2.47c-.1-.16-.1-.16-.21-.09-.2-.33.11-.07,0-.23C176.13,66.23,176.13,66.46,176.23,66.62Zm-.41-.19.1.16c-.21.14-.12.53-.54.34C175.29,66.53,175.71,66.5,175.82,66.43Zm-3,1.88c.2.56-.22.13-.12.53.21.09.11-.07.11-.07.31.26.32,0,.42,0s.1.17.21.33c-.11.07-.21-.1-.32,0,.21.33.32.26.42.19l.31.49c-.11.07-.21-.09-.21.14l-.31-.49s.09.16,0,.22c.06,0,.11.09.2.33l.1.17-.1.07-.21-.33c.11-.07.21.09.21.09l-.2-.32h0a.47.47,0,0,1-.26-.2s0,0,0-.12-.11.07-.42-.42a3.7,3.7,0,0,0-.21-.33C172.52,68.28,172.73,68.38,172.84,68.31Zm2-2.2c-.1-.16.11-.07-.1-.39.41.42.32,0,.52.12l.21.33c-.1.07-.32,0-.21.36-.21-.32-.11-.16-.32-.25Zm-1.28,1.27c0,.23-.11.06-.11.3C173.27,67.35,173.38,67.28,173.59,67.38Zm-3.31,3,.1-.07c.11-.07.32.26.42.43-.21-.1-.11.06-.21.13C170.48,70.71,170.59,70.64,170.28,70.38Zm1.37-.41c-.1-.16.1.16.21.09.11.17-.11.07-.11.3l-.1-.16C171.75,70.13,171.65,70,171.65,70Zm-1.17,1c-.21-.1,0,.23,0,.23C170.06,70.75,170.17,70.45,170.48,70.94Zm-1.6,1.23c.21.1,0,.23-.11.3C168.67,72.08,169,72.34,168.88,72.17Zm3.72-1.88c-.11-.17-.22.13-.11.3,0,0-.31-.5-.21-.33-.1-.4-.2-.33-.31-.49l.11.16c.2.33-.22-.09-.11.07-.21-.33.21-.14-.1-.63-.1-.16-.21-.09-.21-.09-.1-.17-.1-.4.11-.07v-.39a.72.72,0,0,0,.21.26l-.21-.33c.11-.07.22.09.32.26a.49.49,0,0,1,.1.39c.1.17.1-.06.1-.06.21.32.21.32.31.49l-.21.13c.21.33.41.43.41.65s0-.22.11-.06-.11.06,0,.23c.31.26.11-.3.42.19-.11-.16-.32-.26-.11.07-.53-.36-.42,0-.63-.06C172.28,70.49,172.69,70.68,172.6,70.29Zm-1.42,3.18c-.21-.1-.21.13-.42-.2s.21.1,0-.23c-.22-.09-.42-.42-.42-.19-.21-.56.42,0,.11-.53C170.66,72.65,171,73.14,171.18,73.47Zm-4.89,2.85c.1-.07,0-.23,0-.23l.21.33c.11-.07,0-.23,0-.23-.1-.17,0-.23-.31-.49.18.08.1-.11.18-.12a.78.78,0,0,1-.05-.18c.08.12.09-.06.19.1l.1.16-.1.06c-.11.07.21.33.1.4s.11-.07.21.1a.37.37,0,0,0-.22.36C166.39,76.25,166.5,76.65,166.29,76.32Zm1.59-1c.11-.07.11-.07.32.25C168.1,75.41,168,75.48,167.88,75.32Zm.42.19c.21.33.11.39.21.56s.21-.14.31,0c0,.47-.42,0-.74,0C168.09,75.87,168.19,75.81,168.3,75.51Zm-.43.73.11-.07a1,1,0,0,1,.2.56Zm-1.6,1.46c-.1-.16,0-.22,0-.22l.21.32C166.37,77.87,166.27,77.48,166.27,77.7Zm.54-.56c0-.23.21-.14.42.19,0,.23-.22.14-.22.37C166.8,77.37,166.91,77.3,166.81,77.14Zm3.07-1.25c-.1-.17,0,0,0-.23C170.09,76,170,75.82,169.88,75.89ZM192,77c.11.16-.21.13-.32,0C191.89,77.11,191.69,76.54,192,77Zm-.43,0s.32.26.21.33c-.31-.5-.11.06-.31-.27C191.36,77,191.57,77.08,191.57,77.08ZM191,77l.11.16s0,.24-.22-.09C191.15,77.11,190.94,76.78,191,77Zm3.05-3.53c-.18-.28-.05-.22-.16-.45.16.18.35.42.16,0l.32.5Zm3.1-.11s0,.23-.22-.1c0,0-.1-.16,0-.23Zm-.75-.23c.83,1.32-.21.14-.22.37C195.8,72.8,196.54,73.48,196.44,73.08Zm-.76.48-.1.07c-.11.07-.11.07,0,.23l.11-.07c.32.5.1.4.1.4.21.33.21.56,0,.23-.11-.16.1.17,0-.23-.11.3-.42,0-.32.2-.21-.32-.21-.09-.32-.26-.41-.89,0-.7.12-.76.1.16.21.33.32.26l-.31-.5C195.58,73.63,195.27,72.9,195.68,73.56Zm.34-.9c-.11.07.1.16,0,.23-.11-.16-.31-.49-.42-.43v.24c-.31-.5-.31-.26-.52-.59.21.09-.1-.4,0-.47A5.3,5.3,0,0,0,196,72.66Zm-2.25.26c0-.13,0-.08.12,0s.15.45-.12.22-.31-.49-.2-.56Zm-16.25,8.87c.21.09.21-.14.32,0-.11.07.09.4,0,.24,0,0-.1-.17-.21-.1Zm-5.43,1.15s0,0,0,0,0,0,0,0Zm9.54-9.64h0c0-.23.11-.07.22-.14h0Zm-.06,0-.12.08c0-.15,0-.24.07-.29A.31.31,0,0,1,181.57,73.33Zm17-3.4c0-.23.32-.2.64.06,0-.24-.1-.4,0-.47l.31.5c-.11.3-.44.74-1.18,0C198.31,69.83,198.21,69.67,198.52,69.93ZM206,66.57c0,.23-.1.07-.11.3l-.31-.49C205.83,66.47,205.84,66.24,206,66.57Zm.52,1.06c-.1-.17-.11.07-.32-.26C206.35,67.3,206.25,67.13,206.56,67.63Zm-17.47-.19.2.33c-.1.06-.31-.26-.41-.43,0-.46.31-.2.63-.17.21.33.1.39.31.72C189.3,67.31,189.7,68.42,189.09,67.44Zm1.59-1c.21.33.31.49,0,.23Zm10.21-6c0,.23-.21.13-.42,0s-.21-.32-.42-.65c-.2-.1.11.39.11.39-.21-.32-.31-.49-.42-.65.21.1,0-.23-.09-.63C200.16,59.54,200.38,59.18,200.89,60.46ZM180.17,71.23a.55.55,0,0,1-.52.1c-.1-.39.32-.2.11-.76.11-.07.43,0,.22-.36.32,0,.52.35.83.84C180.7,71.35,180.59,71.65,180.17,71.23Zm-11.84,8.42a1.25,1.25,0,0,0,.12.34s-.1-.17-.21-.33,0-.23,0-.23a.84.84,0,0,1,.07.19l-.08,0C168.32,79.79,168.3,79.72,168.33,79.65Zm-.18-1.07c.22.09.21.32.42.65C168.36,79.13,168.26,78.74,168.15,78.58Zm-.09-.4a.17.17,0,0,1-.21.11C167.93,78.2,167.86,77.87,168.06,78.18Zm16.49-10.86c0,.47-.32.44-.53.57a1.43,1.43,0,0,0-.2-.56l.1.16C184,67.43,183.83,66.18,184.55,67.32Zm-16,10.06-.1-.16C168.39,77.06,168.7,77.32,168.59,77.38Zm-1.27.58c.1.16.21-.14.42,0s0,.23.1.37c-.11,0-.18,0,0,.26-.11.06-.21-.1-.31-.27.1.4-.32.21-.12.53a1,1,0,0,1-.41-.42c.1-.07.11-.3.32-.2l-.11-.16c-.1-.17.11-.07.21.09Zm-.42,0c.1.39-.11.29-.22.59.1.16.21-.13.31,0,.11.39,0,.69-.32.43C166.68,78.59,166.58,78.2,166.9,78Zm-.65,1.32-.11-.16c.11-.07.21.09.21.09C166.46,79.42,166.35,79.25,166.25,79.32Zm-1.71,1.3c-.1-.16-.1-.39.11-.06C164.54,80.62,164.65,80.79,164.54,80.62Zm1.06-.44c.1.17,0,0,.21.1l.32-.2a.46.46,0,0,0-.1-.4c-.2-.32-.11.07-.31-.25.1.16,0-.24,0-.24.21.33.52.36.62.76,0,0-.31-.27-.1.06.1.16,0,0-.11.07,0,.46-.21.36-.32.66-.11-.16-.21-.56-.21-.33C165.39,80.32,165.6,80.18,165.6,80.18Zm-.44,1.42-.11.07a1,1,0,0,0-.2-.56c.11-.06.11-.06.11-.29a.85.85,0,0,0,.1.39c.1.17-.1-.16.11-.07.2.56-.11.3.09.63Zm.31.27c.21.32-.21.13-.11.29C165.05,81.67,165.37,81.93,165.47,81.87Zm11.81-7a1.61,1.61,0,0,1-.31-.72c.21-.13.42,0,.43-.5-.62-.75-.33.67-1-.09.22-.13.33-.66.54-.79a1.41,1.41,0,0,1,.31.72c.25.21.33.17.51.39,0,.17-.18.14.11.59C177.7,74.61,177.39,74.58,177.28,74.88Zm7.87-4.73c-.21-.33-.21-.33-.1-.39-.21-.33-.11.06-.42-.43.11-.07.21.1.42.2C185.15,69.92,185.46,70.41,185.15,70.15ZM174.28,83.59c.11-.07.33-.2.32,0C174.5,83.46,174.6,83.85,174.28,83.59Zm1.94-1s.21.33.21.1C176.74,83.19,176.42,83.17,176.22,82.6Zm.63.53c-.1-.4-.2-.33-.31-.5.11-.07.21.1.22-.14.1.17.31.5.2.57ZM183,80.18l.21.33c0,.24-.32,0-.11.54-.21-.33-.22-.1-.32-.26l-.1-.17c0-.23.11-.07-.1-.4C182.87,80.49,182.88,80.25,183,80.18ZM181,81.41c0,.23-.11.3-.32,0C180.94,81.47,180.83,81.31,181,81.41Zm-2.11,1-.36-.17c.21.33,0,.23-.1.07,0,0,.1-.07,0-.23-.31-.5-.32,0-.53-.36.11.16-.1-.4.11-.07l.11.16c-.11-.16,0-.23-.32-.49a.88.88,0,0,0-.07-.12c.1,0,.18-.08.26-.11s.07.15.13.26l.22-.14.31.5s-.21-.1-.11.07.22.09.32.26.21.33.1.4l-.21-.33A.67.67,0,0,0,178.93,82.44Zm4.17-2.79c-.1-.17,0,.23-.21-.1.11-.07.11-.07,0-.23C183,79.48,183.21,79.58,183.1,79.65Zm-.86.31c0-.46.33-.2.54-.34l.1.16C182.77,79.85,182.56,80.22,182.24,80Zm-2.68.54c.21.33.21.33.11.39l-.21-.33C179.77,80.83,179.67,80.66,179.56,80.5Zm-.22.6c.11-.07,0-.24.11-.3l.21.33c-.11.06-.32,0-.22.36,0,0-.1-.16-.11.07.32.26.11-.3.54.13-.11.07-.12.3-.33.2l-.21-.33c-.31-.49-.1-.4-.2-.56s-.13,0-.13,0a.67.67,0,0,1-.08-.33h0l0-.09h0s0,.07,0,.09.21.1.21.1l-.17-.28a1.49,1.49,0,0,0,.14-.12s0,0,.06,0l.19.29C179.24,80.7,179.13,80.77,179.34,81.1Zm7.33-4.62c.22-.14.33-.21.54-.11-.23.6-.87.54-1,.84C186,76.65,186.46,76.61,186.67,76.48Zm.76-.48c.22-.37.64-.17.86-.31l.1.16C188.07,75.83,188.05,76.76,187.43,76Zm-2.83,2.93c.11-.07.12-.3.32,0,.11.17-.1.07,0,.23C184.82,79,184.81,79.26,184.6,78.93Zm1.28.58c-.11-.16,0,0,0,.24a.92.92,0,0,0-.42-.43c0-.23,0-.23.11-.3.32.49,0,0,.22.09-.11-.16-.32-.26-.31-.49.08.13.26.2.34.33s.11.23,0,.16C185.77,79.35,186,79.44,185.88,79.51Zm.34-1.36.21.09c-.11.07.2.57-.11.07Zm4.63-2.69.31.49c-.31-.49-.2-.56-.2-.56a.29.29,0,0,1,.17.19c0-.1-.13-.22-.06-.26l.31.49c0,.24-.11.07-.32.21a.39.39,0,0,1-.43,0c.31.49,0,.69-.33.43-.31-.49.21.1-.1-.4l.11.17c-.21-.33-.21-.33-.11-.4a1,1,0,0,0,.65-.17l.21.33C190.85,75.69,190.75,75.52,190.85,75.46Zm-2,1.52c-.21-.1-.11.53-.54.11.11-.07.43.19.22-.14-.11.07-.21-.1-.21-.1-.1-.16,0-.23.1-.06a.32.32,0,0,0-.08-.23C188.5,76.79,188.63,76.71,188.8,77Zm-3.11,1s.31.26.21.33l-.21-.33c-.32-.26-.32,0-.64-.29.11-.07.32,0,.43,0l.1.16c.12-.3.32,0,.53.13-.1.07-.32,0-.53-.13Zm5.5-3.93c.21.33,0,.23-.1.06-.22.14-.12.54-.34.67-.53.34-1,.38-1.61.79-.31-.49-.21-.1-.42-.43-.1-.16,0-.23-.31-.49l-.09-.14a2.46,2.46,0,0,0,.27-.17.12.12,0,0,0,.12-.07l.06,0c.22.17.18.08.09-.06h0a.91.91,0,0,0,.4.4c.11-.3.64.06.75-.24a.94.94,0,0,1,.41.43c-.1-.17.12-.07,0-.24-.1-.4-.32-.26-.31-.49l-.1-.17A3,3,0,0,0,191.19,74.09Zm.88-1.48c.11.17,0,0-.21-.1C191.76,72.12,192,72.45,192.07,72.61ZM194,71.39c.22.09.11-.07.43.19,0,.23,0,.23-.12.3C194.22,71.72,194,71.62,194,71.39Zm3.34,0a.67.67,0,0,1-.13-.15c-.2-.56.43-.5.64-.17Zm.41-.72c.11-.07.22-.14-.1-.63l.11-.07.32.49c-.22-.09.09.4.09.63C197.77,70.41,198.28,71.46,197.76,70.64Zm.73,1.15-.21-.33c.1.17.21.33.1.4-.21-.33-.31-.49-.1-.4l-.1-.16c.21.1,0-.24.21-.14l.31.5C198.49,71.56,198.6,71.72,198.49,71.79Zm-.87,1-.11-.16c.32.49-.09-.4.32,0C197.94,73.06,197.83,73.13,197.62,72.8Zm.64-.4c.11.16.22.09.32.26S198.16,72.46,198.26,72.4Zm.75,0s-.42-.43-.31-.5l.21.33c-.1-.17-.1-.17,0-.23l.31.49C199.12,72.55,199.12,72.55,199,72.39Z"/><path id="_Path_44" data-name="&lt;Path&gt;" class="cls-3" d="M164.37,77.92a.24.24,0,0,1-.1-.1C164.32,77.91,164.35,77.93,164.37,77.92Z"/></g></g><path id="_Path_45" data-name="&lt;Path&gt;" class="cls-10" d="M142.85,61.35a53.59,53.59,0,0,0,11.59-3.75c3.79-1.59,6.7-7,2.52-10-2.67-2-10-1.56-12.82,0-2,1.1-7.41,5.45-7.36,7.9-.79-1.87-2.76-3.84-4.09-5.51-1.79-2.28-3.35-3.51-6.55-2.1-4.85,2.14-5.16,10-4.41,14.32,1.07,6.26,4.11,11.26,10.83,12.78,5,1.13,11.32.65,16.45-.66a17.77,17.77,0,0,0-2-6.82,44.54,44.54,0,0,0-3.74-6.62Z"/><path id="_Path_46" data-name="&lt;Path&gt;" class="cls-16" d="M118.64,312.92c1.34-9.34,18.17-17.48,30.07-12A23.73,23.73,0,1,1,128.84,344C117,338.52,111.36,323.56,118.64,312.92Z"/><path id="_Path_47" data-name="&lt;Path&gt;" class="cls-2" d="M121.16,306.19c1.51-3.59,1.06-11-5-10.66-2.1,1,2.75,4.81,1.45,6.81-2.41-2.36-5.28-3.85-8.27-2.44.86,5,3,4.52,5.45,6,2.26,1.39-5.59,3.3-3.46,5.78,3.05,1.58,9.37-2.39,9.84-5.51Z"/><path id="_Path_48" data-name="&lt;Path&gt;" class="cls-10" d="M132.43,277.42a52.93,52.93,0,0,0,11.1,5c3.87,1.35,9.62-.69,8.59-5.79-.66-3.24-6.37-7.83-9.5-8.58-2.22-.53-9.13-.9-10.74,1,.67-1.92.52-4.7.66-6.83.19-2.9-.14-4.86-3.46-5.95-5-1.65-10.49,4-12.86,7.72-3.39,5.37-4.48,11.11-.51,16.75,2.93,4.16,8,8,12.64,10.49a17.91,17.91,0,0,0,3-6.45,45.07,45.07,0,0,0,1.66-7.42Z"/><path id="_Path_49" data-name="&lt;Path&gt;" class="cls-7" d="M266.13,294.66c-19.24-.75-38.46.31-45.94,4.1S204.6,317,209.78,325.23s9.35,15.77,25.3,12.4c20.63-4.35,31.44-27.22,35.37-32.68s17.09-11.73,22.54-12.08,8.72-6.57,4.45-6.86.71-10.67-6.6-8.3S276.06,295.05,266.13,294.66Z"/><path id="_Path_50" data-name="&lt;Path&gt;" class="cls-17" d="M68.31,114.38c-2.42-2.22-8.42-4-9.89.92.21,2,4.59-.8,5.81.81-2.56,1.23-4.56,3.09-4.3,5.87,4.25.75,4.46-1.11,6.34-2.62s1,5.39,3.6,4.41c2.13-2,.79-8.12-1.56-9.39Z"/><path id="_Path_51" data-name="&lt;Path&gt;" class="cls-16" d="M236.67,75.42c-3.68-5.68-2.79-12.88,8.39-16.59,16.2-5.37,72.9,3.32,72.29,25.41-.2,7.27-15.85-5.1-44.38-7.19-13.84-1-23.57,6.61-28.55,5-2.59-.83-3.43-3.14-5.81-3.19-3-.06-4.6,3.36-8.52,2-.1-1.24-.76-2,0-3.18,1.15-1.79,7.12-5,8.29-2.92Z"/><path id="_Path_52" data-name="&lt;Path&gt;" class="cls-4" d="M140.05,30.17c-4.51-3.24-5.59-8.88,2.83-14.74,12.2-8.5,61.82-17.65,66.89-.93,1.67,5.5-14.55.56-38.94,6.87C159,24.43,152.78,32.83,148.21,33,145.84,33.12,140.05,30.17,140.05,30.17Z"/><path id="_Path_53" data-name="&lt;Path&gt;" class="cls-2" d="M133.85,26.08c-2.1-2.07-7.44-3.84-8.92.53.13,1.76,4.16-.58,5.2.9-2.34,1-4.19,2.63-4,5.14,3.79.81,4-.86,5.77-2.15s.75,4.87,3.1,4.06c2-1.7,1-7.27-1.11-8.48Z"/></g></svg>