<svg id="_ÎÓÈ_1" data-name="—ÎÓÈ_1" xmlns="http://www.w3.org/2000/svg" viewBox="0 0 350 350"><defs><style>.cls-1{fill:#f36543;}.cls-2{fill:#299351;}.cls-3{fill:#f29654;}.cls-4{fill:#ebd71c;}.cls-5{fill:#71b6db;}.cls-6{fill:#c16344;}.cls-7{fill:#f46661;}.cls-8{fill:#dfa558;}.cls-9{fill:#d88c6e;}.cls-10{fill:#f1cd7d;}.cls-11{fill:#d1de3d;}.cls-12{fill:#d6a1c6;}.cls-13{fill:#fda94e;}.cls-14{fill:#f88aa9;}.cls-15{fill:#d24a43;}.cls-16{fill:#fbdb4a;}</style></defs><title>Artboard 3</title><path id="_Path_" data-name="&lt;Path&gt;" class="cls-1" d="M59.88,159.59c5.51-1.71,13.08-3.3,15.74-9,3.27-7-6.37-23.87-13.53-28.43-2.73-1.74-11.69-13.78-18.42-11.66C32.48,114,31,133,30.9,141.38c-.22,19.92,5.65,25.29,26.39,19Z"/><path id="_Path_2" data-name="&lt;Path&gt;" class="cls-2" d="M60.81,163.19c-4.81.87-12.31,6.41-7.8,12.59,2.52,1.51,3.18-6.19,6.19-6.19-.84,4.15-.44,8.2,3.1,10.39,4.72-4.37,2.69-6.29,2.6-9.88-.08-3.34,7.33,3.63,8.47-.31-.42-4.3-8.94-8.25-12.56-6.6Z"/><path id="_Path_3" data-name="&lt;Path&gt;" class="cls-2" d="M229.54,232a17.7,17.7,0,0,1,1.32,2.11,5.09,5.09,0,0,0,.69,1.17c0,.27.42.63.45.9l0-.06c0,.28.2.32.13.44a3.29,3.29,0,0,1,.42.63c.45.57,1,1.31,1.5,1.82.24.26.35.42.59.68,0,0,0-.06.14.1a6,6,0,0,1,.74.77,13.9,13.9,0,0,0,1.64,1.92c.2.31.44.25.66.23l.31-.8a19.55,19.55,0,0,0-1.77-5l0-.06a28.55,28.55,0,0,0-2.27-4.81s-.14-.1-.07-.22c-.28-.2-.44-.91-.73-1.11a33.84,33.84,0,0,0-2-3l0,.06c.11-.18-.93-.58-1-.73s-1.39-1.67-2.09-1.48.1,3,.1,3C228.58,228.84,228.76,230.5,229.54,232Z"/><path id="_Path_4" data-name="&lt;Path&gt;" class="cls-2" d="M228.82,252.86a7.12,7.12,0,0,0,1.57-1.11,2.08,2.08,0,0,1,.84-.65c.08-.28.49-.31.57-.59l0,.1c.08-.27.25-.15.2-.35.15,0,.37-.24.49-.31a10.68,10.68,0,0,1,1.68-.63c.27-.06.39-.13.66-.19,0,0,0,.1.14,0a2.44,2.44,0,0,0,.8-.17c.66-.2,1.25-.69,1.82-.61.24-.15.45.15.63.37l.13,1.17a11.23,11.23,0,0,1-2.51,3.85l0,.1c-.89,1-1.8,2.6-2.92,3.21,0,0-.15,0-.1.17-.29,0-.57.59-.86.55a13.08,13.08,0,0,1-2.33,1.49l0-.1c.07.29-.93-.22-1.05-.15s-1.56.54-2.14-.31.64-3.17.64-3.17C227.37,255.49,227.84,253.83,228.82,252.86Z"/><path id="_Path_5" data-name="&lt;Path&gt;" class="cls-2" d="M224.48,245.14a7,7,0,0,1,2.16.57,2,2,0,0,0,1.16.38c.17.3.67.13.83.43v-.13c.17.3.33.07.34.33.16-.09.49.1.66.14a11.91,11.91,0,0,0,2.15-.09c.33-.07.5,0,.83-.1,0,0,0-.13.16-.1a2.74,2.74,0,0,1,1-.2c.82-.09,1.66.21,2.32-.18.32.06.48-.41.64-.78l-.16-1.52c-1.17-2-2.67-2.55-4-3.48v-.14c-1.33-.81-2.83-2.31-4.32-2.48,0,0-.17.1-.17-.17-.33.2-.83-.43-1.16-.24a13.16,13.16,0,0,0-3.15-.64v.13c0-.4-1.05.76-1.21.73,0,0-2,.12-2.44,1.48s1.61,3.61,1.61,3.61C222.06,242.62,223.07,244.44,224.48,245.14Z"/><path id="_Path_6" data-name="&lt;Path&gt;" class="cls-3" d="M298.41,242.84s0,0,0,0h0Z"/><path id="_Compound_Path_" data-name="&lt;Compound Path&gt;" class="cls-3" d="M265.35,235s-6.51-.59-6.52-.5a3.67,3.67,0,0,0-1.46.19c-.72-.59-1.5.52-2.12.12,0,.33-.11,0-.22,0,0,.16,0,.33-.14.32-2.3-.41-5.06-.69-7.4.43,0,.11-.41.35-.93.61a3,3,0,0,0-1.88.91c-1.37.54-1.3.92-2.61,2-.42-.21-.86.92-1.26,1.55l-.31,3c.14,4.22.21,5.47,2,7.17,0,.17,2.83,2.09,2.8,2.42,2,1.56,4.75,1.84,7.05,1.91.11,0,.09.18.07.35.11,0,.25-.32.22,0,.68-.27,1.21,1,2,.54a3.49,3.49,0,0,0,1.37.48c0,.09,6.39.83,6.39.83a1,1,0,0,0,0-.17c.11,0,.11,0,.24-.14,0,.33,0,.17.07.34.92-.41,1.92.54,3,0,0,.17,0,.34.09.18.47-.29,1.07.28,1.54,0v-.17c.1.18.22,0,.24-.14.15.69.67-.1,1,.27.47-.29.83.42,1.44-.19.22,0,.35-.14.6-.45,0,.85.52.23.81.59.29-.64.29.37.56-.11l0-.33s.06.51.12-.16c.22,0,.35.88.53.23l0,.33c0-.17.05-.5.16-.49l0,.33c.11,0,.2.19.32,0,0,.33.22,0,.24-.15.47.73,1.28-.71,1.5.33,0-.17.05-.5.05-.5,0,.67.37.71.62.4.31.2.54.05.79-.26,0,.5.2.19.19.36.17-.66.21,0,.37-.47.11,0,.08.34.08.34.12-.15,0-.33,0-.5.07.35.2.19.27-.47.18.35.25-.31.39-.64.05-.5-.09-.17.05-.5,0,0,.22,0,.38-.46-.22,0-.4-.38-.65-.07-.06-.51-.22,0-.18-.36.12-.15.37-.46.57-.27l0-.34c.08.35.35-.13.5.56,0,.16-.16.49-.13.15-.16,1.5-.39,1.65-.49,2.65-.06-.51,0,.17-.14.32.18.36.48-.45.65.07.12-.16.28-.65.39-.63s0-.17,0-.34c.11,0,.08.35.19.36-.06.5-.11,0-.14.32s.34-.13.66-.1c0,.68.31.2.44,0,.05.51.34-.14.41.21l.16-.49c0,.33.2.19.22,0,.11,0,.09.18.08.35,0-.34,0-.17.1,0-.07-.35,0,0,.16-.49.06.51.27-.48.2.19.06-.5.14-.33.29-.65-.2-.19-.35.13-.43,0,.12-.16,0-.17,0-.34-.11,0-.18-.35-.23.15,0,0,.05-.5-.08-.35.14-.32.25-.31.34-.13l0-.17c0-.33-.11,0-.09-.18.18-.65.31.21.59-.44-.2-.19-.32,0-.56.11s0,.17-.14.32,0-.33,0-.5c-.14.33-.09-.18-.21,0,0-.17-.1-.18.05-.5,0,.17,0,.33-.05.5.28-.64.37-.47.72-.6-.06-.51-.46.12-.53-.22s0,0,0-.34a.9.9,0,0,0,.67-.1c0,.17,0,.17-.05.51.09.17.11,0,.22,0,.09.18.06.51.18.35a2.66,2.66,0,0,1-.18.66c-.07.67-.08.83,0,1,.12-.15-.11,0,0-.33a1.44,1.44,0,0,1,0,.68c-.06-.52-.27.47-.32,0,0,.17-.09.84-.2.83.07.34.11,0,.13-.16.09.18,0,0,.11,0l-.05.5c.14-.32.3.2.46-.29.08.35.09.18.31.2l0-.33c.1.18.17.52.44,0a.85.85,0,0,0,1.32,0c.07.35.29.37.56-.11,0,.17,0,0,.1,0l0-.17c.22,0,.55.06.67-.09l-.05.5s.16-.49.23-.15c0,0,.11,0,.13-.15.09.17.07.34.18.35,0-.17.14-.32.16-.49-.05.5.26.7.31.2-.05.5.2.19.22,0,.32,0,.52.23.65.07l0,.17s.11,0,.12-.16c.12,0,.1.18.2.19,0-.33.24-.14.22,0,.15-.32.38-.46.74-.76l0-.17c.11,0,.09.18.21,0l-.05.5c0-.16-.11,0-.12.16s.3.2.55-.11L289,257c.11,0,.36-.3.32,0,.29-.65.37-.3.6-.45-.11,0,.07-.66.16-.49,0-.33-.18-.35-.22,0-.1,0,0-.5-.07-.34,0-.17,0-.34.12-.16l.05-.5c-.14.32-.23.15-.34.13l0-.16c.18-.66.32,0,.36-.3-.11,0-.31-.2-.43-.05-.09-.17-.22,0-.22,0l0,.33c-.14.33-.26.48-.2-.19,0,.17.12,0,.13-.15-.07-.35-.34.13-.29-.37a7.78,7.78,0,0,1,1.05-.56c.15-.49.39-.64.6-.62-.14.33-.25.32-.25.32l0,.5c.13-.16.2.18.31.2,0,.33-.16.49-.19.82-.06.5-.07.67-.14,1.33,0-.16,0,.17-.13.16.08.34.22,0,.31.2s-.11,0-.14.32c.22,0,.43.05.72-.6a.83.83,0,0,1,.05.51,1.08,1.08,0,0,1,.27-.47l0,.33c.2.19.45-.12.63.23.15-.32.24-.14.27-.48.13-.15,0,.17.09.18l0-.16c.07.34.24-.15.45-.13,0,.34-.14.33-.14.33.06.51.39-.64.43,0,0-.17,0-.33.13-.15,0-.17-.09-.18-.08-.35.11,0,.17.52.33,0l0,.34c.2.19.5-.62.7-.44,0,.34-.13.16-.15.33s.11,0,.33,0c.46-1.3.58.73,1-.07l.1.18c0-.12,0-.24.06-.35a.62.62,0,0,1,0,.36c0-.33.25-.31.24-.14.11,0,.14-.32.23-.15h-.11c.2.19.36-.3.58-.27,0,.16,0,.33-.13.15.08.35.22,0,.24-.14,0,.05,0,.11,0,.16s.22,0,.25-.31c.19.36.49.56.65.07,0,.17.09.18.07.34.15-.32.33,0,.47-.28.22,0,.42.21.69-.27l.08.34c0-.33.21,0,.25-.31.1,0,.09.18.09.18.25-.31.54.06.68-.27.11,0,.11,0,.09.18,0-.33.13-.15.18-.65.11,0,.11,0,.09.17.11,0,.13-.15.24-.14s0-.33,0-.5c.1,0,.05.51.15.69,0-.17.12-.16.14-.32,0,.16.09.17.2.19.23-.15.78-.09,1.12-.23l0,.34a2.45,2.45,0,0,0,1-.57c-.1-.18,0-.33.05-.5s.09.18.07.35c.11,0,.13-.16.13-.16h-.11c0-.17,0-.34,0-.5a.45.45,0,0,1,.08.34c.1,0,0-.16,0-.33s.11,0,.14-.32c.1.18.13-.16.25-.31,0,.16.11,0,.08.34.11,0,.12-.16.22,0l0,.17c.11,0,0-.33,0-.33s0,.16.09.17l.05-.5c0,.17-.14.33-.23.15,0,0,.11,0,.13-.16-.11,0-.15.32-.24.15.06-.5.34-.14.38-.47,0,.17-.09-.18-.18-.36.14-.32.21,0,.2.19,0-.16.09.18.09.18,0-.33,0-.33.05-.5,0,.17.22,0,.14-.32.1.18.22,0,.2.19-.2-.19-.16.49-.25.31,0,.33,0,.33-.05.5,0-.17.05-.5.27-.48-.14.32,0,.17.09.18l0,.17s0,.33-.14.32c0,.17.09.18.09.18,0,.16-.23.14-.25.31,0-.34,0,0,.12-.16-.1,0-.18-.35-.3-.2s.09.18.09.18l0,.33c0,.17.1.18.08.35,0,0,0-.17.1,0a1.19,1.19,0,0,1,.29-.65c0-.16-.11,0-.07-.34.1,0,.2.19.32,0,0,.07,0,.12,0,.17,0,.33-.12.16-.23.14,0,.34.18.36.31.2.07.14.23-.09.3-.08a.37.37,0,0,1-.05-.23c.11,0,.13-.15.14-.32.11,0,0-.17.13-.15,0-.17,0-.34.14-.33-.12-.11-.22-.06-.32,0a.31.31,0,0,1,0,.33l0-.33c-.07,0-.14.05-.22,0,0,.15.06.18.07.31a.53.53,0,0,1-.55.14,1.83,1.83,0,0,0,.19-.82c0,.17.11,0,.11,0l.18.36,0-.34c.1,0,.1,0,.12-.15.11,0,.09.18.09.18v.16s.1,0,.12-.15,0,0,0-.34a3.76,3.76,0,0,0,.25-.31c0,.34.08.35,0,.68.34-.13.46-.29.55-.11.11,0,0-.17.13-.16l-.33,0c0-.33.24-.14.26-.31a.64.64,0,0,0,.07.34c0,.34.09.18.11,0,.11,0,0,.33.09.17.11,0,.29-.64.36-.3a.3.3,0,0,0,0-.33c.13-.16.15-.32.24-.14,0-.17-.09-.18-.07-.35v-.17c.11,0,.09.18.07.35,0-.34.13-.16.15-.32s-.09-.18-.09-.18l0-.34c.09.18.33,0,.36-.3,0,.17.09.18.07.35-.1,0-.21,0-.14.32l0-.16c0,.16.12-.16.11,0,.13-.16,0-.17,0-.34.08.35.1.18.13-.15.11,0,.07.34.07.34l0-.17c.11,0,0-.16.13-.15s.12-.16.09.18l0-.34c.11,0,0,.17.08.35l0-.33,0-.17s.09.18.1,0c.11,0,0,.17,0,.17,0,.16.12-.16.09.17,0,0,0-.33,0-.16.1,0,0,0,0-.17.11,0,.24-.14.2.19,0,0,0-.17.11,0l0-.17s.14-.32.21,0c0-.17.15-.33.24-.15-.09-.18,0-.16.13-.15a.68.68,0,0,1,.17-.66c0-.17.15-.32.13-.15.12-.16,0-.51.16-.49,0-.17,0-.17-.09-.18,0-.17.12-.16.12-.16,0-.16-.09-.18-.07-.34.11,0,0-.17,0-.34,0,.17-.09-.17-.12.16l-.09-.18c-.33,0-.67.1-.93-.6-.05,0-.11,0-.12.16v-.17c-.09-.18-.11,0-.12.16-.06-.52-.19-.36-.42-.22l0-.16c-.33,0-.53-.23-.85-.26-.11,0-.13.16-.13.16-.12.15-.11,0-.21,0,0-.16,0-.16-.1-.17v.16c-.6-.57-1.16-.45-1.91-.7v.17s-.06,0-.09-.08a.29.29,0,0,1,.07-.23,2.51,2.51,0,0,0-.93-.78l0,.34c-.31-.2-.86-.26-1.07-.45-.1,0-.22,0-.23.15,0-.17-.09-.18-.08-.35-.11.13-.16.46-.24.57h0l.05-.43c-.12,0-.1-.18-.21-.19,0,.17,0,.17-.13.16.06-.5-.07-.35,0-.68,0,.16,0,.16-.13.15-.08-.34-.44,0-.63-.4,0,0,0,.17-.12.16,0-.34-.22,0-.19-.36L301,244c-.16-.53-.4-.38-.62-.4-.07-.35-.33,0-.41-.38,0,.16-.12.15-.14.32-.06-.52-.4-.38-.66-.07,0-.33-.06-.51-.18-.36,0,.06,0,.11,0,.17,0-.17-.06-.51-.2-.19.12-.16.11,0,.09.18-.19,0-.27-.38-.44-.38h-.07s0,0,.06,0-.07-.17-.16-.18c0,.17-.24.14-.2-.19a.74.74,0,0,1-.12.35c0-.12,0-.24,0-.36l-.13.15c-.24-.87-.78,1.11-1-.27-.22,0-.2-.19-.33,0s.11,0,.08.35c-.24.14-.37-.72-.61-.58l0,.34c-.06-.52-.21,0-.33,0,0-.17.13-.16.15-.33-.13.16-.11,0-.1-.18-.17.66-.27-.54-.44,0,0,0,.12,0,.08.34-.22,0-.28-.53-.42-.21l0-.17c-.11,0,0,.34-.13.16,0-.34-.09-.18-.17-.53-.25.32-.44,0-.68.1l0,.34a1,1,0,0,1-.17-.53.82.82,0,0,1-.16.49c-.15-.69-.37-.71-.59-.74,0,.34.11,0,.07.35-.12.16-.2-.19-.34.14.11,0,.07.34.09.17-.07.68-.09.85-.14,1.35a5,5,0,0,0,0,.68,2,2,0,0,0-.94-.12c-.11,0-.13.15-.13.15a1.62,1.62,0,0,1-.19,0,1.75,1.75,0,0,0-.35-.32c.05-.51.22,0,.37-.31,0-.16-.08-.34-.1-.18.07-.67.17-.49.24-.14l0,.34s.1.17.22,0c.1.18.34,0,.44,0,0-.33-.25.32-.29-.37l0-.17c.11,0,.24-.14.31.21l.05-.51c-.12.16-.11,0-.09-.18.09.18,0-.33.14-.32,0,.33.19.36.22,0-.12.16-.17-.53-.05-.52-.21-.19-.35.14-.5-.56,0,.34-.22,0-.33,0l.09.18c-.19-.36-.41-.38-.53-.23s.07.35.09.18l0,.51c-.09-.18-.11,0-.22,0s0-.09,0-.16a2.23,2.23,0,0,1-.58-.91c0,.17-.25.31-.22,0-.1,0-.12.15-.23.14,0-.17-.09-.18-.09-.18l0,.17c-.1-.18-.33,0-.66-.07,0-.17-.17-.53-.22,0,.05-.51-.3-.37-.35.13,0-.16-.07-.34-.06-.51-.11,0-.13.15-.25.31,0-.17-.1-.18-.1-.18-.14.33-.2-.19-.2-.19l-.05.51c-.09-.18-.42-.22-.64-.24V240c-.1,0-.09-.18-.1,0-.17-.53-.39-.55-.54-.23a.86.86,0,0,0-1.3-.3c-.17-.53-.31-.2-.44-.05l0-.33c-.22,0-.21-.19-.35.13-.06-.51-.33,0-.4-.38l-.06.51c-.11,0,0-.17-.11,0,0-.16.05-.5-.09-.18.11,0,0,.69,0,.86.17-.5.17.52.33,0a1.31,1.31,0,0,1-.18.66c-.07-.34.13-.15,0-.33-.13.15-.15.32-.21,1a2.53,2.53,0,0,1,0,.69c-.09-.18-.12.16-.25.31-.11,0-.09-.18-.22,0l-.05.5a1,1,0,0,0-.48-.2s0,0,0,0l0,0a.37.37,0,0,0-.12,0c0-.34-.11,0,0-.34s.4.38.57-.11c-.32-.2-.44-.05-.59-.74l0,.5c-.08-.34,0-.33,0-.5.09.18.14-.33.22,0,0-.17.05-.5.05-.5.09.18,0,.33.07.34.21.2.3.38.54.23-.15-.7-.46.12-.5-.56,0-.17.09.18.13-.16l0-.17c-.13.16-.24.15-.32-.2.1.18.15-.32.15-.32-.05.5.09.18.2.19,0-.17.12-.16,0-.34.13-.16.21.19.44.05-.07-.35-.2-.19-.15-.7-.07.67-.07-.35-.23.15-.06-.52-.21-.19-.06-.52-.13.16-.15.33-.11,0,0,.17,0,.34-.15.32s-.18-.36-.22,0l-.05-.51c-.15.32-.3-.38-.46.12-.1-.18-.26-.71-.44,0-.33,0-.52-.39-.64-.23,0,.33.12-.16.07.34-.11,0-.14.33-.25.32,0-.17.14-.33,0-.34s-.17-.53-.26-.71c-.27.49-.4-.38-.66-.06.09.18-.08.84.08.34-.11,1,.09,1.2-.06,2.72,0-.34.11,0,.09.18-.29.65-.45.12-.6.45l0-.34c-.23.14-.42-.21-.51-.39,0-.34.09.18.26-.32.18.36.44.05.66.07-.06-.52-.28-.54-.28-.54-.08-.35,0,0,.05-.5-.08-.35,0-1-.26-.71.07-.67,0-.85-.17-.53,0-.16.14-.32.05-.5,0,0,0,.34-.14.32-.06-.51-.24.15-.28-.53,0,.16-.2-.2-.25.31-.19-.36-.39-.55-.74-.42-.19-.36-.51-.39-.69.27l.05-.5c-.43,1-.94-.61-1.56,0,0-.17-.17-.53-.2-.19-.09-.18-.22,0-.33,0s0,.17,0,.34c-.12,0-.08-.35-.06-.52l0,.34c0-.69-.34.13-.56.11.07-.67-.1-.18-.1-.18l0-.34c-.17-.52-.38.47-.53-.22-.37.3-.74-.42-.93.41-.19-.36-.28-.54-.5-.56-.48-.73-1-.1-1.4-.48-.36.3-.72-.59-1,.06,0-.16-.07-.34-.2-.19l0-.16c-.41-.39-1.12,0-1.52-.33-.09-.18-.11,0-.13.16-.92-.78-2.11-.05-2.93-.65-.13.16-.11,0-.15.33-.09-.18-.09-.18-.2-.19Zm12.16,20.66,0,.17c0,.33-.14.32-.21,0C277.44,255.33,277.46,256.17,277.51,255.67Zm-.81.42c0-.16.13-.15.14-.32C277,255.78,276.79,256.27,276.7,256.09Zm-.44,0c0,.17,0,.17-.12.16,0-.34,0-.34.05-.51.11,0,.11,0,.09.18l0-.33C276.43,255.56,276.26,256.05,276.26,256.05Zm-7.44-1.11c0,.34-.13.16-.15.33C268.72,254.77,268.71,254.93,268.82,254.94Zm6.24-1c.11,0,.09.18.19.36.14-.32.37-.47.46-.29.14-.32.13-.16.22,0-.3.81-.72.6-.92.41Zm-6.39.35c0-.33.12-.15.25-.31l-.05.5C268.78,254.27,268.76,254.43,268.67,254.25Zm7.83.64,0,.17c.12-.16.1,0,.07.34-.11,0-.09-.17-.07-.34l0,.33c-.11,0-.09-.17-.21,0,0-.17,0-.33,0-.5S276.37,255.05,276.5,254.89Zm.7-.43a1.23,1.23,0,0,1,0,.16l-.52-.05C276.67,254.24,277.14,254,277.2,254.46Zm-.8-.76c0,.5.05.51.16.53-.08.83-.09-.18-.16.48-.09-.17,0-.67-.16-.52l.05-.5Zm1.62,2.36c0-.17,0-.17,0-.33.11,0,.1.18.1.18C278.11,256.24,278,256.06,278,256.06Zm.48-.45c.08.34.38-.47.31.2C278.72,255.63,278.37,256.94,278.5,255.61Zm.87.08c.11,0,.13-.15.15-.32.1,0,.35-.3.38.55,0,.16-.11,0-.15.32,0-.17-.12.16-.32,0,.07.34.11,0,.09.17,0,.34-.12.16-.09-.17,0,0-.13.15-.08-.35h.11c0-.16,0-.16-.09-.18h-.11c.07-.66.11,0,.16-.49C279.4,255.36,279.4,255.36,279.37,255.69Zm1.06-.73-.23.15c0-.17,0-.34.05-.5,0,.41.08.15.13-.05C280.39,254.77,280.46,254.69,280.43,255Zm.15-.32c-.13.28-.12,0-.18-.13s.06-.16.09,0,0-.17,0-.33C280.63,254.14,280.61,254.31,280.58,254.64Zm-1.39-.31c0,.33-.13.15-.18.65l-.09-.17c-.11,0-.15.32-.17.48-.1,0,0-.16-.08-.17A4.84,4.84,0,0,0,279,254C279.11,254,279.06,254.48,279.19,254.33Zm.48-.46c-.11,0-.11,0-.2-.19.14-.32.12-.15.25-.31C279.81,253.55,279.69,253.71,279.67,253.87Zm3.74,3.08c0-.5.11,0,.23-.14C283.62,257,283.39,257.12,283.41,257Zm.45-.12c0,.34-.09-.18-.14.32-.11,0,0-.33,0-.33S283.87,256.67,283.86,256.83Zm.36-.3c0,.34-.13.16-.13.16l0-.17C284.13,256.35,284.09,256.69,284.22,256.53Zm-2.55-3c0-.16.06-.5.13-.15C281.67,253.57,281.66,253.74,281.67,253.57Zm4.41,1.6a.26.26,0,0,0,0,.21c0-.17.13-.16.11,0,0,0,0,.16-.13.15,0,.34.11,0,.22,0-.16.49-.33,0-.45.12C285.87,255.41,286,255.42,286.08,255.17Zm2.18.43,0,.17c-.05.5,0,0-.11,0Zm-4.17.08a.35.35,0,0,1-.35.13c-.21,0-.23.14-.32,0,0-.34,0-.34.05-.5.07,0,0,.12,0,.22a.26.26,0,0,1,.06-.21s.11,0,.06.51c0-.17,0-.34.05-.5.1,0,.09.18.05.51l0-.33a.83.83,0,0,0,.56-.12c.11,0,.11,0,.07.35l0-.17c-.05.5.13-.15.07.35C284.36,256.21,284,256.18,284.09,255.68Zm5,.34c.11,0,.11,0,.2.19a.92.92,0,0,0-.16.49c-.09-.18-.07-.34-.09-.18-.11,0,0-.16-.07-.34-.09.11-.09-.08-.09-.11s.12-.26.14-.39c.09.18,0,.33,0,.5C289.09,256,289,256.52,289.09,256Zm.71-.43c0,.33-.13.16-.15.32,0-.16-.1,0-.09-.18C289.6,255.4,289.69,255.58,289.8,255.59Zm-1.18-.29,0,.33c-.1,0,0-.33,0-.33l0-.17c-.13.16-.26.31-.36.3.12-.15.16-.49.36-.3V255c.11,0,.24-.15.35-.14C288.85,255.16,288.76,255,288.62,255.3Zm-.72-.41c-.2-.19-.67.1-1.07-.28.12-.16.23-.14.45-.12S287.84,254.38,287.9,254.89Zm-2.17-.22v-.17c.22,0,.47-.29.78-.09C286.33,255.23,286,254.52,285.73,254.67Zm-.43-1.23c.11,0,0,.17,0,.17l0,.16c-.14.33,0,.34,0,.51,0,.33-.11,0-.16.48-.65-.06-1,.07-1.54,0-.21,0-.29-.36-.51-.38,0,.16-.14.32-.1,0a2.65,2.65,0,0,0,.82-.58c0,.06,0,.12,0,.16s-.13.16-.06.5c0,.17.11,0,.1.18a.78.78,0,0,1,.16-.49c.19.19.46-.29.66-.1a.83.83,0,0,0,.17-.49c0,.17,0,.34.1,0,.1.18.11,0,.22,0,0-.34-.09-.18-.06-.52C285.12,253.09,285.2,253.43,285.3,253.44Zm15.34-.95,0,.17h.11c-.13.16-.13.16-.24.15C300.53,252.48,300.64,252.49,300.64,252.49Zm0,.34c.22,0,.06.51.19.35,0,.34,0,.34-.07.67s.1,0,.22,0c0,.17-.24.15-.37.3,0-.16,0,0-.09-.17,0,.16.06.51.08.34.11,0,0,.33-.13.16l0-.17,0-.33c.14-.33,0,0,0-.17s.11,0,.09.18c.16-.49,0-.51-.17-.53l0-.33C300.57,253.16,300.55,253.33,300.6,252.83Zm1.85,1.2c-.09-.18,0,0,0-.17.11,0,0,.34.09.18.09.18,0,0,0,.33A.71.71,0,0,1,302.45,254Zm-.9.24-.33,0c-.1,0,0-.17-.09-.18C301.24,254.07,301.59,253.94,301.55,254.27Zm-1.52-.15c-.16.49-.38.46-.43-.05,0-.33.14-.32.25-.31l0,.17c-.12.15-.12.15-.23.14C299.71,254.08,299.78,254.43,300,254.12Zm-5.77-1.44c0,.33.2.19,0,.68.11,0,.13-.16.13-.16,0-.16-.1-.18,0-.33,0,.33.11,0,.18.35,0,.17-.11,0-.14.33l-.32,0c0-.33.1,0,.12-.15-.07-.35-.32,0-.31-.2C294.05,252.66,294.12,253,294.26,252.68Zm3.64.88c0,.17-.16.49-.25.31C297.79,253.55,297.77,253.72,297.9,253.56Zm-7.32-.25a.59.59,0,0,0,.14-.32l0,.33Zm3.68,1.56c0,.17,0,.33.1,0l0,.33C294.22,255.2,294.22,255.2,294.26,254.87Zm-3,.37c0,.16,0,.16.09.17,0,.34-.11,0-.13.16C291.12,255.56,291.24,255.4,291.26,255.24Zm.18.35,0-.17c.21,0,.36-.3.54.06C291.86,255.8,291.55,255.6,291.44,255.59Zm3,.31c.16-.48.21,0,.36-.3-.1-.17-.11,0-.11,0-.07-.34-.2-.19-.31-.2l0-.33c.1,0,.08.18.2.19,0-.34-.08-.35-.19-.36l0-.5c.11,0,.09.18.22,0l-.05.5s0-.16.12-.15,0-.12,0-.33v-.17H295l0,.33c-.11,0-.09-.17-.09-.17l0,.33h0a.48.48,0,0,1,.07.28s0,0-.1.05.11,0,.06.51l0,.34C294.67,256.09,294.59,255.92,294.48,255.9Zm-2.57.41c0,.17-.11,0-.14.33-.06-.51-.2-.19-.29-.37l0-.33c.1,0,.19.19.34-.14,0,.34,0,.17.07.35Zm1.56-.17c.12-.16.1,0,.23-.15C293.67,256.33,293.56,256.31,293.47,256.14Zm3.86-.28h-.11c-.11,0-.07-.34-.06-.51.1.18.12,0,.22,0C297.36,255.53,297.26,255.52,297.33,255.86Zm-1.16-.45c0,.16,0-.17-.09-.18,0-.17.11,0,.23-.15v.17C296.19,255.24,296.17,255.41,296.17,255.41Zm1.32,0c.09.18.13-.15.13-.15C297.67,255.73,297.44,255.87,297.49,255.37Zm1.75,0c-.09-.17.13-.15.24-.14C299.33,255.56,299.26,255.22,299.24,255.38Zm-3.54-.7c0,.17.21,0,.23-.14,0,0-.05.5,0,.33-.14.32,0,.33,0,.5v-.17c0-.33.1.18.11,0,0,.33-.21,0-.26.47,0,.17.08.18.08.18,0,.17-.14.32-.1,0l-.22.27a.47.47,0,0,0,0-.29l0,.33c-.11,0-.1-.18-.08-.34a.44.44,0,0,1,.15-.33c0-.16-.12,0-.12,0l.06-.5.21,0c0-.34-.05-.52.07-.67s-.12.15-.1,0,.1,0,.12-.16c-.07-.34-.24.15-.18-.35,0,.16.07.34.11,0,.16.52.3.2.4.38C296,254.72,295.84,254.36,295.7,254.68Zm2.67-1.41c.09.18.21,0,.18.36s-.09-.18-.13.15c.09.18.06.51.18.36-.15.49-.3-.2-.35.3C298.28,254.11,298.33,253.6,298.37,253.27Zm4.86.67c-.11,0-.13.16-.13.16l0-.34c-.11,0-.13.16-.13.16,0,.17-.12.15-.05.5-.08-.15-.12,0-.18,0l-.06.15c0-.12-.1,0-.08-.16v-.17h.11c.11,0,0-.33.14-.32s-.11,0-.09-.18a.35.35,0,0,0,.35-.13C303.12,253.93,303.26,253.61,303.23,253.94Zm-1.63-.17c-.11,0-.11,0-.07-.34C301.51,253.6,301.62,253.61,301.6,253.77Zm-.18-.35c0-.34.14-.32.16-.49s-.22,0-.2-.19c.25-.31.31.2.51.39C301.76,253.28,301.65,253.27,301.42,253.42Zm.69-.27H302a.86.86,0,0,1,.17-.49S302.12,253,302.11,253.15ZM304,253c0,.16-.12.15-.12.15l0-.33C304,252.84,303.86,253.16,304,253Zm-.67.1c-.12.15-.21,0-.18-.36.13-.15.22,0,.35-.13C303.44,253,303.33,252.94,303.31,253.11Zm-2.76-.79c0,.16,0,0-.13.15C300.46,252.14,300.44,252.31,300.55,252.32ZM286.07,239.7c0-.17.22,0,.21.19C286.19,239.71,286,240.2,286.07,239.7Zm.32.2s-.08-.35,0-.34c-.05.51.11,0,.07.35C286.48,240.08,286.39,239.9,286.39,239.9Zm.29.37,0-.17s.13-.16.09.18C286.7,240.1,286.66,240.44,286.68,240.27Zm-4,.78c0,.28-.08.18-.13.38,0-.2,0-.47-.12-.07,0-.16,0-.33.05-.5Zm-2.17-1.58s.13-.16.1.18c0,0,0,.16-.13.15C280.52,239.63,280.52,239.63,280.54,239.47Zm.39.55c.14-1.35.22,0,.35-.14C281.21,240.55,281.08,239.69,280.93,240Zm.77.08h.11c.11,0,.11,0,.13-.16h-.11c.05-.51.14-.33.14-.33,0-.33.16-.49.13-.15,0,.17,0-.17-.13.15.24-.14.31.21.33,0,0,.33.1.18.08.35-.2.82-.39.47-.49.45s0-.33-.08-.34c0,.33,0,.33-.05.5C281.81,240.11,281.63,240.77,281.7,240.1Zm-.71.43c.11,0,0-.17.12-.16,0,.17-.05.51.07.52l.12-.16c-.05.51.08.35,0,.69-.09-.18-.14.32-.25.31A4.5,4.5,0,0,0,281,240.53Zm1.67,1c-.05.11-.06,0-.07-.06s.13-.39.2-.09-.06.5-.16.49Zm15.83,2.66c-.09-.18-.22,0-.2-.19.11,0,.15-.33.13-.16,0,0,0,.17.09.18Zm4.32,2.11s0,0,0,0h0Zm-11.66,1.48h0c-.13.15-.11,0-.22,0h0Zm.06,0h.12c-.05.13-.12.17-.2.16A.25.25,0,0,1,291.21,247.8Zm-13.38-6.74c-.13.15-.34,0-.41-.39-.13.16-.15.33-.25.32l.05-.51c.24-.14.69-.26.83.6C277.92,241.24,277.9,241.4,277.83,241.06Zm-6.94-1.74c.13-.16.11,0,.24-.14l-.05.5C271,239.5,270.86,239.66,270.89,239.32Zm.22-1c0,.17.11,0,.07.35C271.07,238.66,271.05,238.83,271.11,238.32Zm11.82,9.48c0-.16,0-.16,0-.33.11,0,.07.34.06.51-.26.31-.33,0-.53-.22,0-.34.14-.32.18-.66C282.71,247.78,283,246.8,282.93,247.8Zm-1.63-.17c0-.33.05-.5.13-.15Zm-10.16-1.38c.13-.16.21,0,.31.2s0,.33-.07.67c.09.18.14-.32.14-.32,0,.33,0,.5-.07.66-.09-.18-.12.16-.27.48C271.14,247.26,270.8,247.39,271.14,246.25ZM291,250a.48.48,0,0,1,.42.21c-.15.32-.33,0-.49.45-.11,0-.31-.2-.34.14-.2-.19-.17-.53-.12-1C290.74,249.62,291,249.48,291,250Zm12.59.59a1.06,1.06,0,0,0,.1-.3l0,.34c0,.16-.13.15-.13.15a1,1,0,0,1,.06-.16h.07C303.7,250.49,303.67,250.55,303.62,250.58Zm-.46.83c-.09-.18,0-.34.07-.67C303.32,250.92,303.18,251.24,303.16,251.41Zm-.14.32c.09-.06.15,0,.2,0C303.11,251.78,303,252,303,251.73ZM286,250.31c.25-.31.45-.13.67-.1a1.15,1.15,0,0,0-.17.49l0-.17C286.37,250.52,285.84,251.47,286,250.31ZM302.23,252l0,.17C302.19,252.32,302.12,252,302.23,252Zm1.17.29c0-.16-.22,0-.31-.2s.11-.16.14-.3c.06.07.1.12.13-.17.11,0,.09.17.07.34.15-.32.33,0,.37-.3a.91.91,0,0,1,.05.51c-.11,0-.23.15-.32,0l0,.16c0,.17-.11,0-.09-.17C303.41,252.15,303.41,252.21,303.4,252.27Zm.31.2c.14-.32.23-.14.47-.28,0-.17-.22,0-.2-.19.14-.33.37-.47.45-.13C304.18,252.19,304,252.51,303.71,252.47Zm1.15-.55v.17c-.11,0-.1-.18-.1-.18C304.77,251.74,304.75,251.91,304.86,251.92Zm1.86,0c0,.17-.14.32-.1,0C306.72,251.94,306.74,251.77,306.72,251.94Zm-1-.27c0-.16,0,0-.1-.17l-.32,0a.44.44,0,0,0-.15.33c0,.33.11,0,.08.34,0-.17-.13.16-.13.16,0-.34-.16-.53,0-.85,0,0,.07.35.11,0,0-.16,0,0,.11,0,.25-.31.34-.13.57-.27,0,.16-.15.48,0,.33C306,251.7,305.77,251.67,305.77,251.67Zm1.06-.73h.11a.86.86,0,0,0-.17.49c-.1,0-.1,0-.23.15a.76.76,0,0,0,.15-.33c0-.16,0,.17-.12,0,.17-.49.24-.14.27-.48Zm-.08-.34c0-.34.22,0,.24-.15C306.94,251,306.86,250.61,306.75,250.6ZM295,249a1.44,1.44,0,0,1-.17.66c-.22,0-.31-.2-.56.11,0,.85.58-.28.6.57-.22,0-.58.28-.8.25a1.2,1.2,0,0,1,.18-.65c-.06-.28-.13-.3-.14-.54s.2,0,.24-.46C294.53,249,294.73,249.19,295,249Zm-7.89-1c0,.33,0,.33-.15.32,0,.34.11,0,.06.51-.11,0-.09-.17-.18-.35C286.94,248.22,287,247.72,287.07,248.06Zm14.6-3.36c-.12,0-.33,0-.21-.19C301.45,244.68,301.59,244.36,301.67,244.7Zm-1.86-.36s0-.33-.09-.18C299.78,243.66,300,243.85,299.81,244.34Zm-.15-.69c-.14.32,0,.33-.05.5-.11,0-.09-.18-.22,0,0-.17.05-.51.17-.49Zm-5.75-1.28,0-.33c.13-.16.21.19.37-.3,0,.33.09.18.07.34v.17c-.13.16-.12,0-.15.33C294.15,242.23,294,242.39,293.91,242.37Zm2,.21c.12-.16.23-.15.2.19C296,242.59,296,242.76,295.89,242.58Zm2,.42a2.82,2.82,0,0,0,.15.31c0-.34.13-.16.11,0,0,0-.11,0-.12.16-.06.5.2.19.16.52,0-.16-.14.33-.11,0l0-.16c0,.16-.13.15,0,.5a.41.41,0,0,0,0,.12l-.25-.06a1.58,1.58,0,0,0,.05-.25l-.21,0c0-.17,0-.17.05-.51,0,0,.09.18.11,0s-.1-.18-.08-.34,0-.34.15-.33l0,.34A.59.59,0,0,0,297.88,243Zm-4.34-.32c0,.16.13-.16.1.18-.12,0-.12,0-.13.15C293.52,242.84,293.43,242.67,293.54,242.68Zm.76.24c-.26.32-.34,0-.56,0l0-.17C293.87,242.71,294.22,242.58,294.3,242.92Zm2.11,1.07c0-.33,0-.33.14-.32l0,.33C296.44,243.66,296.43,243.82,296.41,244Zm.47-.29c-.11,0-.13.16-.23.15l0-.34c.11,0,.2.19.34-.13,0,0,0,.16.12,0-.08-.35-.24.14-.3-.37.11,0,.24-.15.33,0l0,.34c-.06.5-.15.32-.17.49s.08.09.09.07a.51.51,0,0,1-.12.26h0v.09h0a.34.34,0,0,1,0-.1c-.11,0-.09-.17-.09-.17l0,.28h-.16l-.06,0,0-.3C296.74,244,296.85,244,296.88,243.7Zm-7.47-.77c-.22,0-.33,0-.42-.21.47-.29.87.09,1.11-.06C289.94,243.15,289.63,243,289.41,242.93Zm-.77-.08c-.35.13-.53-.22-.75-.25v-.16C288.11,242.63,288.62,242,288.64,242.85Zm3.49-.49c-.11,0-.23.15-.2-.19,0-.17.11,0,.13-.16C292,242.18,292.17,242,292.13,242.36Zm-.55-1.08c0,.17,0,0,.12-.15a.83.83,0,0,0,.06.51c-.13.16-.13.16-.24.15.06-.51,0,0-.09-.18,0,.17.08.35-.05.5,0-.13-.08-.27-.06-.41s.05-.21.11-.09C291.56,241.45,291.46,241.27,291.58,241.28Zm-1,.75-.09-.18c.11,0,.16-.49.11,0Zm-4.6-.64.05-.5c-.05.5-.16.49-.16.49a.35.35,0,0,1,0-.22c0,.09,0,.21-.09.21l0-.51c.13-.15.11,0,.33,0a.34.34,0,0,1,.32.2c.05-.51.38-.47.45-.12-.05.5-.09-.18-.14.32v-.17c0,.34,0,.34-.14.33a.85.85,0,0,0-.53-.23l0-.33C286.14,241.23,286.12,241.4,286,241.39Zm2.22.06c.09.18.36-.3.42.21-.11,0-.19-.36-.22,0,.11,0,.09.18.09.18,0,.17-.12.16-.11,0a.26.26,0,0,0-.05.2C288.33,241.74,288.2,241.73,288.23,241.45Zm2.67,1s-.07-.34,0-.33l0,.33c.08.35.21.2.28.54-.11,0-.2-.19-.31-.2l0-.17c-.24.15-.21-.19-.3-.37.11,0,.21.19.3.37Zm-5.85-.26c0-.34.12-.16.1,0,.22,0,.37-.3.59-.28.55.06.86.26,1.52.33-.05.5.09.18.06.51,0,.17-.13.16-.06.51v.14c-.09,0-.18,0-.27,0a.1.1,0,0,0-.12,0h-.06c-.06-.23-.08-.15-.09,0h0a.85.85,0,0,0-.06-.49c-.24.15-.41-.38-.64-.23a.86.86,0,0,1-.06-.52c0,.17-.11,0-.13.16-.14.32.08.35-.05.5l0,.17A2.67,2.67,0,0,0,285.05,242.14Zm-1.39.54c0-.17,0,0,.09.18C283.61,243.18,283.64,242.85,283.66,242.68Zm-2-.21c-.1-.18-.11,0-.19-.36.13-.15.13-.15.24-.14C281.71,242.14,281.8,242.32,281.68,242.47Zm-2.29-1.76a.86.86,0,0,1,0,.17c-.17.49-.57.11-.54-.23Zm-.67.27c-.11,0-.22,0-.27.48h-.11l.05-.51c.09.18.15-.32.27-.48C278.59,241.14,278.81,240.14,278.72,241Zm.12-1.18c0,.09,0,.23,0,.34,0-.17,0-.34.14-.33,0,.34-.05.51-.14.33l0,.17c-.09-.18-.13.15-.22,0s0-.33.05-.5C278.71,240,278.73,239.79,278.84,239.8Zm1.14-.22,0,.17c.05-.51-.15.32-.2-.19C279.9,239.23,280,239.24,280,239.58Zm-.66-.07c0-.17-.1-.18-.08-.35S279.42,239.52,279.32,239.51Zm-.52-.39s.06.51-.05.5l0-.34c0,.17,0,.17-.12.16l0-.5C278.82,239,278.82,239,278.8,239.12Z"/><path id="_Path_7" data-name="&lt;Path&gt;" class="cls-3" d="M305.39,253.88a.2.2,0,0,1,0,.12C305.42,253.91,305.41,253.88,305.39,253.88Z"/><path id="_Path_8" data-name="&lt;Path&gt;" class="cls-4" d="M143.49,211.05c7.25,6.07,9,16-4.36,25.56-19.4,13.82-98.55,25.54-106.82-4.16-2.72-9.77,23.23.28,62.12-8.65,18.87-4.33,28.71-18.5,36-18.44,3.78,0,5.86,2.78,9.06,1.86,4.07-1.16,4.75-6.37,10.54-6.1.66,1.62,1.85,2.37,1.34,4.23-.79,2.87-7.46,9.55-9.86,7.3Z"/><path class="cls-5" d="M207.6,184.52s-3.4-.75-4.25-2.53c-2-4.18-3.42-8.34-2.69-10.92-2.48,2.83-3,5.68-3.56,8.16-.31,1.42-.47,11.48-.47,11.48v0c-5.72,1.6-22.1,7.14-32.6,20.79-12.87,16.71-13.68,37.65-11.76,39.13,2.47,1.9,22-4.67,34.82-21.38,10.46-13.58,12.55-30.05,12.25-36.38,1,.15,2.38-.44,6.32-1.22,3.14-.63,9.86-4,11.1-6.54C214.12,184.72,211.78,184.91,207.6,184.52Zm-45.15,57.1a3.18,3.18,0,1,1-.78-4.16A3,3,0,0,1,162.45,241.62Z"/><path id="_Path_9" data-name="&lt;Path&gt;" class="cls-6" d="M238.42,146.92c13.19,10.23,27.28,19.17,34.47,20.26s20.2-5,20.68-13.42,1.35-15.83-11.59-21.5c-16.74-7.33-35.9,3.36-41.42,5.22s-18-.34-22-2.83-9.46.23-6.59,2.59-5.88,7.17.46,9.18S231.61,141.64,238.42,146.92Z"/><path id="_Path_10" data-name="&lt;Path&gt;" class="cls-7" d="M273.55,113.84c-4.07,3.86,6.41,8,15.54,10.61,5.31,1.51,17.91,4.65,16.75,27.2-.26,5.16,1.63,14,7,16.09,9.91,3.81,8.05-23.21,7.15-28.89-2.27-14.4-8.88-25.61-24.29-28.1-10.79-1.74-18.62-1.42-22.86,4.44Z"/><path id="_Path_11" data-name="&lt;Path&gt;" class="cls-7" d="M313.88,169.26c-.82,1.68-3.26,2.84-2.63,4.9,1.14-.67,2.54-1.35,3.9-.1,0-1.41.87-2.26,1.87-.94.25-.1.39-.32.74-.24-2.09-2.36-1.45-4-5.2-3.55a.75.75,0,0,0,.42.83Z"/><path id="_Path_12" data-name="&lt;Path&gt;" class="cls-7" d="M270.54,114c-1.81-.45-3.46-2.59-5.34-1.54.89,1,1.85,2.2.92,3.79,1.37-.33,2.39.38,1.3,1.63.15.22.4.31.39.68,1.87-2.55,3.62-2.26,2.39-5.84a.76.76,0,0,0-.73.58Z"/><path id="_Path_13" data-name="&lt;Path&gt;" class="cls-8" d="M306.57,203c9.91,4.94,16.64,11.58,11.78,21.32-4.47,9-14.2,8.37-24.11,3.43s-18-15.91-14.87-22.86C281.8,199.53,296.66,198.06,306.57,203Z"/><path id="_Path_14" data-name="&lt;Path&gt;" class="cls-7" d="M173.8,165.8c4.75,3,7.42-11.52,7.91-14.63.85-5.46,3.06-20.12,20.54-26.15,4.89-1.68,13.15-5.1,13.8-10.87,1.19-10.54-24.94-2.76-29.76.36-10.82,7-16.54,16.76-18.44,29.07-1,6.18.68,19.9,7.43,22.53Z"/><path id="_Path_15" data-name="&lt;Path&gt;" class="cls-7" d="M217.27,112.81c1.83.36,3.57,2.43,5.4,1.31-.93-.94-1.94-2.13-1.08-3.75-1.36.38-2.4-.27-1.37-1.57-.16-.22-.42-.3-.42-.66-1.76,2.62-3.51,2.41-2.13,5.93a.75.75,0,0,0,.7-.62Z"/><path id="_Path_16" data-name="&lt;Path&gt;" class="cls-7" d="M174.73,168.66c0,1.86-1.63,4-.14,5.56.72-1.11,1.67-2.35,3.44-1.84-.66-1.25-.24-2.41,1.25-1.68.18-.2.2-.47.56-.55-2.94-1.17-3.1-2.92-6.25-.84a.74.74,0,0,0,.74.56Z"/><path id="_Path_17" data-name="&lt;Path&gt;" class="cls-9" d="M242.87,117a40.74,40.74,0,0,0,8.78-2.83c2.87-1.21,5.07-5.27,1.91-7.61-2-1.49-7.57-1.18-9.72,0-1.52.82-5.6,4.12-5.57,6-.6-1.42-2.09-2.91-3.09-4.18-1.37-1.72-2.55-2.65-5-1.59-3.67,1.62-3.9,7.55-3.34,10.85.81,4.74,3.11,8.53,8.21,9.68a28.41,28.41,0,0,0,12.45-.5,13.47,13.47,0,0,0-1.55-5.17,34.2,34.2,0,0,0-2.83-5Z"/><path id="_Path_18" data-name="&lt;Path&gt;" class="cls-2" d="M86.29,121.43c-4.78-4.44-5-11,6.21-16.34,16.24-7.68,77.39-9.93,80.26,10,.94,6.54-17.52-1.76-47.94,1.41C110.07,118,101,126.56,95.52,126,92.66,125.74,86.29,121.43,86.29,121.43Z"/><path id="_Path_19" data-name="&lt;Path&gt;" class="cls-9" d="M205.49,240.76A43.78,43.78,0,0,0,208,231c.55-3.34-1.92-7.75-5.93-6.19-2.56,1-5.5,6.3-5.67,9-.12,1.88.56,7.57,2.3,8.62-1.66-.28-3.91.24-5.67.42-2.39.25-3.94.8-4.36,3.66-.64,4.33,4.71,8,8.1,9.4,4.86,2,9.7,2.09,13.73-1.93a31.2,31.2,0,0,0,6.79-11.79,14.93,14.93,0,0,0-5.69-1.57,36.32,36.32,0,0,0-6.29-.31Z"/><path class="cls-10" d="M155.6,147c-5.37-7.78-22.31-14.54-33.54-14.53-5.46,0-12.6,3.12-17,6.66-3.91,3.14-11,16.84-12.43,21.58-2.31,7.69.75,21.86,3.32,27,5.6-1.43,8.23-2.32,11-4.23,3.06-2.09,6.42-2.26,9.59-3.71a84.1,84.1,0,0,1,9-3.72c3.72-1.21,6.84-4.09,10.59-5.16,3.9-1.11,13.61-4.23,15.19-4.64,1.3-.35,9.72-1.74,12.2-2.76C163.63,163.08,159.78,153.07,155.6,147Zm-48,13.66c-2.42-1.66,1.37-6.29,1.78-8,.81-2.63,7.29-1.24,8.17,1.15,1.26,3.39-1.81,4.8-4.14,5.26-.85.17-1.59-.29-2.74.08C110.05,159.37,109.62,162.06,107.64,160.69ZM115,173.34c-.72.15-1.34-.24-2.32.08-.56.18-.92,2.46-2.6,1.3-2-1.41,1.16-5.33,1.51-6.81.69-2.22,6.17-1,6.92,1C119.53,171.76,116.93,173,115,173.34Zm13.37-24.66c-.5.09-.93-.17-1.6,0-.38.12-.63,1.69-1.79.89-1.4-1,.8-3.66,1-4.68.47-1.53,4.25-.72,4.76.67C131.47,147.59,129.68,148.41,128.32,148.68ZM139.73,162c-.63.13-1.17-.21-2,.07-.49.15-.81,2.15-2.28,1.13-1.78-1.23,1-4.65,1.32-5.94.6-1.94,5.4-.91,6.05.85C143.73,160.57,141.46,161.61,139.73,162Z"/><path id="_Path_20" data-name="&lt;Path&gt;" class="cls-11" d="M260.38,203.84c-.19,8.18-13.83,16.94-24.64,13.45a20.56,20.56,0,1,1,12.63-39.14C259.18,181.63,265.54,193.92,260.38,203.84Z"/><path id="_Path_21" data-name="&lt;Path&gt;" class="cls-2" d="M258.91,209.9c-.93,3.24.22,9.57,5.41,8.65,1.7-1.1-2.86-3.85-1.95-5.71,2.32,1.78,4.95,2.76,7.37,1.24-1.26-4.25-3.07-3.58-5.32-4.61-2.08-1,4.48-3.43,2.38-5.33-2.79-1-7.81,3-7.89,5.76Z"/><path id="_Path_22" data-name="&lt;Path&gt;" class="cls-12" d="M102.88,194.7c-7.28-5-46.82-16.14-60.83-11.35-9.56,3.27-12.67,15.6-9.73,23.13,7,18,38.75,14.69,55.84,5.52C107.59,201.57,108.82,198.78,102.88,194.7Z"/><path id="_Path_23" data-name="&lt;Path&gt;" class="cls-2" d="M108.48,196.56c.06,4.24,3.74,11.44,9.66,8.46,1.65-1.94-4.84-3.6-4.41-6.17,3.43,1.3,7,1.53,9.32-1.18-3.06-4.66-5-3.2-8.08-3.63-2.86-.4,4.15-5.75.94-7.29-3.75-.25-8.33,6.48-7.43,9.81Z"/><path id="_Path_24" data-name="&lt;Path&gt;" class="cls-13" d="M272.49,182.53c-1.71-3.69-.36-7.67,7.11-8.37,10.83-1,45.71,11,42.91,23.5-.92,4.1-9.46-4.88-27.26-9.65-8.63-2.32-15.62.8-18.59-.73C275.11,186.49,272.49,182.53,272.49,182.53Z"/><path id="_Path_25" data-name="&lt;Path&gt;" class="cls-2" d="M270,177.69c-.59-2.08-3.35-5.13-5.86-2.88-.56,1.17,2.85,1.13,3,2.45-1.86-.19-3.62.17-4.42,1.81,2.12,1.89,2.88.91,4.45.72s-1.28,3.37.51,3.7c1.87-.37,3.23-4.28,2.34-5.8Z"/><path id="_Path_26" data-name="&lt;Path&gt;" class="cls-9" d="M152.46,183.52a43.55,43.55,0,0,0-10.15.45c-3.4.44-7,4.22-4.31,7.74,1.69,2.25,7.66,3.59,10.28,3,1.86-.44,7.18-2.81,7.7-4.85.21,1.73,1.34,3.81,2,5.5.92,2.3,1.89,3.68,4.78,3.25,4.38-.66,6.41-7.08,6.8-10.87.57-5.43-.73-10.27-5.77-13.08a30.51,30.51,0,0,0-13.34-3.22,15.58,15.58,0,0,0,.09,6.13,38.35,38.35,0,0,0,1.49,6.34Z"/><path id="_Path_27" data-name="&lt;Path&gt;" class="cls-14" d="M204.16,160.39c-.75,2.74-2.09,6.32-.41,8.93,2,3.21,11.64,3.66,15.43,1.87,1.45-.68,8.84-1.23,9.73-4.6,1.49-5.59-6-11.24-9.5-13.48-8.25-5.36-12-4.33-14.9,6Z"/><path id="_Path_28" data-name="&lt;Path&gt;" class="cls-2" d="M202.41,159.82c.91-2.24.58-6.83-3.19-6.58-1.3.65,1.74,3,.95,4.21-1.52-1.44-3.31-2.34-5.16-1.45.58,3.13,1.91,2.79,3.43,3.7s-3.45,2.09-2.1,3.61c1.9,1,5.8-1.55,6.07-3.49Z"/><path id="_Compound_Path_2" data-name="&lt;Compound Path&gt;" class="cls-13" d="M110.93,267.83c-4.4-10.84-18.52-14.1-28.62-7.85A21.52,21.52,0,1,0,105,296.59C115.05,290.34,117.32,273.53,110.93,267.83ZM98.29,286.14a9.21,9.21,0,0,1-9.69-15.67c4.32-2.68,10.37-1.28,12.25,3.36C103.59,276.27,102.62,283.46,98.29,286.14Z"/><path class="cls-5" d="M124.17,39.46c-2.24-2.18-22.35,2.1-37.06,17.21C75.15,69,71.17,85.07,70.74,91.4c-1-.27-2.42.15-6.42.48-3.19.26-10.26,2.85-11.78,5.2,2.58.73,4.93.8,9,1.67,0,0,3.29,1.14,3.92,3,1.5,4.38,2.44,8.67,1.42,11.16,2.79-2.53,3.64-5.3,4.47-7.7.48-1.37,1.8-11.35,1.8-11.35h0C79.05,92.93,96,89.31,108,77,122.67,61.86,125.91,41.15,124.17,39.46ZM113,47.25a3.18,3.18,0,1,1,.3,4.22A3,3,0,0,1,113,47.25Z"/><path id="_Path_29" data-name="&lt;Path&gt;" class="cls-14" d="M186.44,293.58c3.71-.78,8.77-1.35,10.86-4.92,2.57-4.37-2.7-16-7.11-19.46-1.69-1.31-6.82-9.75-11.36-8.78-7.55,1.62-9.69,14-10.26,19.45-1.38,13,2.14,16.92,16.12,14.07Z"/><path id="_Path_30" data-name="&lt;Path&gt;" class="cls-2" d="M186.82,296c-3.2.27-8.46,3.44-5.88,7.77,1.55,1.14,2.46-3.86,4.43-3.68-.8,2.67-.79,5.35,1.4,7,3.36-2.57,2.15-3.95,2.31-6.31.15-2.19,4.57,2.83,5.57.32,0-2.85-5.35-6-7.83-5.1Z"/><path id="_Path_31" data-name="&lt;Path&gt;" class="cls-2" d="M240.92,61.31a21.2,21.2,0,0,1-2.34-.85,4.82,4.82,0,0,0-1.26-.49c-.2-.2-.72-.24-.91-.44v.07c-.19-.2-.35-.12-.37-.26a3,3,0,0,1-.72-.24c-.71-.17-1.6-.4-2.3-.51-.35-.05-.53-.11-.89-.16,0,0,0,.07-.17,0a6.51,6.51,0,0,1-1.05-.16,14.5,14.5,0,0,0-2.48-.5c-.35-.12-.5.09-.66.23l.25.82a19.22,19.22,0,0,0,4.46,2.81v.07a30.27,30.27,0,0,0,4.76,2.39s.17,0,.19.12c.34,0,.91.44,1.25.42a34.37,34.37,0,0,0,3.42,1.15v-.07c0,.2,1.08-.12,1.26-.06,0,0,2.12.45,2.55-.13s-1.9-2.26-1.9-2.26C243.65,63.22,242.48,62,240.92,61.31Z"/><path id="_Path_32" data-name="&lt;Path&gt;" class="cls-2" d="M228.63,44.47a7.41,7.41,0,0,0-.55,1.85,2,2,0,0,1-.25,1c.1.27-.2.55-.09.81l-.08-.06c.11.26-.1.27.06.4-.12.08-.14.41-.19.55a9.69,9.69,0,0,1-.94,1.52c-.17.22-.22.35-.4.56,0,0-.07-.06-.12.08-.25.14-.35.42-.52.63-.4.55-.56,1.3-1.07,1.59-.09.27-.44.16-.72.11l-.82-.85a11,11,0,0,1-.4-4.57l-.08-.07c.07-1.35-.19-3.16.32-4.33,0,0,.13-.07,0-.2.25-.15.09-.81.34-1A13.07,13.07,0,0,1,224,40l.08.06c-.23-.19.87-.4.92-.53s.89-1.39,1.87-1.08,1.46,2.89,1.46,2.89C228.15,41.5,228.8,43.1,228.63,44.47Z"/><path id="_Path_33" data-name="&lt;Path&gt;" class="cls-2" d="M236.81,47.87a7.36,7.36,0,0,1-2.05.88,2,2,0,0,0-1.15.42c-.31-.13-.6.3-.92.17l.09.11c-.32-.14-.31.15-.47-.06-.07.18-.46.22-.61.3a11.45,11.45,0,0,0-1.64,1.4c-.22.25-.37.33-.59.59,0,0,.08.1-.07.18-.13.36-.44.51-.66.77-.59.58-1.43.85-1.7,1.57-.3.15-.13.63,0,1l1.06,1.1c2.15.83,3.67.36,5.3.27l.08.11c1.55-.19,3.65.07,4.94-.71,0,0,.06-.19.23,0,.14-.36.92-.17,1.06-.53A13.34,13.34,0,0,0,242.56,54l-.08-.11c.24.31.35-1.24.49-1.32s1.49-1.32,1-2.67-3.49-1.85-3.49-1.85C240.27,48.35,238.36,47.54,236.81,47.87Z"/><path id="_Path_34" data-name="&lt;Path&gt;" class="cls-3" d="M180.06,95.3s0,0,0,0h0Z"/><path id="_Compound_Path_3" data-name="&lt;Compound Path&gt;" class="cls-3" d="M210.91,81.06s5.48-3.56,5.43-3.63a3.84,3.84,0,0,0,1-1.05c.92,0,.85-1.34,1.6-1.41-.19-.28.09,0,.18-.11-.09-.15-.18-.29-.09-.35,2.06-1.09,4.41-2.57,5.56-4.9-.07-.1.11-.53.35-1a3.06,3.06,0,0,0,.92-1.88c.75-1.26.45-1.53.84-3.16.46-.09.11-1.26,0-2L225.16,59c-2.72-3.25-3.54-4.18-6-4.41-.09-.14-3.51.1-3.69-.18-2.56,0-4.88,1.49-6.73,2.85-.09.06-.18-.08-.27-.22-.09.06,0,.4-.18.11-.38.64-1.56,0-1.94.83a3.73,3.73,0,0,0-1.37.47c-.05-.07-5.54,3.29-5.54,3.29l.09.14c-.09,0-.09,0-.09.26-.18-.29-.09-.15-.27-.23-.47.89-1.84.76-2.32,1.85-.09-.14-.17-.28-.18-.08-.19.51-1,.44-1.2.95l.09.15c-.18-.09-.18.11-.09.25-.55-.45-.47.49-.92.39-.2.51-.92.18-1,1-.19.11-.19.31-.2.71-.54-.65-.55.15-1,0,.17.69-.46-.11-.37.43l.17.29s-.36-.37,0,.2c-.18.11-.82-.48-.55.15l-.18-.29c.09.14.27.43.18.49l-.18-.29c-.09.06-.28,0-.28.18-.18-.29-.18.11-.09.25-.82-.27-.57,1.35-1.38.68l.27.42c-.46-.51-.73-.33-.74.07-.36,0-.46.29-.47.69-.26-.43-.27,0-.36-.17.27.63-.18.12,0,.6-.09.06-.27-.22-.27-.22,0,.2.18.28.27.42-.27-.22-.27,0,.08.54-.36-.16,0,.4.09.74.26.43.18.09.26.43,0,0-.18.12,0,.6.19-.11.55,0,.56-.35.36.37.18-.11.36.17,0,.2,0,.6-.28.57l.18.29c-.27-.23-.19.31-.73-.14-.09-.14-.18-.48,0-.2-.8-1.28-.71-1.53-1.24-2.38.35.36-.09-.15-.09-.34-.37-.17-.1.65-.56.34,0,.2.18.69.09.74s.09.15.18.29c-.1.06-.28-.23-.37-.17-.27-.42.09-.06-.09-.34-.18-.08-.18.32-.46.49-.45-.51-.36,0-.37.23-.36-.36-.18.32-.46.09l.18.49c-.18-.29-.27,0-.18.11-.1.06-.19-.08-.28-.22.18.28.09.14-.09.06.27.22,0,0,.18.48-.36-.37.08.54-.28,0,.27.43.09.35.18.69.27,0,.19-.32.37-.23,0,.19.08.14.17.28.1-.06.37.17.1-.26,0,0,.27.43.27.23.09.34,0,.4-.19.31l.09.15c.18.28.1-.06.19.08.26.62-.37,0-.2.72.27,0,.28-.18.37-.44.1-.06-.08-.14-.08-.34,0,0,.18.28.26.43-.08-.35.19.08.19-.12.09.14.18.08.27.43l-.27-.43c.17.68,0,.6-.2.92.37.36.28-.38.56-.15s0,0,.17.28a1,1,0,0,0-.46.49l-.27-.42c-.18-.09-.09,0-.18.11s-.36-.36-.37-.17a2.71,2.71,0,0,1-.26-.62c-.36-.57-.45-.71-.63-.79,0,.2.09-.06.18.28a1.46,1.46,0,0,1-.45-.51c.36.37-.09-.54.28-.17-.09-.15-.45-.71-.36-.77-.27-.23-.09.06,0,.2-.19-.08,0,0-.1.06l-.26-.43c.08.34-.37,0-.19.52-.27-.23-.18-.09-.37,0l.18.28c-.18-.08-.45-.31-.37.24-.55-.06-.91.18-1,.84-.27-.23-.45-.11-.37.43-.09-.14,0,0-.09.06l.09.14c-.18.11-.46.29-.46.49L181.5,76s.17.49-.1.26c0,0-.09.06,0,.2-.18-.08-.27-.22-.37-.16.09.14.09.34.18.48-.27-.43-.63-.39-.37,0-.26-.42-.27,0-.18.12-.28.17-.55.15-.55.35l-.09-.15s-.09.06,0,.2c-.1.06-.19-.08-.28,0,.18.28-.09.26-.18.11a2.26,2.26,0,0,1-.11,1.06l.09.14c-.09.06-.18-.08-.18.12l-.27-.43c.09.15.09-.05,0-.19s-.37,0-.37.43v-.2c-.09.06-.1.46-.28.17.18.68-.1.46-.19.72.09-.06.36.57.18.48.18.29.36.17.18-.11.09-.06.27.42.27.22.09.14.18.29,0,.2l.27.43c-.09-.34.09-.26.18-.32l.09.14c.27.63-.27.18-.09.46.09-.06.36,0,.37-.23.18.08.18-.12.18-.12l-.18-.28c-.09-.34-.08-.54.28,0-.09-.14-.1.06,0,.2.27.23.19-.31.46.11a7.59,7.59,0,0,1-.48,1.09c.18.49.09.74-.1.86-.09-.34,0-.4,0-.4l-.27-.42c0,.2-.27,0-.37,0-.18-.28-.17-.49-.35-.77l-.72-1.13c.09.14-.09-.15,0-.2-.26-.23-.18.11-.36,0-.18-.29.09-.06-.09-.34-.18.11-.37.23-.19.91a.83.83,0,0,1-.36-.36,1,1,0,0,1,.08.54l-.18-.29c-.27,0-.28.38-.64.21.08.34-.1.26.08.54,0,.2-.09-.14-.18-.08l.09.14c-.27-.22-.1.26-.28.38-.18-.29-.08-.35-.08-.35-.37-.36.07.75-.37.24.09.14.18.28,0,.2.09.14.19.08.27.22-.09.06-.45-.31-.27.18l-.18-.29c-.28,0,0,.8-.29.78-.18-.29,0-.2-.08-.35s-.1.06-.28.18c.44,1.31-.91-.22-.74.66l-.18-.08c.06.11.11.22.16.32a.67.67,0,0,1-.25-.26c.17.28,0,.4-.1.26-.09.06.09.34-.09.25l.09-.05c-.28,0-.1.45-.28.57-.09-.14-.18-.28,0-.2-.27-.22-.19.12-.1.26,0,0-.09-.08-.09-.14-.18-.09-.18.11,0,.4-.37-.17-.73-.14-.56.35-.09-.14-.18-.09-.27-.23.09.34-.28.18-.19.52-.18.11-.45.09-.37.63l-.27-.22c.17.28-.19.11,0,.39-.09.06-.18-.08-.18-.08,0,.4-.46.29-.37.63-.1.06-.1.06-.19-.08.18.28,0,.2.27.62-.09.06-.09.06-.18-.08-.09.06,0,.2-.1.26l.27.43c-.09.05-.36-.37-.54-.46.09.15,0,.2.09.35-.09-.15-.19-.09-.28,0-.09.26-.56.55-.74.86l-.18-.28a2.44,2.44,0,0,0-.48,1.09c.19.09.18.29.27.43s-.18-.09-.27-.23c-.09.06,0,.2,0,.2l.09-.06.27.43c-.18-.08-.18-.08-.27-.23-.09.06.09.15.18.29s-.09.06.09.34c-.19-.08,0,.2,0,.4-.09-.14-.09.06-.27-.23-.09.06,0,.2-.19.12l-.09-.14c-.09.06.18.28.18.28s-.09-.14-.18-.08l.27.42c-.09-.14-.09-.34.1-.26,0,0-.1.06,0,.21.1-.06-.08-.35.1-.26.26.42-.19.31,0,.6-.09-.15.18.08.36.16.09.35-.18.12-.27,0,.09.14-.19-.08-.19-.08l.27.42c-.09-.14-.18.12.09.34-.18-.08-.18.12-.27,0,.27,0-.18-.49,0-.4l-.26-.43c.08.14.26.43.08.54-.09-.34-.09-.14-.18-.08l-.09-.14s-.18-.29-.09-.34c-.09-.15-.18-.09-.18-.09s.09-.25,0-.4c.18.29,0,0,0,.2.09,0,.37.17.37,0s-.18-.08-.18-.08l-.18-.29c-.09-.14-.19-.08-.27-.22s.08.14-.09,0a1.18,1.18,0,0,1,.17.69c.09.14.09-.06.27.22-.09.06-.28,0-.28.18a.56.56,0,0,0-.09-.14c-.18-.29,0-.2.1-.26-.18-.29-.36-.17-.37,0-.13-.06-.12.22-.18.25a.39.39,0,0,1,.17.15c-.09.06,0,.2.09.34-.09.06.09.14,0,.2.09.15.18.29.09.34.16,0,.21-.08.27-.17a.32.32,0,0,1-.18-.28l.18.28c0-.06.08-.13.19-.11-.08-.13-.16-.11-.25-.21,0-.29.2-.36.35-.45a1.92,1.92,0,0,0,.35.76c-.09-.14-.09.06-.09.06l-.36-.16.17.28c-.09.06-.09.06,0,.2-.09.06-.18-.08-.18-.08l-.09-.15s-.09.06,0,.2l.18.29c0,.2,0,.2,0,.4-.18-.29-.27-.23-.45-.51-.18.31-.19.51-.37.43s.09.14,0,.2l.28-.18c.17.29-.1.26,0,.4a.66.66,0,0,0-.27-.22c-.18-.28-.18-.08-.09.06-.1.06-.18-.29-.19-.09s.18.69-.09.46a.3.3,0,0,0,.18.28c0,.21.08.35-.1.26.09.14.18.09.27.23l.09.14c-.09.06-.18-.08-.27-.23.18.29,0,.21.08.35s.19.08.19.08l.18.28c-.19-.08-.28.18-.1.46-.09-.14-.18-.08-.27-.22.09-.06.18-.12-.09-.34l.09.14c-.09-.14,0,.2-.09,0,0,.21.09.15.18.29-.28-.23-.19-.08,0,.2-.09.06-.27-.23-.27-.23l.09.14c-.09.06.09.15,0,.21s0,.19-.18-.09l.18.28c-.1.06-.09-.14-.28-.22l.18.28.09.15s-.18-.09-.09.05c-.09.06-.09-.14-.09-.14s0,.2-.18-.08l.09.14c-.09.06,0,0,.09.14-.09.06-.1.26-.28,0,0,0,.09.14-.09,0l.09.15s.09.34-.18.11c.09.14.08.34-.1.26.18.08.09.14,0,.2a.69.69,0,0,1,.27.63c.09.14.08.34,0,.2,0,.2.27.42.18.48.09.14.09.14.18.08.09.15,0,.2,0,.2s.18.09.27.23c-.09.06.09.14.18.28-.09-.14.18.09,0-.2l.18.09c.28-.18.46-.49,1.1-.1,0,0,.08-.07,0-.2l.09.14c.19.08.1-.06,0-.2.35.37.36.17.45-.09l.09.14c.28-.17.55-.15.83-.32.09-.06,0-.2,0-.2,0-.2.1-.06.19-.12.09.14.09.14.18.08l-.09-.14c.82.08,1.19-.35,1.93-.62l-.09-.14s.07,0,.11,0a.29.29,0,0,1,.1.22,2.44,2.44,0,0,0,1.2,0l-.18-.29c.37,0,.84-.33,1.12-.3.09-.06.18-.12.09-.26.09.14.18.08.28.23,0-.17-.15-.46-.16-.6s0,0,0,0c.1.15.23.37.23.37s.19.08.28,0c-.09-.14-.09-.14,0-.2.27.43.28.23.46.51-.09-.14-.09-.14,0-.2.27.23.38-.24.74-.07,0,0-.09-.14,0-.2.18.29.19-.12.37.17l-.08-.35c.45.32.55,0,.74-.06.27.23.28-.18.55,0-.09-.15,0-.2-.09-.35.37.37.56,0,.56-.35.18.29.37.37.37.17-.06,0-.05-.1-.09-.15.09.15.37.37.28,0,0,.2-.09.06-.18-.09.16-.1.44.14.58,0l.06,0s0,0-.05,0,.16.09.24,0c-.09-.14.1-.26.28,0a.7.7,0,0,1-.13-.35c.07.09.15.18.22.29v-.21c.73.54-.07-1.35.93-.38.19-.12.28,0,.28-.18s-.09.06-.27-.23c.1-.26.73.34.83.08l-.18-.29c.37.37.19-.11.28-.17.09.14,0,.2.09.34,0-.2.09-.06.18.09-.27-.63.55.25.38-.24,0,0-.1.06-.28-.23.19-.11.55.25.46-.09l.09.14c.1-.06-.18-.28,0-.2.18.29.18.09.46.31,0-.4.37-.23.47-.49l-.18-.29a1,1,0,0,1,.46.31.88.88,0,0,1-.18-.49c.54.46.73.34.92.22-.18-.28-.09.06-.27-.23,0-.2.27,0,.18-.31-.09,0-.27-.23-.18-.09l-.72-1.14A4,4,0,0,0,184,91a2,2,0,0,0,.82-.48c.1-.06,0-.21,0-.21l.17-.07a1.94,1.94,0,0,0,.48,0c.27.43-.19.12-.1.47.09.14.27.22.18.08.36.57.18.49-.09.26l-.18-.29s-.19-.08-.19.12c-.19-.08-.28.18-.37.24.18.28,0-.41.45.11l.09.14c-.09.06-.09.26-.36,0l.27.43c0-.2.09-.06.18.09-.18-.09.18.28.09.34-.18-.28-.37-.17-.19.12,0-.2.46.31.36.37.28,0,.19-.32.74.13-.18-.28.19-.11.28-.17l-.18-.09c.37.17.55,0,.55-.15s-.27-.23-.18-.08l-.27-.43c.18.08.09-.06.19-.12l.09.14a2.22,2.22,0,0,1,1,.37c-.09-.15,0-.41.19-.12.09-.06,0-.2.09-.26.09.14.19.08.19.08l-.09-.14c.18.08.28-.18.56-.35.09.14.45.31.18-.12.27.43.47.11.2-.32.09.14.27.22.36.37.09-.06,0-.21,0-.41.09.15.19.09.19.09-.09-.35.28,0,.28,0l-.27-.43c.18.09.46-.09.65-.21l.09.15c.09-.06.18.08.09-.06.46.31.64.19.56-.16a.86.86,0,0,0,1.21-.56c.46.31.37,0,.38-.24l.18.29c.18-.12.27,0,.18-.32.37.37.29-.18.56,0l-.27-.43c.09-.06.09.15.09-.06.09.15.27.43.18.09-.09.06-.45-.52-.54-.66.18.49-.45-.31-.28.18a1.36,1.36,0,0,1-.26-.63c.27.23,0,.2.18.28,0-.2-.09-.34-.45-.91a2.45,2.45,0,0,1-.46-.52c.19.09,0-.2,0-.4s.18.08.19-.12l-.27-.43a1,1,0,0,0,.5-.13s0,0,0,0v0l.11-.06c.18.29.09-.06.18.29s-.56,0-.38.44c.37,0,.37-.24.92.21l-.27-.42c.28.22.18.28.27.42-.18-.08.09.35-.19.12l.27.43c-.18-.08-.18-.28-.27-.23-.27,0-.46-.1-.56.16.55.45.29-.38.74.13.09.14-.18-.08,0,.2l.09.15c0-.21.09-.27.37,0-.19-.08.09.35.09.35-.28-.43-.19-.09-.28,0,.09.15,0,.2.18.29,0,.2-.28,0-.38.23.28.23.28,0,.55.46-.36-.57.28.22.1-.26.36.37.28,0,.36.37,0-.2-.08-.35.1-.06-.09-.14-.18-.29-.09-.35.09.15.37.17.19-.12l.36.38c-.08-.35.46.1.28-.38.19.08.65.39.38-.24.28-.18.65,0,.65-.21-.18-.29,0,.2-.27-.23.09-.06-.09-.34,0-.4.09.14.09.34.18.28s.46.32.64.4c-.08-.55.56,0,.56-.35-.18-.09-.45-.72-.27-.23-.54-.86-.82-.88-1.63-2.17.18.28-.09.06-.18-.08-.18-.69.28-.38.2-.73l.18.29c.09-.26.46-.1.64,0,.18.29-.18-.09,0,.4-.37-.17-.38.24-.57.36.37.37.56.25.56.25.27.23,0,0,.27.43.27.23.63.8.64.39.36.58.54.66.45.31.09.15.09.35.27.43,0,0-.18-.28-.08-.34.36.37.1-.26.55.25-.09-.14.28,0,0-.4.36.17.64.19.83-.13.37.17.65,0,.38-.64l.27.43c-.26-1,1.11-.1,1.22-1,.09.14.46.31.28,0,.18.08.19-.12.28-.18l-.18-.29c.09-.06.27.23.36.37l-.18-.28c.45.51.19-.32.38-.44.36.57.18.08.18.08l.18.29c.46.31,0-.6.56-.15.1-.46.84-.13.48-.9.36.17.55.25.74.13.82.28.84-.53,1.39-.48.1-.46.93,0,.75-.67.09.14.28.23.28,0l.09.15c.56,0,.85-.73,1.4-.68.18.08.09-.06,0-.2,1.21,0,1.69-1.27,2.71-1.31,0-.2.09-.06-.09-.34.18.08.18.08.28,0Zm-22.32-8.75-.09-.14c-.18-.29-.09-.35.18-.12C188.86,72.53,188.32,71.88,188.59,72.31Zm.38-.84c.09.15,0,.21.08.35C189,71.87,188.78,71.39,189,71.47Zm.36-.23c-.08-.14-.08-.14,0-.2l.26.43c-.09,0-.09,0-.18-.09l.18.29C189.51,71.73,189.33,71.24,189.33,71.24Zm6.55-3.73c-.18-.28,0-.2-.09-.34C196.06,67.6,196,67.46,195.88,67.51Zm-4.27,4.68c-.1.06-.18-.09-.37-.17.09.34,0,.6-.19.52.09.34,0,.2-.18.11-.27-.82.19-.91.47-.89ZM196.42,68c.18.28,0,.19,0,.4l-.27-.43C196.33,68,196.24,67.88,196.42,68Zm-6.55,4.32-.09-.14c0,.2-.09.06-.27-.23.09,0,.18.09.27.23l-.18-.28c.09-.06.18.08.18-.12l.27.43C190.05,72.38,189.87,72.09,189.87,72.29Zm-.29.78c0-.07,0-.1-.07-.16l.45-.28C190.13,72.92,189.94,73.43,189.58,73.07Zm1.1.1c-.27-.43-.36-.37-.46-.31-.44-.71.19.08-.17-.48.18.08.45.51.45.31l.27.42ZM188,72.31l.18.29c-.1.06-.19-.09-.19-.09C187.76,72.23,188,72.31,188,72.31Zm-.1.66c-.28-.22,0,.6-.37,0C187.66,73.09,187.13,71.84,187.85,73Zm-.74.47c-.09.06,0,.2.08.34-.09.06-.09.46-.63-.19-.09-.15.09-.06-.09-.35.09.15,0-.2.28-.17-.27-.23-.09.06-.18-.08s0-.2.18.08c0,0,0-.2.27.22l-.09.06c.09.15.09.15.18.09l.09-.06c.36.57-.09.06.18.48Zm-.39,1.23.1-.26.27.43c-.27-.31-.16-.08-.08.11C186.88,74.79,186.87,74.9,186.72,74.67Zm.09.34c-.07-.29.11-.05.22,0s.05.17,0,.1l.18.28C187.08,75.44,187,75.29,186.81,75Zm1.29-.61c-.18-.29,0-.2-.26-.63l.18.09c.09-.06-.09-.35-.18-.49.09-.06.09.14.18.09a4.67,4.67,0,0,0,.44,1.11C188.37,74.62,188.1,74.2,188.1,74.4Zm-.1.66c.09-.06.09-.06.27,0,.09.34,0,.2,0,.4C188.09,75.4,188.09,75.2,188,75.06Zm-4.84-.12c.27.42-.1.06-.1.25C183,75.05,183.07,74.79,183.16,74.94Zm-.28.37c-.18-.28.18.09-.09-.34.09-.06.18.28.18.28S183,75.45,182.88,75.31Zm-.1.46c-.18-.28,0-.2,0-.2l.09.14C183,75.85,182.78,75.57,182.78,75.77Zm3.83.76c.09.14.27.42,0,.2C186.61,76.53,186.52,76.39,186.61,76.53ZM182.16,78a.26.26,0,0,0-.14-.15c.09.14,0,.19-.09,0s-.09-.14,0-.2c-.18-.28-.09.06-.19.12-.17-.49.28-.18.28-.37C182.17,77.67,182.06,77.74,182.16,78Zm-2,1-.09-.14c-.26-.43,0,0,.1-.06Zm3.24-2.64a.3.3,0,0,1,.19-.31c.18-.12.09-.26.27-.18l.27.43c-.06,0-.11-.07-.17-.15a.31.31,0,0,1,.08.21s-.09,0-.36-.37l.27.42c-.09.06-.18-.08-.36-.36l.18.28a.87.87,0,0,0-.38.43c-.09.06-.09.06-.26-.22l.08.14c-.26-.43,0,.2-.27-.23C182.87,76.11,183.14,75.94,183.41,76.36Zm-4.15,2.82c-.09.06-.09.06-.28,0a.78.78,0,0,0-.17-.48c.18.08.27.23.18.08.09-.06.09.15.27.23,0-.14.12,0,.14,0s.06.28.13.39c-.18-.08-.18-.28-.27-.42C179.26,79.18,179,78.75,179.26,79.18ZM179,80c-.18-.28,0-.2-.08-.34.09.14.09-.06.18.09S179.06,79.89,179,80Zm1.11-.49-.18-.29c.09-.06.18.29.18.29l.09.14c0-.2,0-.4.09-.46,0,.2.18.48-.09.46l.09.14c-.1.06-.1.26-.19.32C180,79.71,180.16,79.8,180.08,79.46Zm.82-.13c.27,0,.46-.49,1-.44,0,.2-.09.26-.28.38S181.26,79.7,180.9,79.33Zm1.84-1.16.09.14c-.18.12-.19.52-.55.55C181.92,78.09,182.65,78.43,182.74,78.17Zm1.09.7c-.09.06-.09-.14-.09-.14l-.09-.14c-.08-.34-.17-.29-.26-.43s.09-.06-.18-.48c.55-.35.74-.67,1.2-1,.18-.11.46.11.64,0-.09-.15-.09-.35.09-.06a2.72,2.72,0,0,0-.28,1l-.09-.14c-.19-.08,0-.2-.27-.43-.09-.14-.1.06-.18-.08a1,1,0,0,1,.17.48c-.27,0-.19.52-.46.49a.78.78,0,0,0,.17.49c-.09-.14-.18-.28-.09.06-.18-.09-.09.06-.18.11.18.29.18.09.36.37C184.2,79,183.92,78.81,183.83,78.87ZM172.35,89.08l-.09-.14-.09.06c0-.2,0-.2.1-.26C172.45,89,172.35,89.08,172.35,89.08Zm-.18-.28c-.18.11-.36-.37-.36-.17l-.36-.57c-.18-.08-.09.06-.18.12-.09-.14.09-.26.1-.46.09.14,0,0,.18.08-.09-.14-.36-.36-.27-.22-.1.06-.18-.29,0-.2l.09.14.18.28c.08.35,0,0,.09.15s-.09,0-.18-.09c.17.49.35.37.45.31l.18.28C172,88.51,171.9,88.37,172.17,88.8ZM170,89c.18.09,0,0,.08.14-.09.06-.17-.28-.17-.08-.19-.08,0,0-.18-.28A.66.66,0,0,1,170,89Zm.55-.75.28-.17c.09-.06.09.14.18.08C170.9,88.21,170.71,88.53,170.53,88.24Zm1.3-.81c-.18-.48,0-.6.36-.23.18.28.09.34,0,.4l-.09-.14c0-.21,0-.21.09-.26C172.1,87.25,171.83,87,171.83,87.43ZM177.25,85c-.18-.28-.27,0-.44-.51-.1.06,0,.2,0,.2s.18.08.18.28c-.18-.28-.09.06-.36-.16-.09-.14.09-.06-.09-.35l.28-.17c.18.28-.09.06,0,.2.26.23.27-.17.36,0C177.44,84.88,177.17,84.66,177.25,85Zm-3.4,1.55c-.09-.14-.17-.48,0-.4C173.94,86.49,173.85,86.35,173.85,86.55Zm5.91-4.32a.68.68,0,0,0,.09.34l-.18-.28Zm-3.85,1c-.09-.14-.18-.28-.09.06l-.18-.28C175.73,83,175.73,83,175.91,83.27ZM178,81.13c-.09-.14-.09-.14-.18-.08-.18-.28.09-.06,0-.2C178,80.79,178,81,178,81.13Zm-.36-.16.09.14c-.19.11-.1.46-.47.29C177.22,81.06,177.58,81,177.68,81Zm-2.58,1.62c.17.49-.19.12-.1.46.18.09.09-.06.09-.06.27.23.27,0,.36,0l.18.29c-.09,0-.18-.09-.27,0,.18.28.27.23.36.17l.27.42c-.09.06-.18-.08-.18.12l-.27-.43s.08.14,0,.2.1.08.18.29l.09.14-.1.06-.18-.29c.1-.05.19.09.19.09l-.18-.29h0a.48.48,0,0,1-.23-.18s.05,0,.05-.1-.1.06-.36-.37l-.18-.28C174.82,82.57,175,82.65,175.1,82.59Zm1.76-1.9c-.09-.14.09-.06-.09-.34.36.37.28,0,.46.11l.18.28c-.09.06-.28,0-.19.32-.18-.29-.09-.14-.27-.23Zm-1.11,1.1c0,.2-.1.06-.1.26C175.47,81.76,175.57,81.7,175.75,81.79Zm-2.87,2.6.09-.06c.09-.06.27.23.36.37-.18-.08-.1.06-.19.12C173.06,84.67,173.15,84.62,172.88,84.39Zm1.19-.35c-.09-.15.09.14.18.08.09.14-.09.06-.09.26l-.09-.15C174.16,84.18,174.07,84,174.07,84Zm-1,.83c-.18-.08,0,.2,0,.2C172.69,84.71,172.78,84.45,173.05,84.87ZM171.66,86c.19.08,0,.2-.09.25C171.48,85.86,171.75,86.09,171.66,86Zm3.23-1.64c-.09-.14-.19.12-.1.26s-.26-.43-.18-.29c-.08-.34-.17-.28-.26-.42l.09.14c.17.28-.19-.08-.1.06-.18-.28.19-.12-.08-.54-.09-.14-.18-.09-.18-.09s-.09-.34.09-.05V83c.06.09.11.19.18.22l-.18-.28c.1-.06.19.08.28.22a.39.39,0,0,1,.08.34c.09.15.1-.05.1-.05l.26.42-.18.12c.18.28.36.37.36.56s0-.19.09,0-.09,0,0,.2c.27.22.09-.26.36.16-.09-.14-.27-.22-.09.06-.46-.31-.37,0-.55,0C174.61,84.49,175,84.65,174.89,84.31Zm-1.23,2.76c-.18-.09-.19.11-.36-.17s.18.08,0-.2c-.18-.08-.36-.37-.36-.17-.18-.48.36,0,.09-.46Zm-4.24,2.47c.09-.06,0-.2,0-.2l.18.29c.09-.06,0-.21,0-.21s0-.19-.27-.42c.15.07.08-.09.15-.1s0-.09-.05-.15c.08.09.09-.06.17.08l.09.14-.09,0c-.09.06.18.29.09.35s.09-.06.18.08a.32.32,0,0,0-.19.32C169.51,89.48,169.6,89.82,169.42,89.54Zm1.38-.87c.1-.06.1-.06.28.22C171,88.75,170.89,88.81,170.8,88.67Zm.37.17c.17.28.08.34.17.48s.19-.12.28,0c0,.39-.37,0-.64,0C171,89.15,171.07,89.1,171.17,88.84Zm-.38.63.1-.06a.93.93,0,0,1,.17.49Zm-1.39,1.27c-.09-.14,0-.2,0-.2l.18.29C169.49,90.88,169.4,90.54,169.4,90.74Zm.47-.49c0-.2.18-.12.36.17,0,.2-.18.11-.19.31C169.86,90.45,170,90.39,169.87,90.25Zm2.66-1.09c-.08-.14,0,0,0-.19C172.71,89.25,172.62,89.11,172.53,89.16Zm19.18,1c.09.14-.19.12-.28,0C191.61,90.22,191.44,89.73,191.71,90.16Zm-.37,0s.27.22.18.28c-.27-.43-.09.06-.27-.23C191.16,90.11,191.34,90.2,191.34,90.2Zm-.46-.11.09.14s0,.2-.19-.08C191,90.23,190.79,89.94,190.88,90.09ZM193.52,87c-.15-.23,0-.19-.13-.38.13.15.3.36.13,0l.27.43Zm2.68-.09s0,.2-.18-.08c0,0-.09-.15,0-.21Zm-.64-.19c.72,1.14-.19.11-.19.32C195,86.48,195.64,87.08,195.56,86.74Zm-.66.41-.09.06c-.09.06-.09.06,0,.2l.09-.06c.27.43.09.35.09.35.18.28.18.48,0,.2s.09.14,0-.2c-.1.26-.37,0-.28.17-.18-.28-.19-.08-.28-.22-.35-.78,0-.61.11-.67.09.14.18.29.27.23l-.27-.43C194.81,87.21,194.54,86.58,194.9,87.15Zm.29-.78c-.09,0,.09.14,0,.2-.09-.15-.27-.43-.36-.37v.2c-.27-.43-.28-.23-.46-.51.19.08-.09-.35,0-.41A4.83,4.83,0,0,0,195.19,86.37Zm-1.94.22c0-.11,0-.07.1,0s.13.39-.1.19-.27-.42-.18-.48Zm-14.1,7.69c.18.08.19-.12.28,0-.1.06.08.35,0,.21s-.09-.15-.18-.09Zm-4.7,1s0,0,0,0h0S174.44,95.28,174.45,95.28Zm8.27-8.36h0c0-.2.09-.06.19-.12h0Zm-.05,0-.1.07c0-.13,0-.21.05-.25A.28.28,0,0,1,182.67,87Zm14.69-3c0-.2.28-.18.55,0,0-.2-.08-.34,0-.4l.27.43c-.09.26-.38.64-1,0C197.18,83.92,197.09,83.77,197.36,84Zm6.52-2.91c0,.2-.09.06-.09.26l-.27-.43C203.7,81,203.7,80.8,203.88,81.09Zm.45.91c-.09-.14-.09.06-.27-.22C204.15,81.72,204.06,81.58,204.33,82Zm-15.15-.16.18.29c-.09.05-.27-.23-.36-.37,0-.4.28-.18.55-.15.18.28.09.34.27.62C189.37,81.73,189.72,82.69,189.18,81.84Zm1.39-.87c.18.28.27.42,0,.2Zm8.85-5.18c0,.2-.19.11-.37,0l-.36-.57c-.18-.08.09.34.09.34l-.36-.56c.18.08,0-.2-.08-.55C198.79,75,199,74.68,199.42,75.79Zm-18,9.34a.53.53,0,0,1-.46.09c-.09-.35.28-.18.1-.66.09-.06.37,0,.19-.32.27,0,.45.31.72.74C181.91,85.23,181.82,85.49,181.46,85.13Zm-10.27,7.29a1,1,0,0,0,.1.3l-.18-.28c-.08-.15,0-.2,0-.2a.59.59,0,0,1,.06.16l-.07,0C171.18,92.55,171.16,92.48,171.19,92.42ZM171,91.5c.18.08.18.28.35.56C171.21,92,171.13,91.64,171,91.5Zm-.09-.35c0,.1-.11.1-.18.1S170.78,90.88,171,91.15Zm14.3-9.41c0,.4-.28.38-.46.49a1.21,1.21,0,0,0-.17-.48s.17.28.08.14C184.79,81.83,184.63,80.75,185.25,81.74Zm-13.83,8.72-.09-.14C171.24,90.18,171.51,90.4,171.42,90.46Zm-1.1.5c.08.14.18-.12.36,0s0,.19.08.32c-.09,0-.15,0,0,.22-.09.06-.18-.09-.27-.23.09.35-.28.18-.1.46a.78.78,0,0,1-.35-.37c.09,0,.09-.25.27-.17l-.09-.14c-.09-.14.1-.06.18.08ZM170,91c.09.34-.1.26-.19.52.09.14.18-.12.27,0,.09.35,0,.6-.28.38C169.76,91.51,169.67,91.17,170,91Zm-.57,1.15-.09-.14c.1-.06.19.08.19.08S169.48,92.08,169.38,92.14Zm-1.47,1.13c-.09-.14-.09-.34.09-.06C167.91,93.27,168,93.41,167.91,93.27Zm.91-.38c.09.14,0,0,.19.08l.27-.17a.39.39,0,0,0-.08-.34c-.18-.29-.1.06-.28-.23.09.14,0-.2,0-.2.18.28.45.31.54.65,0,0-.27-.22-.09.06s0,0-.1.06c0,.4-.18.31-.28.57-.09-.14-.18-.48-.18-.28C168.64,93,168.82,92.89,168.82,92.89Zm-.38,1.23-.09.06a.85.85,0,0,0-.18-.48c.09-.06.09-.06.1-.26a.66.66,0,0,0,.08.34c.09.14-.09-.14.1-.06.17.49-.1.26.08.54Zm.27.23c.18.28-.18.11-.09.26C168.35,94.18,168.62,94.41,168.71,94.35ZM179,88.29a1.45,1.45,0,0,1-.27-.62c.18-.12.37,0,.37-.43-.54-.65-.28.57-.82-.08.19-.12.28-.57.47-.69a1.23,1.23,0,0,1,.26.62c.22.19.29.16.45.34,0,.15-.16.13.09.51C179.31,88.06,179,88,179,88.29Zm6.82-4.1c-.18-.28-.18-.28-.09-.34-.18-.28-.09.06-.36-.37.09-.06.18.09.36.17C185.77,84,186,84.42,185.77,84.19Zm-9.42,11.66c.1-.06.28-.18.28,0C176.54,95.73,176.63,96.07,176.35,95.85ZM178,95s.18.28.18.08C178.48,95.5,178.21,95.48,178,95Zm.55.45c-.09-.34-.18-.29-.27-.43.09-.06.18.09.19-.12.09.15.27.43.17.49Zm5.31-2.55.18.29c0,.2-.27,0-.1.46-.18-.29-.18-.08-.27-.23l-.09-.14c0-.2.09-.06-.09-.35C183.8,93.15,183.8,93,183.89,92.89ZM182.21,94c0,.2-.1.26-.28,0C182.12,94,182,93.87,182.21,94Zm-1.83.89-.31-.14c.18.29,0,.2-.09.06s.09-.06,0-.2c-.27-.43-.28,0-.46-.31.09.14-.08-.35.1-.06l.09.14c-.09-.14,0-.2-.27-.43l-.07-.1.23-.1a1.5,1.5,0,0,0,.11.22l.19-.11.27.43s-.18-.09-.09.06.18.08.27.22.18.29.09.35l-.18-.29A.55.55,0,0,0,180.38,94.84ZM184,92.43c-.09-.15,0,.2-.18-.09.09-.06.09-.06,0-.2C183.9,92.28,184.09,92.37,184,92.43Zm-.74.27c0-.41.28-.18.47-.3l.09.14C183.71,92.6,183.52,92.92,183.25,92.7Zm-2.32.46c.18.29.18.29.09.34l-.18-.28C181.11,93.45,181,93.3,180.93,93.16Zm-.2.52c.1-.06,0-.2.1-.26l.18.29c-.09.05-.28,0-.19.32,0,0-.09-.15-.09.06.27.22.09-.26.46.1-.1.06-.1.26-.28.18l-.18-.28c-.27-.43-.09-.35-.18-.49s-.11,0-.11,0a.6.6,0,0,1-.07-.29h0l-.05-.08h0s.05.06.05.08.18.09.18.09l-.15-.24a1.31,1.31,0,0,0,.12-.11l.06,0,.16.25C180.65,93.34,180.55,93.4,180.73,93.68Zm6.36-4c.19-.12.28-.18.46-.1-.19.52-.74.47-.84.73C186.54,89.83,186.9,89.79,187.09,89.68Zm.66-.42c.19-.32.55-.15.74-.27l.09.15C188.3,89.11,188.29,89.92,187.75,89.26ZM185.3,91.8c.09-.06.09-.26.27,0s-.09.06,0,.2C185.48,91.89,185.48,92.09,185.3,91.8Zm1.1.51c-.09-.14,0,0,0,.2a.83.83,0,0,0-.37-.37c0-.2,0-.2.1-.26.27.43,0,0,.18.08-.09-.14-.27-.22-.27-.43.08.12.23.18.31.29s.09.2,0,.14C186.31,92.17,186.49,92.25,186.4,92.31Zm.3-1.19.18.09c-.09.06.18.49-.09.06Zm4-2.33.27.43c-.27-.43-.17-.49-.17-.49a.35.35,0,0,1,.15.17c-.05-.09-.12-.19-.06-.23l.27.43c0,.2-.09.06-.28.18a.31.31,0,0,1-.37,0c.27.43,0,.61-.28.38-.27-.43.18.08-.09-.35l.09.15c-.18-.29-.18-.29-.09-.35a.82.82,0,0,0,.56-.15l.18.29C190.71,89,190.62,88.85,190.71,88.79Zm-1.78,1.32c-.18-.08-.09.46-.46.1.1-.07.37.16.19-.12-.09,0-.18-.09-.18-.09s0-.2.09-.06a.3.3,0,0,0-.08-.19C188.67,90,188.78,89.87,188.93,90.11Zm-2.69.9s.27.23.18.29l-.18-.29c-.28-.22-.28,0-.56-.25.1-.06.28,0,.38,0l.09.14c.09-.26.27,0,.46.11-.09.06-.28,0-.46-.11ZM191,87.6c.18.29,0,.2-.09.06-.19.12-.1.47-.29.58-.47.3-.84.33-1.4.69-.27-.43-.18-.09-.36-.38-.09-.14,0-.2-.27-.42l-.08-.12c.09,0,.15-.11.23-.15a.13.13,0,0,0,.11-.06l0,0c.19.15.15.07.08-.05h0a.84.84,0,0,0,.35.35c.1-.26.55,0,.65-.21a.85.85,0,0,1,.36.37c-.09-.14.1-.06,0-.2-.09-.35-.28-.23-.27-.43l-.09-.15A2.58,2.58,0,0,0,191,87.6Zm.76-1.27c.09.14,0,0-.18-.09C191.5,85.9,191.68,86.18,191.77,86.33Zm1.68-1.07c.19.09.1-.06.37.17,0,.2,0,.2-.1.26C193.63,85.55,193.45,85.46,193.45,85.26Zm2.89,0a.81.81,0,0,1-.11-.13c-.17-.49.38-.44.56-.15Zm.36-.62c.1-.06.19-.12-.08-.55l.1-.06.27.43c-.19-.08.08.34.08.54C196.71,84.41,197.15,85.33,196.7,84.62Zm.63,1-.18-.29c.09.14.18.29.09.34-.18-.28-.27-.42-.09-.34l-.09-.14c.19.08,0-.21.19-.12l.27.43C197.34,85.41,197.43,85.56,197.33,85.62Zm-.75.87-.09-.14c.27.43-.09-.35.28,0C196.86,86.72,196.76,86.78,196.58,86.49Zm.56-.35c.09.14.19.08.28.22S197.05,86.2,197.14,86.14Zm.65,0s-.37-.37-.27-.43l.18.29c-.09-.15-.09-.15,0-.2l.27.42C197.88,86.27,197.88,86.27,197.79,86.13Z"/><path id="_Path_35" data-name="&lt;Path&gt;" class="cls-3" d="M167.76,90.92a.16.16,0,0,1-.09-.08C167.71,90.92,167.74,90.93,167.76,90.92Z"/><path id="_Path_36" data-name="&lt;Path&gt;" class="cls-9" d="M149.1,76.56a46.82,46.82,0,0,0,10.05-3.24c3.28-1.38,5.81-6,2.18-8.71-2.31-1.71-8.66-1.35-11.12,0-1.74,1-6.41,4.72-6.37,6.85-.69-1.63-2.4-3.33-3.54-4.78-1.56-2-2.92-3-5.69-1.82-4.2,1.85-4.47,8.64-3.82,12.42.93,5.43,3.56,9.75,9.39,11.08a32.67,32.67,0,0,0,14.26-.57,15.47,15.47,0,0,0-1.78-5.92,38.79,38.79,0,0,0-3.24-5.74Z"/><path id="_Path_37" data-name="&lt;Path&gt;" class="cls-15" d="M128.11,294.66c1.17-8.1,15.76-15.16,26.07-10.4A20.56,20.56,0,0,1,137,321.61C126.64,316.85,121.8,303.89,128.11,294.66Z"/><path id="_Path_38" data-name="&lt;Path&gt;" class="cls-2" d="M130.29,288.82c1.31-3.11.93-9.52-4.33-9.24-1.82.89,2.37,4.17,1.25,5.9-2.09-2-4.58-3.33-7.17-2.11.75,4.37,2.62,3.92,4.73,5.22s-4.85,2.86-3,5c2.64,1.37,8.12-2.07,8.52-4.78Z"/><path id="_Path_39" data-name="&lt;Path&gt;" class="cls-9" d="M140.07,263.88a46,46,0,0,0,9.62,4.3c3.36,1.17,8.34-.6,7.45-5-.58-2.82-5.53-6.8-8.24-7.45-1.93-.46-7.92-.77-9.31.83.58-1.66.45-4.07.57-5.92.17-2.51-.12-4.21-3-5.15-4.35-1.43-9.09,3.44-11.14,6.69-3,4.65-3.89,9.63-.45,14.52a32.46,32.46,0,0,0,11,9.1,15.75,15.75,0,0,0,2.64-5.59,39.28,39.28,0,0,0,1.43-6.44Z"/><path id="_Path_40" data-name="&lt;Path&gt;" class="cls-6" d="M256,278.83c-16.69-.66-33.34.26-39.83,3.55s-13.51,15.84-9,22.95,8.11,13.67,21.94,10.75c17.88-3.77,27.25-23.6,30.66-28.33s14.82-10.17,19.54-10.48,7.56-5.69,3.86-5.94.61-9.25-5.72-7.2S264.59,279.16,256,278.83Z"/><path id="_Path_41" data-name="&lt;Path&gt;" class="cls-16" d="M84.48,122.54c-2.1-1.93-7.3-3.46-8.58.8.18,1.7,4-.7,5,.69-2.22,1.07-4,2.68-3.72,5.09,3.68.65,3.86-1,5.49-2.26s.89,4.67,3.12,3.81c1.84-1.7.68-7-1.35-8.13Z"/><path id="_Path_42" data-name="&lt;Path&gt;" class="cls-15" d="M230.44,88.76c-3.2-4.93-2.43-11.17,7.27-14.38,14-4.65,63.2,2.88,62.67,22-.17,6.3-13.74-4.42-38.47-6.24-12-.88-20.44,5.74-24.76,4.36-2.24-.71-3-2.72-5-2.76-2.63-.06-4,2.91-7.37,1.69-.1-1.08-.67-1.75,0-2.75,1-1.56,6.18-4.31,7.19-2.54Z"/><path id="_Path_43" data-name="&lt;Path&gt;" class="cls-4" d="M146.67,49.53c-3.91-2.81-4.84-7.7,2.46-12.78,10.57-7.37,53.59-15.3,58-.8,1.44,4.76-12.62.48-33.77,5.95-10.26,2.65-15.64,9.94-19.6,10.1C151.69,52.09,146.67,49.53,146.67,49.53Z"/><path id="_Path_44" data-name="&lt;Path&gt;" class="cls-2" d="M141.29,46c-1.82-1.8-6.45-3.34-7.73.45.12,1.53,3.61-.5,4.51.78-2,.9-3.63,2.29-3.5,4.46,3.29.7,3.5-.75,5-1.87s.66,4.23,2.69,3.53c1.71-1.48.83-6.31-1-7.35Z"/></svg>