<svg id="_ÎÓÈ_1" data-name="—ÎÓÈ_1" xmlns="http://www.w3.org/2000/svg" viewBox="0 0 350 85.96"><defs><style>.cls-1{fill:#f36543;}</style></defs><title>Artboard 3 copy 2</title><path class="cls-1" d="M17.91,23.26s0,.17,0,.39a1.47,1.47,0,0,1-.31.72,2.23,2.23,0,0,1-.9.69,4.27,4.27,0,0,1-1.81.31,13.54,13.54,0,0,1-2.51-.18,3.45,3.45,0,0,1-1.33-.5A1.27,1.27,0,0,1,10.5,24a3.23,3.23,0,0,1-.1-.82,12,12,0,0,1,2.08-7.08,15.27,15.27,0,0,1,5.83-4.83,31.69,31.69,0,0,1,9-2.77,69,69,0,0,1,11.6-.89q4.22,0,8.82.28t9.52,1a3.48,3.48,0,0,1,2,1.1,2.45,2.45,0,0,1,.54,1.53,4.47,4.47,0,0,1-.15,1.11,4.26,4.26,0,0,1-.45,1.08,2.54,2.54,0,0,1-.82.81,2.19,2.19,0,0,1-1.21.32h-.23l-.27,0q-1.8-.32-3.9-.54T48.3,13.8c-1.53-.1-3.12-.18-4.75-.22s-3.29-.07-5-.07c-.5,0-1.1,0-1.79.08l-2,.19c-.74.08-1.51.17-2.3.28a5.89,5.89,0,0,1,0,.69c0,.26-.1.62-.17,1.09s-.16,1.05-.26,1.77-.23,1.65-.38,2.78-.31,2.51-.5,4.12-.38,3.52-.61,5.73H45.89a1.71,1.71,0,0,1,1,.27,1.47,1.47,0,0,1,.52.66,2.77,2.77,0,0,1,.2.86c0,.3,0,.6,0,.87a3,3,0,0,1-.58,2,1.62,1.62,0,0,1-1.19.66l-1.27,0L42,35.7l-3.4.13L35,36l-3.16.1c-.95,0-1.67,0-2.15,0-.33,2.23-.71,4.39-1.13,6.45A44.18,44.18,0,0,1,27,48.35a28.55,28.55,0,0,1-2.25,4.92,15.27,15.27,0,0,1-3.11,3.79,13,13,0,0,1-4.15,2.45,15.35,15.35,0,0,1-5.41.88c-.42,0-.93,0-1.52-.09A16.69,16.69,0,0,1,8.65,60a15.2,15.2,0,0,1-1.92-.52A7.92,7.92,0,0,1,5,58.73a4.65,4.65,0,0,1-1.22-1.1,2.32,2.32,0,0,1-.47-1.43,4.5,4.5,0,0,1,.18-1.09,5.4,5.4,0,0,1,.56-1.32A4.13,4.13,0,0,1,5,52.69a2,2,0,0,1,1.37-.48,6.86,6.86,0,0,1,1.93.31c.67.2,1.37.43,2.09.68s1.46.47,2.22.68a8.89,8.89,0,0,0,2.29.3,2.71,2.71,0,0,0,1.78-.73,8.11,8.11,0,0,0,1.62-2,20.83,20.83,0,0,0,1.45-3c.46-1.15.9-2.4,1.31-3.74s.78-2.73,1.13-4.19.68-2.92,1-4.38H19.76A8.08,8.08,0,0,1,18.6,36a6,6,0,0,1-1.33-.38,3.15,3.15,0,0,1-1.08-.7,1.5,1.5,0,0,1-.44-1.11A1.69,1.69,0,0,1,16,32.9a1.46,1.46,0,0,1,.83-.61l2.71-.58,2.07-.43L23.2,31c.46-.09.89-.16,1.27-.22q.68-3,1.06-5.15c.25-1.46.48-2.79.66-4s.36-2.31.53-3.36.36-2.17.58-3.36a20.67,20.67,0,0,0-4.18,1.67,13.33,13.33,0,0,0-2.94,2.07,7.72,7.72,0,0,0-1.72,2.3A5.5,5.5,0,0,0,17.91,23.26Z"/><path class="cls-1" d="M56.72,56.84a3.86,3.86,0,0,1-2.79-1.32A11.23,11.23,0,0,1,51.69,52a23.71,23.71,0,0,1-1.5-5.14,33.69,33.69,0,0,1-.54-6.13A43.84,43.84,0,0,1,50,35.35q.36-2.9,1.05-6c.46-2.05,1-4.11,1.65-6.17s1.36-4.06,2.16-6a53,53,0,0,1,2.62-5.34,28.61,28.61,0,0,1,3-4.32A13.65,13.65,0,0,1,63.7,4.7a6.43,6.43,0,0,1,3.43-1.06,3.37,3.37,0,0,1,2,.54,3.78,3.78,0,0,1,1.22,1.43,7.07,7.07,0,0,1,.62,2,14.44,14.44,0,0,1,.18,2.29,24.39,24.39,0,0,1-.59,5.3,40.73,40.73,0,0,1-1.61,5.43,58.36,58.36,0,0,1-2.34,5.47q-1.33,2.75-2.77,5.45t-2.9,5.32c-1,1.74-1.88,3.45-2.73,5.11a7.09,7.09,0,0,0-.29.72c-.1.3-.2.62-.29,1s-.18.7-.27,1.09-.17.77-.23,1.14v.39a5.81,5.81,0,0,0,.16,1.39,7,7,0,0,0,.37,1.22,3.56,3.56,0,0,0,.47.86c.17.22.32.32.47.32a3.94,3.94,0,0,0,1.21-.22,11.71,11.71,0,0,0,1.44-.6,17.51,17.51,0,0,0,1.56-.86c.54-.32,1.06-.65,1.56-1q1.74-1.16,3.65-2.69l2.27,5.82a55.69,55.69,0,0,1-4.87,3.16c-.7.39-1.43.77-2.18,1.15a23.7,23.7,0,0,1-2.26,1,17.11,17.11,0,0,1-2.21.71A8.88,8.88,0,0,1,56.72,56.84Zm0-22.16c.83-1.48,1.72-3.14,2.65-5S61.2,25.94,62,24s1.55-3.91,2.16-5.86a27.58,27.58,0,0,0,1.16-5.44c0-.54,0-1,0-1.37s-.12-.57-.26-.57a2.5,2.5,0,0,0-1.74,1,13.94,13.94,0,0,0-1.85,2.81,33.59,33.59,0,0,0-1.78,4.13q-.84,2.36-1.51,5a52.89,52.89,0,0,0-1,5.47A39.92,39.92,0,0,0,56.74,34.68Z"/><path class="cls-1" d="M95.45,50.05a24.73,24.73,0,0,1-1.7,2.08,20,20,0,0,1-2.4,2.27,15.34,15.34,0,0,1-2.85,1.83,6.89,6.89,0,0,1-3,.75,4.19,4.19,0,0,1-3-1.18,9.69,9.69,0,0,1-2.11-3.42A13,13,0,0,1,78.66,54a13.9,13.9,0,0,1-2.12,1.45,13.53,13.53,0,0,1-2.4,1.07,7.75,7.75,0,0,1-2.49.42,6.5,6.5,0,0,1-2.59-.54,6.62,6.62,0,0,1-2.23-1.56,7.48,7.48,0,0,1-1.55-2.46,8.75,8.75,0,0,1-.58-3.28,16.48,16.48,0,0,1,.58-4.27,23.55,23.55,0,0,1,1.6-4.28,24.93,24.93,0,0,1,2.43-3.95,18.94,18.94,0,0,1,3.06-3.24,14.9,14.9,0,0,1,3.51-2.2,9,9,0,0,1,3.75-.82,1.72,1.72,0,0,1,1,.25,2.14,2.14,0,0,1,.59.57l.46.62a1.3,1.3,0,0,0,.55.44,2.85,2.85,0,0,0,.68.18,5.53,5.53,0,0,0,.71,0h1.25a3.19,3.19,0,0,1,.77.08,1.25,1.25,0,0,1,.64.36,1.81,1.81,0,0,1,.43.78A4.83,4.83,0,0,1,86.86,35a17.08,17.08,0,0,1-.28,2.95C86.4,39,86.2,40.09,86,41.23s-.42,2.27-.61,3.41a20.56,20.56,0,0,0-.27,3.22,7.24,7.24,0,0,0,.23,2,1,1,0,0,0,1,.74,2.84,2.84,0,0,0,1.22-.3,6.69,6.69,0,0,0,1.29-.76,13.74,13.74,0,0,0,1.3-1.06c.44-.4.85-.81,1.24-1.24a40.82,40.82,0,0,0,2.74-3.38ZM71.79,47.86a8.49,8.49,0,0,0,.1,1.35,4,4,0,0,0,.34,1.16,2.3,2.3,0,0,0,.67.83,1.61,1.61,0,0,0,1,.32,2.52,2.52,0,0,0,1.86-.88,9.1,9.1,0,0,0,1.44-2.14,15.75,15.75,0,0,0,1-2.58,16.39,16.39,0,0,0,.49-2.21l1.69-8.15a4.7,4.7,0,0,0-2.22.57,8.3,8.3,0,0,0-2,1.54,13.56,13.56,0,0,0-1.76,2.21A18.71,18.71,0,0,0,73,42.5a16.44,16.44,0,0,0-.9,2.76A11.18,11.18,0,0,0,71.79,47.86Z"/><path class="cls-1" d="M92.18,47.86c-.05-1.38-.11-2.59-.17-3.61s-.1-2-.15-2.79-.08-1.59-.09-2.3,0-1.42,0-2.16A28.3,28.3,0,0,1,92,32.56c.18-1.07.56-1.64,1.15-1.74l3.33-.52.26,0,.26,0a1.91,1.91,0,0,1,1.46.56A1.94,1.94,0,0,1,99,32.07L97.92,49.61l.38,0,7.29-17.37a2,2,0,0,1,.36-.75,2.56,2.56,0,0,1,.72-.62,4.55,4.55,0,0,1,1-.43,4,4,0,0,1,1.15-.17,4.58,4.58,0,0,1,2.58.65,2,2,0,0,1,1,1.68,5,5,0,0,1-.21,1.47,10.91,10.91,0,0,1-.58,1.51c-.25.54-.54,1.15-.88,1.81s-.72,1.45-1.13,2.36a8.67,8.67,0,0,0-.33,1,10.81,10.81,0,0,0-.24,1.07,8.28,8.28,0,0,0-.09,1.23,5.22,5.22,0,0,0,.16,1.31,3.23,3.23,0,0,0,.59,1.15,2.77,2.77,0,0,0,1.13.81,4.69,4.69,0,0,0,1.86.31,5.52,5.52,0,0,0,1.92-.43,16.47,16.47,0,0,0,2.07-1c.76-.42,1.53-.9,2.33-1.44v6.51a18.23,18.23,0,0,1-3.79,1.86,11.15,11.15,0,0,1-3.72.69,7.49,7.49,0,0,1-2.68-.45,6.06,6.06,0,0,1-2-1.24,5.8,5.8,0,0,1-1.28-1.74,5.11,5.11,0,0,1-.48-2c-.54,1.1-1.15,2.24-1.83,3.4a28.45,28.45,0,0,1-2.12,3.16,14.53,14.53,0,0,1-2.19,2.32,3.34,3.34,0,0,1-2.06.9,3.58,3.58,0,0,1-2.5-.82A4.87,4.87,0,0,1,93,54.26a11.32,11.32,0,0,1-.56-2.71c-.08-1-.15-1.91-.2-2.8Z"/><path class="cls-1" d="M134.32,36.09a14.71,14.71,0,0,1,1.21,3.39,15.05,15.05,0,0,1,0,6.72,17.28,17.28,0,0,1-1,3.22,16.09,16.09,0,0,1-1.66,2.91,12,12,0,0,1-2.25,2.35,10.62,10.62,0,0,1-2.75,1.58,8.69,8.69,0,0,1-3.19.58,7.83,7.83,0,0,1-4.17-1.06A9,9,0,0,1,117.67,53a12.24,12.24,0,0,1-1.62-3.88,19,19,0,0,1-.51-4.38,17.27,17.27,0,0,1,.91-5.69,13.7,13.7,0,0,1,2.62-4.6,12.25,12.25,0,0,1,4.17-3.08,13.34,13.34,0,0,1,5.54-1.12,14.7,14.7,0,0,1,4.93.82A18.61,18.61,0,0,1,138,33.25a24.23,24.23,0,0,1,3.74,3.14c1.16,1.19,2.23,2.41,3.23,3.66L144.46,44a14.92,14.92,0,0,0-2-2.16q-1.27-1.17-2.7-2.28c-1-.73-1.89-1.43-2.81-2.09s-1.72-1.2-2.39-1.65Zm-8.56,15.43a2.54,2.54,0,0,0,1.83-1,9,9,0,0,0,1.55-2.41,16.44,16.44,0,0,0,1.07-3.22,15,15,0,0,0,.4-3.37,14.56,14.56,0,0,0-.19-2.36,7.2,7.2,0,0,0-.59-1.9,3.49,3.49,0,0,0-1-1.28,2.37,2.37,0,0,0-1.47-.47,3.14,3.14,0,0,0-2.16,1,9,9,0,0,0-1.8,2.48,16,16,0,0,0-1.67,6.86,10.15,10.15,0,0,0,.23,2.19,5.39,5.39,0,0,0,.69,1.79,3.51,3.51,0,0,0,3.1,1.67Z"/><path class="cls-1" d="M162.22,32a16.83,16.83,0,0,1-.16,2c-.11.86-.26,1.8-.43,2.83s-.37,2.08-.57,3.17-.39,2.1-.57,3.05-.32,1.77-.43,2.48a11.14,11.14,0,0,0-.16,1.48c0,.52,0,1,0,1.43a5.08,5.08,0,0,0,.17,1.13,1.57,1.57,0,0,0,.43.75,1.18,1.18,0,0,0,.84.26,4.72,4.72,0,0,0,1.49-.3,13.69,13.69,0,0,0,1.85-.82c.66-.34,1.33-.73,2-1.16s1.34-.89,2-1.37,1.18-1,1.69-1.43a11.91,11.91,0,0,0,1.23-1.32c0,.61,0,1.17,0,1.66s0,1,0,1.43,0,.92,0,1.4,0,1,0,1.61a15.5,15.5,0,0,1-1.51,1.3c-.6.46-1.26.92-2,1.39s-1.51.9-2.33,1.33-1.65.79-2.48,1.12a18.77,18.77,0,0,1-2.46.77,9.56,9.56,0,0,1-2.28.29,3.63,3.63,0,0,1-1.8-.41A3.93,3.93,0,0,1,155.51,55a7,7,0,0,1-.92-1.79,17.49,17.49,0,0,1-.65-2.32,23.5,23.5,0,0,1-2.11,2.4,18.3,18.3,0,0,1-2.25,1.9,11.32,11.32,0,0,1-2.33,1.26,6.44,6.44,0,0,1-2.29.46,4.69,4.69,0,0,1-1.72-.31,3.48,3.48,0,0,1-1.42-1,5.17,5.17,0,0,1-1-1.9,10.16,10.16,0,0,1-.36-2.92,35.57,35.57,0,0,1,.52-5.43q.51-3.3,1.26-7.54c0-.28.1-.65.2-1.12s.24-1,.42-1.54a16.2,16.2,0,0,1,.65-1.69,7.64,7.64,0,0,1,.92-1.55,4.75,4.75,0,0,1,1.23-1.14,3.18,3.18,0,0,1,1.59-.47,5.69,5.69,0,0,1,2.11.37c.42.22.64.48.64.79q-.25,1.47-.54,3.27t-.6,3.63c-.2,1.22-.4,2.41-.58,3.56s-.35,2.19-.5,3.09-.26,1.64-.35,2.19-.12.84-.12.86a4.34,4.34,0,0,0,.1,1,2.88,2.88,0,0,0,.29.81,1.67,1.67,0,0,0,.49.59,1.28,1.28,0,0,0,.72.22,2.8,2.8,0,0,0,1.25-.32,4.27,4.27,0,0,0,1.21-.92,6.06,6.06,0,0,0,1-1.46,8.16,8.16,0,0,0,.66-2l2.75-14.07a1.73,1.73,0,0,1,1.12-1.12,5.14,5.14,0,0,1,2.23-.46,4.35,4.35,0,0,1,2.24.5A1.45,1.45,0,0,1,162.22,32Z"/><path class="cls-1" d="M168.15,51.05c0-.81,0-1.76.14-2.84s.22-2.22.38-3.42.34-2.43.55-3.67.44-2.44.68-3.56.48-2.16.72-3.11a19.94,19.94,0,0,1,.72-2.32,5.33,5.33,0,0,1,.44-1,1.92,1.92,0,0,1,.52-.57,1.67,1.67,0,0,1,.72-.28,7.59,7.59,0,0,1,1.06-.07,7.67,7.67,0,0,1,1.12.07.93.93,0,0,1,.6.33,1.52,1.52,0,0,1,.24.77c0,.33,0,.78,0,1.35v2.48c0,1,0,1.93,0,2.87h.31l1.24-2.48a16.75,16.75,0,0,1,1.61-2.56,9.42,9.42,0,0,1,2.08-2,4.6,4.6,0,0,1,2.69-.82,3,3,0,0,1,1,.18,2.58,2.58,0,0,1,1.47,1.33,2.6,2.6,0,0,1,.22,1.1,7.78,7.78,0,0,1-.14,1.31c-.09.57-.19,1.16-.3,1.78s-.21,1.22-.31,1.8a9.63,9.63,0,0,0-.13,1.45,6,6,0,0,0,.19,1.66,3.14,3.14,0,0,0,.51,1.07,1.76,1.76,0,0,0,.72.57,2.22,2.22,0,0,0,.85.17,6.63,6.63,0,0,0,2.57-.56,15.94,15.94,0,0,0,2.44-1.25A22.54,22.54,0,0,0,195.72,39l-.41,6.48-1.64,1.05a20.18,20.18,0,0,1-1.95,1.1,15.67,15.67,0,0,1-2.16.86,7.75,7.75,0,0,1-2.29.34,6,6,0,0,1-3.35-.84,6.16,6.16,0,0,1-2-2.22,11.13,11.13,0,0,1-1.11-3.08c-.24-1.13-.44-2.28-.58-3.44h-.45l-5,13.82a18.54,18.54,0,0,1-.73,1.79,6.21,6.21,0,0,1-.71,1.15,2.17,2.17,0,0,1-.77.62,2.32,2.32,0,0,1-.92.18,3.15,3.15,0,0,1-1.83-.48,3.19,3.19,0,0,1-1.06-1.31,6.05,6.05,0,0,1-.5-1.85A18.67,18.67,0,0,1,168.15,51.05Z"/><path class="cls-1" d="M193.61,20a29.8,29.8,0,0,1-3.21,4.91c-.94,1.09-1.71,1.63-2.3,1.63-.81,0-1.22-.93-1.22-2.8a14.26,14.26,0,0,1,.78-4.87A12.38,12.38,0,0,1,189.83,15a13.34,13.34,0,0,1,3.33-2.86,20.53,20.53,0,0,1,4.21-1.94A27.92,27.92,0,0,1,202.2,9.1a37.48,37.48,0,0,1,5.24-.36,43.14,43.14,0,0,1,6.29.46,44.68,44.68,0,0,1,6.07,1.29,35.88,35.88,0,0,1,5.43,2,23.78,23.78,0,0,1,4.39,2.6,12.52,12.52,0,0,1,2.94,3.09,6.32,6.32,0,0,1,1.06,3.46,10.25,10.25,0,0,1-.93,4.22,10.66,10.66,0,0,1-2.91,3.75,15.83,15.83,0,0,1-5.07,2.76,24.1,24.1,0,0,1-7.41,1.16,12.24,12.24,0,0,1,4.8.87,10,10,0,0,1,3.43,2.36,9.83,9.83,0,0,1,2.08,3.42,12,12,0,0,1,.69,4.07,14.14,14.14,0,0,1-.47,3.55,14.55,14.55,0,0,1-1.41,3.46,15.44,15.44,0,0,1-2.36,3.12,14.57,14.57,0,0,1-3.31,2.53,17.71,17.71,0,0,1-4.28,1.71,20.92,20.92,0,0,1-5.24.62,33.88,33.88,0,0,1-3.79-.23c-1.33-.16-2.68-.37-4-.64s-2.7-.59-4-1-2.55-.76-3.71-1.19a4.46,4.46,0,0,1-1.37-.58,1.53,1.53,0,0,1-.6-1.39q0-4.59.24-9.42a89.94,89.94,0,0,1,.95-9.42A57.29,57.29,0,0,1,197,26.65a29.83,29.83,0,0,1,3.6-7.46,6.49,6.49,0,0,1,3.58-1.36,3.94,3.94,0,0,1,3.38,2.27,18.78,18.78,0,0,0-2.18,3.83,32.21,32.21,0,0,0-1.51,4.41c-.4,1.55-.73,3.12-1,4.73s-.45,3.18-.6,4.71c-.09.87-.17,1.79-.23,2.77s-.13,2-.18,3-.1,2-.12,3-.05,2-.05,2.89c0,.15,0,.35,0,.61a7.41,7.41,0,0,0,.07.8,4.18,4.18,0,0,0,.16.77,1.08,1.08,0,0,0,.33.51,32,32,0,0,0,3.63.94,19.72,19.72,0,0,0,3.88.39,18.36,18.36,0,0,0,4.58-.57,11.77,11.77,0,0,0,3.93-1.8A9.28,9.28,0,0,0,221.06,48a9.74,9.74,0,0,0,1-4.67,5.38,5.38,0,0,0-.61-2.67,5.72,5.72,0,0,0-1.6-1.79,8.3,8.3,0,0,0-2.24-1.15c-.84-.28-1.7-.54-2.58-.77l-2.57-.68a10.76,10.76,0,0,1-2.25-.85,4.83,4.83,0,0,1-1.59-1.27,3.06,3.06,0,0,1-.61-2,5.92,5.92,0,0,1,.07-1,1.21,1.21,0,0,1,.33-.71,1.65,1.65,0,0,1,.78-.42,5.61,5.61,0,0,1,1.39-.14c.8,0,1.52,0,2.18.1a20.11,20.11,0,0,0,2.12.1,16.71,16.71,0,0,0,4.81-.65,12,12,0,0,0,3.65-1.76,7.92,7.92,0,0,0,2.33-2.59,6.43,6.43,0,0,0,.82-3.17,3.5,3.5,0,0,0-.64-2,6,6,0,0,0-1.79-1.66,13,13,0,0,0-2.7-1.29A24.67,24.67,0,0,0,218,16a34.29,34.29,0,0,0-3.85-.55c-1.35-.12-2.71-.18-4.1-.18a44.69,44.69,0,0,0-5.2.29,32.77,32.77,0,0,0-4.76.88,19.19,19.19,0,0,0-3.91,1.5A7.64,7.64,0,0,0,193.61,20Z"/><path class="cls-1" d="M252,32a17.22,17.22,0,0,1-.17,2c-.11.86-.25,1.8-.43,2.83s-.36,2.08-.56,3.17-.4,2.1-.57,3.05-.32,1.77-.43,2.48a11.7,11.7,0,0,0-.17,1.48c0,.52,0,1,0,1.43a4.56,4.56,0,0,0,.17,1.13,1.56,1.56,0,0,0,.42.75,1.22,1.22,0,0,0,.85.26,4.67,4.67,0,0,0,1.48-.3,14.36,14.36,0,0,0,1.86-.82c.65-.34,1.32-.73,2-1.16s1.33-.89,1.95-1.37,1.18-1,1.69-1.43a10.26,10.26,0,0,0,1.23-1.32c0,.61,0,1.17,0,1.66s0,1,0,1.43,0,.92,0,1.4,0,1,0,1.61a16.79,16.79,0,0,1-1.51,1.3c-.6.46-1.27.92-2,1.39s-1.5.9-2.32,1.33-1.65.79-2.48,1.12a18.9,18.9,0,0,1-2.47.77,9.48,9.48,0,0,1-2.27.29,3.63,3.63,0,0,1-1.8-.41A4.06,4.06,0,0,1,245.3,55a7.32,7.32,0,0,1-.91-1.79,19.09,19.09,0,0,1-.66-2.32,22.27,22.27,0,0,1-2.1,2.4,17.66,17.66,0,0,1-2.26,1.9A11.07,11.07,0,0,1,237,56.44a6.35,6.35,0,0,1-2.28.46,4.65,4.65,0,0,1-1.72-.31,3.51,3.51,0,0,1-1.43-1,5.31,5.31,0,0,1-1-1.9,10.16,10.16,0,0,1-.36-2.92,36.69,36.69,0,0,1,.51-5.43q.51-3.3,1.26-7.54c0-.28.11-.65.21-1.12a15.11,15.11,0,0,1,.42-1.54,14.23,14.23,0,0,1,.65-1.69,7.61,7.61,0,0,1,.91-1.55,4.75,4.75,0,0,1,1.23-1.14,3.25,3.25,0,0,1,1.6-.47,5.59,5.59,0,0,1,2.1.37c.43.22.64.48.64.79q-.26,1.47-.54,3.27t-.6,3.63c-.2,1.22-.39,2.41-.58,3.56s-.35,2.19-.5,3.09-.26,1.64-.34,2.19-.13.84-.13.86a4.34,4.34,0,0,0,.1,1,2.88,2.88,0,0,0,.29.81,1.81,1.81,0,0,0,.5.59,1.23,1.23,0,0,0,.72.22,2.83,2.83,0,0,0,1.25-.32,4.38,4.38,0,0,0,1.2-.92,5.79,5.79,0,0,0,1-1.46,7.76,7.76,0,0,0,.67-2l2.74-14.07a1.75,1.75,0,0,1,1.12-1.12,5.17,5.17,0,0,1,2.23-.46,4.39,4.39,0,0,1,2.25.5A1.47,1.47,0,0,1,252,32Z"/><path class="cls-1" d="M289.2,51.41a45.94,45.94,0,0,1-3.88,2.72c-.53.33-1.1.66-1.69,1s-1.17.61-1.74.86a14.33,14.33,0,0,1-1.68.61,5.34,5.34,0,0,1-1.51.23,5.87,5.87,0,0,1-1.15-.16,6,6,0,0,1-1.66-.68,7.83,7.83,0,0,1-1.8-1.48,8.8,8.8,0,0,1-1.57-2.58,28.36,28.36,0,0,1-2.17,1.9A16.31,16.31,0,0,1,268,55.37a14.16,14.16,0,0,1-2.49,1.07,8.25,8.25,0,0,1-2.53.4,6.09,6.09,0,0,1-3.12-.77A6.76,6.76,0,0,1,257.63,54a9.33,9.33,0,0,1-1.3-2.92,13.11,13.11,0,0,1-.43-3.38,14.9,14.9,0,0,1,.45-3.59,17.07,17.07,0,0,1,1.33-3.52,18.19,18.19,0,0,1,2.12-3.21,16.38,16.38,0,0,1,2.83-2.69,15.92,15.92,0,0,1,3.44-1.95,13.22,13.22,0,0,1,4-1,51,51,0,0,1,.64-7,52.27,52.27,0,0,1,1.46-6.6,41.75,41.75,0,0,1,2.15-5.79,25.25,25.25,0,0,1,2.7-4.6,13.08,13.08,0,0,1,3.13-3,6.2,6.2,0,0,1,3.44-1.1,3.64,3.64,0,0,1,2.22.68,5.16,5.16,0,0,1,1.48,1.8,9.2,9.2,0,0,1,.82,2.61,19.15,19.15,0,0,1,.24,3.06c0,.65,0,1.31-.08,2a41.38,41.38,0,0,1-1.33,7.39,68,68,0,0,1-2.27,6.77q-1.31,3.3-2.83,6.54c-1,2.16-2,4.41-3,6.73-.09.26-.19.58-.28.95s-.18.77-.26,1.2-.15.88-.21,1.33A12,12,0,0,0,278,46a10.58,10.58,0,0,0,.1,1.52,5.81,5.81,0,0,0,.31,1.29,2.29,2.29,0,0,0,.6.9,1.36,1.36,0,0,0,.93.33,3.92,3.92,0,0,0,1.15-.2,9.48,9.48,0,0,0,1.31-.57c.46-.24.93-.52,1.4-.82s.93-.61,1.37-.93c1-.74,2.08-1.58,3.19-2.52ZM270.14,35.89a12,12,0,0,0-3.26,2.35,15.12,15.12,0,0,0-2.38,3.14,15.66,15.66,0,0,0-1.45,3.41,10.94,10.94,0,0,0-.5,3.1,5.24,5.24,0,0,0,.12,1.11,2.77,2.77,0,0,0,.46,1,2.43,2.43,0,0,0,.94.72,3.92,3.92,0,0,0,1.58.28,2.19,2.19,0,0,0,1-.25,4.16,4.16,0,0,0,.93-.66,6.76,6.76,0,0,0,.85-.91,9.62,9.62,0,0,0,.73-1.07,18.38,18.38,0,0,0,1.41-2.88,9.61,9.61,0,0,1-.13-1.23c0-.56-.07-1.19-.09-1.88s0-1.41-.05-2.15,0-1.42,0-2,0-1.11-.05-1.5A1.68,1.68,0,0,0,270.14,35.89Zm13-20.08c.11-1.3.17-2.32.17-3.08a5.51,5.51,0,0,0-.27-2.08.82.82,0,0,0-.76-.58,2,2,0,0,0-1.6,1.12,11.88,11.88,0,0,0-1.28,2.87,36.6,36.6,0,0,0-1,3.85c-.28,1.41-.51,2.76-.69,4.08s-.33,2.49-.44,3.54-.19,1.8-.23,2.25c-.07.9-.13,1.78-.18,2.62s-.08,1.6-.09,2.29,0,1.3,0,1.82V36c1-2.4,2-4.8,2.91-7.18.37-1,.74-2.08,1.12-3.2s.72-2.24,1-3.36.59-2.24.82-3.33A27,27,0,0,0,283.16,15.81Z"/><path class="cls-1" d="M318.9,51.41A45.94,45.94,0,0,1,315,54.13c-.53.33-1.09.66-1.69,1s-1.17.61-1.74.86a13.7,13.7,0,0,1-1.68.61,5.34,5.34,0,0,1-1.51.23,5.87,5.87,0,0,1-1.15-.16,6,6,0,0,1-1.66-.68,7.83,7.83,0,0,1-1.8-1.48,8.8,8.8,0,0,1-1.57-2.58,26.57,26.57,0,0,1-2.17,1.9,16.77,16.77,0,0,1-2.38,1.56,14.58,14.58,0,0,1-2.5,1.07,8.2,8.2,0,0,1-2.53.4,6.12,6.12,0,0,1-3.12-.77A6.76,6.76,0,0,1,287.33,54a9.56,9.56,0,0,1-1.3-2.92,13.11,13.11,0,0,1-.43-3.38,14.43,14.43,0,0,1,.46-3.59,16.52,16.52,0,0,1,1.33-3.52,17.65,17.65,0,0,1,2.12-3.21,16,16,0,0,1,2.82-2.69,16.16,16.16,0,0,1,3.44-1.95,13.29,13.29,0,0,1,4-1,52.63,52.63,0,0,1,.64-7,54.06,54.06,0,0,1,1.47-6.6A41.75,41.75,0,0,1,304,12.37a25.83,25.83,0,0,1,2.7-4.6,12.93,12.93,0,0,1,3.14-3,6.14,6.14,0,0,1,3.43-1.1,3.64,3.64,0,0,1,2.22.68A5.16,5.16,0,0,1,317,6.12a9.2,9.2,0,0,1,.82,2.61,19.15,19.15,0,0,1,.25,3.06c0,.65,0,1.31-.09,2a41.38,41.38,0,0,1-1.33,7.39,65.57,65.57,0,0,1-2.27,6.77q-1.31,3.3-2.82,6.54c-1,2.16-2,4.41-3,6.73-.09.26-.18.58-.28.95s-.18.77-.26,1.2-.15.88-.21,1.33a12,12,0,0,0-.08,1.32,10.58,10.58,0,0,0,.1,1.52,5.3,5.3,0,0,0,.32,1.29,2.18,2.18,0,0,0,.59.9,1.36,1.36,0,0,0,.93.33,3.92,3.92,0,0,0,1.15-.2,10.12,10.12,0,0,0,1.32-.57c.46-.24.92-.52,1.39-.82s.93-.61,1.38-.93q1.51-1.11,3.18-2.52ZM299.84,35.89a12,12,0,0,0-3.26,2.35,15.12,15.12,0,0,0-2.38,3.14,16.17,16.17,0,0,0-1.45,3.41,11.31,11.31,0,0,0-.5,3.1,5.24,5.24,0,0,0,.12,1.11,2.77,2.77,0,0,0,.46,1,2.5,2.5,0,0,0,.94.72,4,4,0,0,0,1.58.28,2.23,2.23,0,0,0,1-.25,4.34,4.34,0,0,0,.92-.66,6.76,6.76,0,0,0,.85-.91,9.62,9.62,0,0,0,.73-1.07,19.31,19.31,0,0,0,1.42-2.88,7.77,7.77,0,0,1-.14-1.23c0-.56-.07-1.19-.09-1.88s0-1.41,0-2.15,0-1.42,0-2,0-1.11,0-1.5A1.8,1.8,0,0,0,299.84,35.89Zm13-20.08c.11-1.3.17-2.32.17-3.08a5.78,5.78,0,0,0-.26-2.08.85.85,0,0,0-.77-.58,2,2,0,0,0-1.6,1.12,12.28,12.28,0,0,0-1.28,2.87,36.6,36.6,0,0,0-1,3.85c-.27,1.41-.51,2.76-.69,4.08s-.33,2.49-.44,3.54-.19,1.8-.22,2.25c-.08.9-.14,1.78-.19,2.62s-.07,1.6-.09,2.29,0,1.3,0,1.82V36c1.05-2.4,2-4.8,2.91-7.18.37-1,.74-2.08,1.12-3.2s.73-2.24,1-3.36.59-2.24.82-3.33A27,27,0,0,0,312.86,15.81Z"/><path class="cls-1" d="M331.54,35.56a4.3,4.3,0,0,1,.79-1.67,5.87,5.87,0,0,1,1.3-1.24,5.6,5.6,0,0,1,1.54-.74,5,5,0,0,1,1.52-.25,2.61,2.61,0,0,1,1.44.37,1.29,1.29,0,0,1,.58,1.18,2.22,2.22,0,0,1-.08.58c-.11.48-.25,1.14-.41,2s-.35,1.77-.54,2.82-.4,2.17-.6,3.34-.4,2.34-.58,3.51c-.46,2.73-.94,5.67-1.42,8.81a20,20,0,0,0,1.81-1.17,20.4,20.4,0,0,0,2.16-1.85c.79-.78,1.68-1.75,2.66-2.93s2.07-2.63,3.29-4.39l1.33,6.15a11.13,11.13,0,0,1-1.28,1.76c-.53.6-1.11,1.2-1.75,1.8s-1.3,1.19-2,1.75-1.37,1.09-2,1.59q-2.36,1.77-5.07,3.44c-.35,2-.77,3.9-1.25,5.77a43.43,43.43,0,0,1-1.7,5.27,30.47,30.47,0,0,1-2.25,4.5,16.49,16.49,0,0,1-2.85,3.52,12.11,12.11,0,0,1-3.56,2.29,11.31,11.31,0,0,1-4.35.81,11.65,11.65,0,0,1-2-.19,5.59,5.59,0,0,1-2-.78,4.5,4.5,0,0,1-1.54-1.66A5.92,5.92,0,0,1,312,77a7.46,7.46,0,0,1,.64-2.81,20.38,20.38,0,0,1,1.74-3.3,39.82,39.82,0,0,1,2.64-3.6c1-1.25,2.12-2.49,3.31-3.73s2.44-2.46,3.74-3.66,2.62-2.34,3.95-3.43l.74-2.58a14.46,14.46,0,0,1-3.11,2.15,7,7,0,0,1-3.15.82,6.54,6.54,0,0,1-2.59-.54,6.72,6.72,0,0,1-2.23-1.56,7.48,7.48,0,0,1-1.55-2.46,8.75,8.75,0,0,1-.58-3.28,40.32,40.32,0,0,1,.23-4.44,33.84,33.84,0,0,1,.68-3.85,28.46,28.46,0,0,1,1.11-3.53q.66-1.71,1.53-3.45a4.4,4.4,0,0,1,1.82-1.9,4.9,4.9,0,0,1,2.33-.65,2.76,2.76,0,0,1,1.66.49,1.71,1.71,0,0,1,.7,1.51,4.13,4.13,0,0,1-.07.66,4.87,4.87,0,0,1-.24.78c-.33.85-.66,1.85-1,3s-.61,2.34-.86,3.55-.45,2.4-.6,3.56a24.27,24.27,0,0,0-.22,3.07,8.49,8.49,0,0,0,.1,1.35,4,4,0,0,0,.34,1.16,2.3,2.3,0,0,0,.67.83,1.64,1.64,0,0,0,1.05.32,2.5,2.5,0,0,0,1.86-.88,9.1,9.1,0,0,0,1.44-2.14,14.89,14.89,0,0,0,1-2.58,16.39,16.39,0,0,0,.49-2.21Zm-13,41.67a4,4,0,0,0,2.2-.67,8,8,0,0,0,1.91-1.79,14.87,14.87,0,0,0,1.6-2.52,28.62,28.62,0,0,0,1.27-2.9c.37-1,.69-1.95.95-2.89s.46-1.79.6-2.53a21.07,21.07,0,0,0-2.2,1.72c-.75.67-1.48,1.38-2.19,2.15s-1.38,1.55-2,2.37-1.2,1.59-1.68,2.34a14.63,14.63,0,0,0-1.13,2.09,4.26,4.26,0,0,0-.42,1.61Q317.46,77.23,318.57,77.23Z"/></svg>