<svg id="_ÎÓÈ_1" data-name="—ÎÓÈ_1" xmlns="http://www.w3.org/2000/svg" viewBox="0 0 350 75.99"><defs><style>.cls-1{fill:#f36543;}</style></defs><title>Artboard 3 copy 2</title><g id="_Group_" data-name="&lt;Group&gt;"><path id="_Compound_Path_" data-name="&lt;Compound Path&gt;" class="cls-1" d="M19.2,29.19s0,.18,0,.42a1.61,1.61,0,0,1-.33.78,2.48,2.48,0,0,1-1,.76,4.69,4.69,0,0,1-2,.33,14.64,14.64,0,0,1-2.73-.2,3.79,3.79,0,0,1-1.45-.54,1.39,1.39,0,0,1-.57-.78,3.86,3.86,0,0,1-.1-.89,13,13,0,0,1,2.26-7.71,16.67,16.67,0,0,1,6.35-5.26,34.48,34.48,0,0,1,9.8-3,76.42,76.42,0,0,1,12.62-1c3.06,0,6.26.11,9.61.31S58.47,13,62,13.47a3.84,3.84,0,0,1,2.13,1.21,2.72,2.72,0,0,1,.59,1.66,4.75,4.75,0,0,1-.17,1.2,4.28,4.28,0,0,1-.5,1.18,2.61,2.61,0,0,1-.89.89,2.44,2.44,0,0,1-1.31.35l-.26,0-.28,0c-1.31-.22-2.73-.42-4.25-.59S54,19,52.29,18.89s-3.39-.19-5.17-.25-3.59-.07-5.42-.07c-.54,0-1.19,0-1.94.09s-1.49.13-2.19.21-1.64.18-2.5.3a5.5,5.5,0,0,1-.06.76c0,.28-.11.67-.19,1.17s-.17,1.15-.28,1.93-.25,1.8-.41,3-.34,2.74-.54,4.48-.42,3.84-.67,6.25H49.66a1.87,1.87,0,0,1,1.12.28,1.76,1.76,0,0,1,.57.73,3.16,3.16,0,0,1,.22.93c0,.34,0,.65,0,1A3.26,3.26,0,0,1,51,41.86a1.76,1.76,0,0,1-1.3.72l-1.38,0-2.87.11-3.71.14L37.8,43l-3.44.11c-1,0-1.82,0-2.34,0-.36,2.44-.78,4.78-1.24,7a48,48,0,0,1-1.73,6.32,31.41,31.41,0,0,1-2.46,5.35A16.81,16.81,0,0,1,23.21,66a14.61,14.61,0,0,1-4.52,2.67,17,17,0,0,1-5.89,1q-.69,0-1.65-.09a20.07,20.07,0,0,1-2-.31A17.4,17.4,0,0,1,7,68.66a9.12,9.12,0,0,1-1.86-.86,5.09,5.09,0,0,1-1.32-1.19,2.49,2.49,0,0,1-.52-1.56,5,5,0,0,1,.2-1.19,5.72,5.72,0,0,1,.6-1.43,4.6,4.6,0,0,1,1-1.21,2.26,2.26,0,0,1,1.49-.51,7.38,7.38,0,0,1,2.1.33c.73.22,1.49.47,2.28.74s1.58.52,2.41.74a9.64,9.64,0,0,0,2.5.33,3,3,0,0,0,1.93-.8,8.72,8.72,0,0,0,1.77-2.2,24.15,24.15,0,0,0,1.58-3.29c.5-1.26,1-2.61,1.42-4.07s.85-3,1.23-4.57.74-3.18,1.06-4.77H21.22A8.44,8.44,0,0,1,20,43a5.94,5.94,0,0,1-1.44-.41,3.48,3.48,0,0,1-1.18-.76,1.67,1.67,0,0,1-.48-1.21,1.9,1.9,0,0,1,.27-1A1.58,1.58,0,0,1,18,39l3-.63,2.25-.47L25,37.57c.5-.1,1-.18,1.39-.24q.72-3.22,1.14-5.61c.29-1.59.53-3,.73-4.33s.39-2.52.57-3.66.39-2.37.63-3.65a22.12,22.12,0,0,0-4.55,1.81,15.26,15.26,0,0,0-3.2,2.26,8.42,8.42,0,0,0-1.87,2.5A6,6,0,0,0,19.2,29.19Z"/><path id="_Compound_Path_2" data-name="&lt;Compound Path&gt;" class="cls-1" d="M63.36,43.15a16.27,16.27,0,0,1,1.31,3.7,16.32,16.32,0,0,1,0,7.31,19.07,19.07,0,0,1-1.13,3.5,17.69,17.69,0,0,1-1.81,3.17,13,13,0,0,1-2.45,2.56,11.19,11.19,0,0,1-3,1.72,9.51,9.51,0,0,1-3.47.64,8.45,8.45,0,0,1-4.54-1.17,9.61,9.61,0,0,1-3.09-3,13.39,13.39,0,0,1-1.76-4.22,20.2,20.2,0,0,1-.56-4.77,18.9,18.9,0,0,1,1-6.19,15.22,15.22,0,0,1,2.85-5A13.13,13.13,0,0,1,51.29,38a14.48,14.48,0,0,1,6-1.22,16,16,0,0,1,5.37.89,20.7,20.7,0,0,1,4.69,2.38,28,28,0,0,1,4.07,3.42,52.19,52.19,0,0,1,3.51,4l-.57,4.25a17.6,17.6,0,0,0-2.2-2.35c-.93-.85-1.91-1.67-2.94-2.48s-2.06-1.56-3.07-2.27-1.87-1.32-2.59-1.8ZM54,60a2.73,2.73,0,0,0,2-1,9.71,9.71,0,0,0,1.69-2.62,18.19,18.19,0,0,0,1.16-3.5,16.59,16.59,0,0,0,.44-3.66,14.81,14.81,0,0,0-.21-2.58,7.88,7.88,0,0,0-.64-2.07,3.82,3.82,0,0,0-1.08-1.39,2.57,2.57,0,0,0-1.6-.51,3.35,3.35,0,0,0-2.35,1.06,9.82,9.82,0,0,0-2,2.7,17.47,17.47,0,0,0-1.81,7.46,11.21,11.21,0,0,0,.25,2.38,6.1,6.1,0,0,0,.75,2A3.76,3.76,0,0,0,54,60Z"/><path id="_Compound_Path_3" data-name="&lt;Compound Path&gt;" class="cls-1" d="M89.69,43.15A15.8,15.8,0,0,1,91,46.85a16.45,16.45,0,0,1,.44,3.72,16.93,16.93,0,0,1-.39,3.59,18.34,18.34,0,0,1-1.13,3.5,17.1,17.1,0,0,1-1.81,3.17,13.21,13.21,0,0,1-2.44,2.56,11.4,11.4,0,0,1-3,1.72,9.49,9.49,0,0,1-3.46.64,8.42,8.42,0,0,1-4.54-1.17,9.65,9.65,0,0,1-3.1-3,13.39,13.39,0,0,1-1.76-4.22,20.73,20.73,0,0,1-.56-4.77,18.64,18.64,0,0,1,1-6.19,14.87,14.87,0,0,1,2.85-5A13,13,0,0,1,77.63,38a14.47,14.47,0,0,1,6-1.22,16,16,0,0,1,5.37.89,20.5,20.5,0,0,1,4.69,2.38,27.53,27.53,0,0,1,4.07,3.42,52.34,52.34,0,0,1,3.52,4l-.58,4.25a17.6,17.6,0,0,0-2.2-2.35c-.92-.85-1.91-1.67-2.94-2.48s-2.06-1.56-3.06-2.27-1.87-1.32-2.6-1.8ZM80.37,60a2.73,2.73,0,0,0,2-1,9.47,9.47,0,0,0,1.69-2.62,18.19,18.19,0,0,0,1.16-3.5,16.59,16.59,0,0,0,.44-3.66,14.81,14.81,0,0,0-.21-2.58,7.89,7.89,0,0,0-.63-2.07,4,4,0,0,0-1.09-1.39,2.55,2.55,0,0,0-1.6-.51,3.37,3.37,0,0,0-2.35,1.06,9.6,9.6,0,0,0-2,2.7A15.75,15.75,0,0,0,76.48,50,16.32,16.32,0,0,0,76,53.8a11.23,11.23,0,0,0,.24,2.38,6.1,6.1,0,0,0,.75,2,4,4,0,0,0,1.36,1.33A3.93,3.93,0,0,0,80.37,60Z"/><path id="_Compound_Path_4" data-name="&lt;Compound Path&gt;" class="cls-1" d="M131.53,59.83a50.33,50.33,0,0,1-4.22,3c-.59.36-1.2.72-1.84,1.07s-1.28.66-1.9.94a15.67,15.67,0,0,1-1.83.66,6,6,0,0,1-1.64.26,5.9,5.9,0,0,1-1.25-.19A6.41,6.41,0,0,1,117,64.8a8.52,8.52,0,0,1-2-1.62,9.34,9.34,0,0,1-1.7-2.8A27.77,27.77,0,0,1,111,62.44a18.39,18.39,0,0,1-2.59,1.71,16,16,0,0,1-2.72,1.16,9,9,0,0,1-2.76.44,6.61,6.61,0,0,1-3.39-.85,7.3,7.3,0,0,1-2.38-2.25,10,10,0,0,1-1.42-3.18,14.44,14.44,0,0,1-.47-3.68,15.93,15.93,0,0,1,.5-3.9,17.7,17.7,0,0,1,1.45-3.84,18.85,18.85,0,0,1,2.31-3.49,17.39,17.39,0,0,1,3.07-2.93,18.37,18.37,0,0,1,3.74-2.13,14.7,14.7,0,0,1,4.32-1A58.21,58.21,0,0,1,113,23.64a43.58,43.58,0,0,1,2.34-6.31,26.48,26.48,0,0,1,2.94-5A14,14,0,0,1,121.64,9a6.72,6.72,0,0,1,3.74-1.19,4,4,0,0,1,2.41.74,5.48,5.48,0,0,1,1.61,2,10,10,0,0,1,.89,2.84,20,20,0,0,1,.27,3.33c0,.7,0,1.43-.09,2.17a45.5,45.5,0,0,1-1.44,8,75,75,0,0,1-2.48,7.37c-.94,2.4-2,4.77-3.07,7.12s-2.19,4.8-3.23,7.33c-.1.29-.2.63-.3,1s-.2.84-.29,1.31-.17,1-.23,1.45a11.81,11.81,0,0,0-.09,1.43,12.39,12.39,0,0,0,.11,1.66,5.62,5.62,0,0,0,.35,1.4,2.42,2.42,0,0,0,.64,1,1.5,1.5,0,0,0,1,.37,4.06,4.06,0,0,0,1.26-.23,10,10,0,0,0,1.43-.62c.5-.26,1-.56,1.52-.89s1-.67,1.5-1c1.1-.8,2.26-1.72,3.46-2.74ZM110.78,42.94a12.78,12.78,0,0,0-3.55,2.55,16.75,16.75,0,0,0-2.59,3.42,17.72,17.72,0,0,0-1.59,3.71,12.36,12.36,0,0,0-.54,3.38,5.48,5.48,0,0,0,.14,1.21,2.78,2.78,0,0,0,.5,1.09,2.57,2.57,0,0,0,1,.78,4.21,4.21,0,0,0,1.72.3,2.33,2.33,0,0,0,1.07-.27,4.76,4.76,0,0,0,1-.71,8,8,0,0,0,.92-1,11.52,11.52,0,0,0,.8-1.17,20.74,20.74,0,0,0,1.54-3.13,10.35,10.35,0,0,1-.15-1.35c0-.61-.07-1.29-.09-2s0-1.53-.06-2.33,0-1.54-.05-2.21,0-1.2,0-1.63A2,2,0,0,0,110.78,42.94ZM125,21.07c.12-1.4.18-2.52.18-3.35a6.19,6.19,0,0,0-.28-2.26.9.9,0,0,0-.83-.63,2.16,2.16,0,0,0-1.75,1.22,13.45,13.45,0,0,0-1.39,3.12,39,39,0,0,0-1,4.2c-.31,1.52-.56,3-.76,4.43s-.36,2.71-.48,3.86-.2,2-.24,2.44c-.08,1-.15,1.94-.2,2.85s-.08,1.75-.1,2.51,0,1.41,0,2V43c1.14-2.61,2.2-5.22,3.16-7.81.41-1.11.81-2.27,1.22-3.48s.79-2.44,1.14-3.67.63-2.43.89-3.62A29.64,29.64,0,0,0,125,21.07Z"/><path id="_Compound_Path_5" data-name="&lt;Compound Path&gt;" class="cls-1" d="M155.69,62.79a3,3,0,0,1-.57,1.48,3.37,3.37,0,0,1-1.09.9,4.76,4.76,0,0,1-1.36.47,7.51,7.51,0,0,1-1.38.14,7,7,0,0,1-1.53-.17,4.37,4.37,0,0,1-1.31-.51,2.83,2.83,0,0,1-.9-.85,1.93,1.93,0,0,1-.34-1.13,18,18,0,0,1,.13-2.28,19.45,19.45,0,0,1,.36-2.09c.56-2.36,1.05-4.54,1.48-6.56s.78-3.94,1.08-5.75.56-3.56.79-5.26.41-3.41.58-5.13.33-3.49.47-5.32l.45-5.89v-.69a3.44,3.44,0,0,0-.09-.8,1.57,1.57,0,0,0-.31-.65.84.84,0,0,0-.68-.27,4.36,4.36,0,0,0-1.77.5,13.69,13.69,0,0,0-2.18,1.34,20.26,20.26,0,0,0-2.3,2,22.17,22.17,0,0,0-2.11,2.42,1.15,1.15,0,0,1-.57.65,1.93,1.93,0,0,1-.88.2c-.1,0-.2-.09-.31-.26a3,3,0,0,1-.3-.62,5.62,5.62,0,0,1-.23-.76,3.53,3.53,0,0,1-.09-.74.43.43,0,0,1,.12-.31,28.78,28.78,0,0,1,2.46-5.95,16.29,16.29,0,0,1,2.89-3.83,9.57,9.57,0,0,1,3.11-2,8.58,8.58,0,0,1,3-.6,6.12,6.12,0,0,1,3.11.71,5.14,5.14,0,0,1,2,2,9.13,9.13,0,0,1,1,3.09,25.76,25.76,0,0,1,.29,4,33.85,33.85,0,0,1-.27,3.95c-.19,1.51-.41,3.09-.68,4.75s-.57,3.33-.89,5-.64,3.23-.94,4.68a77.75,77.75,0,0,1,2.28-7.71,68.8,68.8,0,0,1,2.86-6.9,47.5,47.5,0,0,1,3.31-5.83,30.47,30.47,0,0,1,3.6-4.48,16.26,16.26,0,0,1,3.76-2.89,7.91,7.91,0,0,1,3.77-1,5.43,5.43,0,0,1,2.56.61,5.28,5.28,0,0,1,2,1.87,10,10,0,0,1,1.32,3.19,19.87,19.87,0,0,1,.46,4.59c0,.16,0,.41,0,.75s-.07.74-.12,1.18-.11.92-.18,1.43-.14,1-.2,1.53c-.16,1.2-.33,2.51-.51,3.92l.63,0a44.07,44.07,0,0,1,2.9-8,27.16,27.16,0,0,1,3.86-6,16.1,16.1,0,0,1,4.61-3.82A10.66,10.66,0,0,1,198,13.56a5.22,5.22,0,0,1,3.27,1.09,8.42,8.42,0,0,1,2.4,2.94,16.75,16.75,0,0,1,1.48,4.34,26.25,26.25,0,0,1,.51,5.27,40.6,40.6,0,0,1-.35,5.32q-.34,2.73-.85,5.4c-.35,1.78-.71,3.52-1.11,5.23s-.76,3.33-1.1,4.86-.63,2.94-.86,4.24a19.54,19.54,0,0,0-.34,3.36,4.11,4.11,0,0,0,.64,2.58,2.32,2.32,0,0,0,1.89.8,3.34,3.34,0,0,0,1.46-.38,8,8,0,0,0,1.54-1,18,18,0,0,0,1.53-1.42q.75-.8,1.44-1.65a40.64,40.64,0,0,0,3.17-4.43s.09.23.27.63l.7,1.75c.32.83.77,2,1.35,3.56a28,28,0,0,1-3.1,4.5,19,19,0,0,1-3.26,3,11.89,11.89,0,0,1-3.37,1.67,11.73,11.73,0,0,1-3.39.52,9.17,9.17,0,0,1-3.18-.58,8,8,0,0,1-2.76-1.7A8.23,8.23,0,0,1,194,60.66a9.6,9.6,0,0,1-.73-3.84c0-.16,0-.33,0-.52s0-.36,0-.54a42.13,42.13,0,0,1,.52-4.3c.26-1.52.56-3.08.89-4.69s.68-3.24,1-4.91.69-3.34,1-5,.56-3.29.76-4.91a38,38,0,0,0,.3-4.66q0-1.37-.09-2.46a7.48,7.48,0,0,0-.36-1.87,2.65,2.65,0,0,0-.79-1.19,2.06,2.06,0,0,0-1.35-.43,4.81,4.81,0,0,0-3,1.12,12.41,12.41,0,0,0-2.69,3.08,28.18,28.18,0,0,0-2.36,4.64q-1.11,2.68-2.08,5.81t-1.83,6.54c-.56,2.29-1.09,4.58-1.57,6.9s-.93,4.59-1.36,6.84-.81,4.39-1.17,6.4a3.81,3.81,0,0,1-.74,1.43,4.17,4.17,0,0,1-1.15,1,5.19,5.19,0,0,1-1.37.53,6.46,6.46,0,0,1-1.45.17,3.24,3.24,0,0,1-1.25-.25,2.88,2.88,0,0,1-1.09-.76,4.06,4.06,0,0,1-.75-1.35,6,6,0,0,1-.29-2,16.36,16.36,0,0,1,.37-2.7c.24-1.27.54-2.8.92-4.58s.77-3.73,1.2-5.85.84-4.29,1.21-6.49.68-4.38.92-6.53a53.84,53.84,0,0,0,.36-5.94c0-1.25,0-2.37-.09-3.35a10.21,10.21,0,0,0-.42-2.5,3.41,3.41,0,0,0-.95-1.57,2.42,2.42,0,0,0-1.65-.55A3,3,0,0,0,171,22.49a20.08,20.08,0,0,0-2.33,3.17,51.33,51.33,0,0,0-2.58,4.75c-.89,1.82-1.77,3.78-2.64,5.9s-1.72,4.31-2.54,6.62-1.56,4.6-2.24,6.9-1.29,4.56-1.81,6.76A61.78,61.78,0,0,0,155.69,62.79Z"/><path id="_Compound_Path_6" data-name="&lt;Compound Path&gt;" class="cls-1" d="M243.44,58.36c-.47.64-1.08,1.39-1.86,2.26A22,22,0,0,1,239,63.09a15.87,15.87,0,0,1-3.1,2,7.56,7.56,0,0,1-3.32.82,4.56,4.56,0,0,1-3.32-1.29,10.26,10.26,0,0,1-2.29-3.72,15.51,15.51,0,0,1-1.78,1.72,16.5,16.5,0,0,1-2.31,1.58,13.84,13.84,0,0,1-2.61,1.16,8.3,8.3,0,0,1-2.71.46,7.1,7.1,0,0,1-2.82-.59,7.29,7.29,0,0,1-2.43-1.69,8.16,8.16,0,0,1-1.69-2.69,9.55,9.55,0,0,1-.63-3.57,18.17,18.17,0,0,1,.63-4.65A25.09,25.09,0,0,1,212.34,48,25.88,25.88,0,0,1,215,43.67a20.42,20.42,0,0,1,3.33-3.53,16,16,0,0,1,3.82-2.4,10,10,0,0,1,4.08-.89,1.89,1.89,0,0,1,1.09.27,2.75,2.75,0,0,1,.65.62c.17.23.33.46.5.68a1.4,1.4,0,0,0,.6.48,2.8,2.8,0,0,0,.74.2,6.51,6.51,0,0,0,.77,0h.68l.67,0a3.76,3.76,0,0,1,.85.09,1.41,1.41,0,0,1,.69.39,2,2,0,0,1,.47.85,5.22,5.22,0,0,1,.17,1.48,18.43,18.43,0,0,1-.31,3.21c-.2,1.17-.42,2.38-.66,3.62s-.46,2.47-.66,3.71a22.09,22.09,0,0,0-.3,3.51,7.61,7.61,0,0,0,.25,2.22,1.06,1.06,0,0,0,1.1.8,3.2,3.2,0,0,0,1.33-.32,8.28,8.28,0,0,0,1.4-.83,14.75,14.75,0,0,0,1.42-1.16c.47-.43.92-.88,1.34-1.34a46.5,46.5,0,0,0,3-3.68ZM217.68,56a10.08,10.08,0,0,0,.1,1.47,4.32,4.32,0,0,0,.38,1.26,2.51,2.51,0,0,0,.72.91A1.87,1.87,0,0,0,220,60a2.73,2.73,0,0,0,2-1,9.44,9.44,0,0,0,1.57-2.32,16.76,16.76,0,0,0,1.07-2.81,17.19,17.19,0,0,0,.53-2.41l1.84-8.87a5.18,5.18,0,0,0-2.42.62,9,9,0,0,0-2.21,1.67,15.15,15.15,0,0,0-1.92,2.42A19.37,19.37,0,0,0,219,50.14a18.76,18.76,0,0,0-1,3A12.67,12.67,0,0,0,217.68,56Z"/><path id="_Compound_Path_7" data-name="&lt;Compound Path&gt;" class="cls-1" d="M239.88,59.44q0-1.32.15-3.09c.1-1.18.23-2.42.41-3.73s.37-2.64.6-4,.48-2.65.74-3.88.52-2.35.78-3.38a19.88,19.88,0,0,1,.79-2.53,6.39,6.39,0,0,1,.48-1.06,2.07,2.07,0,0,1,.56-.61,1.71,1.71,0,0,1,.78-.31,7.58,7.58,0,0,1,1.16-.07,7.67,7.67,0,0,1,1.22.07,1,1,0,0,1,.65.37,1.6,1.6,0,0,1,.26.83c0,.36,0,.85,0,1.47v2.7q0,1.59.06,3.12h.34l1.35-2.69A18,18,0,0,1,252,39.87a10.22,10.22,0,0,1,2.27-2.19,5,5,0,0,1,2.92-.89,3.3,3.3,0,0,1,1.12.19,3.1,3.1,0,0,1,.95.56,2.66,2.66,0,0,1,.65.89,2.84,2.84,0,0,1,.24,1.19,9.58,9.58,0,0,1-.15,1.44c-.1.61-.21,1.25-.33,1.93s-.24,1.32-.34,2a10.44,10.44,0,0,0-.15,1.58,6.56,6.56,0,0,0,.21,1.81A3.39,3.39,0,0,0,260,49.5a1.93,1.93,0,0,0,.79.62,2.36,2.36,0,0,0,.92.18,7.28,7.28,0,0,0,2.8-.6,18.4,18.4,0,0,0,2.66-1.36,25.32,25.32,0,0,0,2.77-2l-.45,7.06-1.78,1.14a22.72,22.72,0,0,1-2.13,1.2,16,16,0,0,1-2.35.93,8.45,8.45,0,0,1-2.49.38,6.54,6.54,0,0,1-3.65-.92,6.71,6.71,0,0,1-2.2-2.41,12.44,12.44,0,0,1-1.21-3.35c-.26-1.24-.47-2.49-.63-3.76h-.48l-5.4,15.05a18.7,18.7,0,0,1-.8,1.95,6.62,6.62,0,0,1-.77,1.25,2.23,2.23,0,0,1-.85.68,2.47,2.47,0,0,1-1,.2,3.16,3.16,0,0,1-3.15-2,6.52,6.52,0,0,1-.55-2A19.66,19.66,0,0,1,239.88,59.44Z"/><path id="_Compound_Path_8" data-name="&lt;Compound Path&gt;" class="cls-1" d="M275.62,48.88c.73-.92,1.52-1.94,2.38-3s1.72-2.16,2.55-3.17,1.6-1.9,2.3-2.68a10.43,10.43,0,0,1,1.64-1.6,8.73,8.73,0,0,1,2.29-1.13,9,9,0,0,1,3-.47,3.51,3.51,0,0,1,1.61.39,3.87,3.87,0,0,1,1.34,1.12,5.27,5.27,0,0,1,.91,1.75,7.4,7.4,0,0,1,.33,2.29,5.76,5.76,0,0,1-.6,2.49,17.85,17.85,0,0,1-1.51,2.52c-.6.84-1.26,1.68-2,2.53s-1.36,1.69-2,2.55A17,17,0,0,0,286.45,55a5.86,5.86,0,0,0-.6,2.53,2,2,0,0,0,.53,1.55,2.36,2.36,0,0,0,1.64.47,2.58,2.58,0,0,0,1.31-.41,8.57,8.57,0,0,0,1.46-1.07c.51-.44,1-.93,1.53-1.47s1-1.1,1.48-1.66.92-1.1,1.34-1.62.8-.95,1.14-1.31l1.81,7.39a11.86,11.86,0,0,1-2.36,2.52,18,18,0,0,1-3.11,2,17.65,17.65,0,0,1-3.47,1.34,13,13,0,0,1-3.45.49,10.1,10.1,0,0,1-3.55-.53,5.47,5.47,0,0,1-2.15-1.4,4.82,4.82,0,0,1-1.08-2,9,9,0,0,1-.28-2.28,10.73,10.73,0,0,1,.16-1.7,12.72,12.72,0,0,1,.64-2.28,21.08,21.08,0,0,1,1.31-2.79,26,26,0,0,1,2.2-3.27l1-1c.3-.29.56-.56.78-.79a3.43,3.43,0,0,0,.51-.65,1.22,1.22,0,0,0,.19-.63,2,2,0,0,0-.23-1,.71.71,0,0,0-.65-.4,2.37,2.37,0,0,0-1.33.67A8.74,8.74,0,0,0,281.44,48L272.58,63.6a4.78,4.78,0,0,1-1.44,1.68,3.12,3.12,0,0,1-1.7.47,3.37,3.37,0,0,1-2.05-.56,3.43,3.43,0,0,1-1.15-1.51,7.41,7.41,0,0,1-.5-2.2c-.07-.84-.1-1.73-.1-2.67q0-1.73.12-4.56c.08-1.89.2-4,.36-6.23s.38-4.63.65-7.1.6-4.88,1-7.21q.21-1.23.54-3c.22-1.18.5-2.44.83-3.79s.73-2.74,1.18-4.2a40.83,40.83,0,0,1,1.57-4.26,33.68,33.68,0,0,1,2-3.93,17.21,17.21,0,0,1,2.51-3.28,11.25,11.25,0,0,1,3-2.21A8,8,0,0,1,283,8.22a5.71,5.71,0,0,1,2.54.5,4,4,0,0,1,1.58,1.39,5.82,5.82,0,0,1,.83,2.13,14,14,0,0,1,.24,2.68,26,26,0,0,1-.65,5.52,57.65,57.65,0,0,1-1.64,5.93q-1,3-2.17,5.77c-.79,1.87-1.54,3.56-2.27,5.07S280.14,40,279.59,41s-.92,1.71-1.1,2l-3.59,5.37ZM281.53,15a2.47,2.47,0,0,0-1.66.6,6.5,6.5,0,0,0-1.31,1.72,22.43,22.43,0,0,0-1.23,2.72c-.42,1.06-.88,2.25-1.41,3.56-.32,1.14-.61,2.33-.89,3.56s-.51,2.44-.74,3.66-.41,2.42-.58,3.61-.32,2.3-.44,3.34q-.45,3.72-.72,7.3L274,40.75c.53-1.55,1-3.09,1.56-4.61L277,31.83c.46-1.36.83-2.51,1.14-3.46.14-.44.34-1,.6-1.66l.84-2.14c.3-.76.61-1.56.91-2.38s.58-1.62.83-2.38.45-1.48.62-2.15a7.33,7.33,0,0,0,.24-1.68C282.17,15.33,282,15,281.53,15Z"/><path id="_Compound_Path_9" data-name="&lt;Compound Path&gt;" class="cls-1" d="M306,65.75a11.4,11.4,0,0,1-5-1A10.28,10.28,0,0,1,297.52,62a11.88,11.88,0,0,1-2.13-4,16.07,16.07,0,0,1-.7-4.78,20.82,20.82,0,0,1,.33-3.58,20,20,0,0,1,1-3.69,19.48,19.48,0,0,1,1.7-3.46,13.78,13.78,0,0,1,2.4-2.89,10.78,10.78,0,0,1,3.08-2,9.41,9.41,0,0,1,3.78-.74,8.93,8.93,0,0,1,3.14.54,7.82,7.82,0,0,1,2.52,1.52,7,7,0,0,1,1.67,2.37,7.77,7.77,0,0,1,.61,3.11A8.33,8.33,0,0,1,314,48.1a13.68,13.68,0,0,1-2.54,3.53,18.13,18.13,0,0,1-3.88,3,21.26,21.26,0,0,1-4.87,2A9.57,9.57,0,0,0,303.6,58a3.9,3.9,0,0,0,.89.85,3,3,0,0,0,.95.42,4.55,4.55,0,0,0,1.07.12,11.22,11.22,0,0,0,3.81-.72,26,26,0,0,0,3.91-1.81,34.83,34.83,0,0,0,3.59-2.37A31.12,31.12,0,0,0,320.69,52l3.89,4a40.09,40.09,0,0,1-5.64,4.86c-.87.6-1.8,1.2-2.79,1.78A25.44,25.44,0,0,1,313,64.25a21.85,21.85,0,0,1-3.41,1.09A16,16,0,0,1,306,65.75Zm-4-14.18a6,6,0,0,0,2.37-.56,10.74,10.74,0,0,0,2.39-1.43,10.34,10.34,0,0,0,1.85-1.9,3.41,3.41,0,0,0,.75-2,4.53,4.53,0,0,0-.49-2.24,1.43,1.43,0,0,0-1.22-.87,4.58,4.58,0,0,0-3.76,1.73,7,7,0,0,0-1,1.75,12.29,12.29,0,0,0-.57,2,15,15,0,0,0-.25,1.93C302,50.59,302,51.13,302,51.57Z"/><path id="_Compound_Path_10" data-name="&lt;Compound Path&gt;" class="cls-1" d="M344.67,59c-1.93,1.13-3.65,2.11-5.16,3s-2.85,1.54-4,2.11a22.79,22.79,0,0,1-3.14,1.26,8.24,8.24,0,0,1-2.48.43,6.38,6.38,0,0,1-4.05-1.39,10.53,10.53,0,0,1-2.92-4A25,25,0,0,1,321.12,54a54,54,0,0,1-.58-8.35c0-1.21,0-2.5.15-3.86s.24-2.73.42-4.08c-.6-.08-1.07-.15-1.4-.22l-1.06-.21c-.37-.07-.84-.15-1.42-.23s-1.4-.18-2.49-.3a2.64,2.64,0,0,1-1.11-.35,1.62,1.62,0,0,1-.57-.6,1.72,1.72,0,0,1-.22-.73c0-.25,0-.46,0-.64a1,1,0,0,1,.59-.92,4.64,4.64,0,0,1,1.51-.47,13.73,13.73,0,0,1,2-.17c.73,0,1.44,0,2.11,0l1.81,0a6.21,6.21,0,0,0,1.1,0A68.05,68.05,0,0,1,324,25a45.12,45.12,0,0,1,2.8-6.79,18.61,18.61,0,0,1,3.4-4.76,5.48,5.48,0,0,1,3.86-1.8,4.12,4.12,0,0,1,2.37.73,6.25,6.25,0,0,1,1.82,1.93,9.75,9.75,0,0,1,1.16,2.82,13.68,13.68,0,0,1,.41,3.36,12.54,12.54,0,0,1-.42,3.12A23.76,23.76,0,0,1,338.27,27a34.34,34.34,0,0,1-1.7,3.45c-.66,1.17-1.34,2.33-2.07,3.47.18,0,.48,0,.91,0l1.46,0,1.79.08,1.87.07,1.69.06,1.3.06a1,1,0,0,1,.88.61,3.38,3.38,0,0,1,.27,1.45,2.45,2.45,0,0,1-.61,1.72,1.77,1.77,0,0,1-1.32.66H331.15c-.58.8-1.17,1.59-1.76,2.37s-1.14,1.47-1.65,2.09c-.08,1.25-.15,2.48-.21,3.68,0,.53,0,1.06-.06,1.62l-.06,1.64c0,.54,0,1.07,0,1.57s0,1,0,1.39a10.7,10.7,0,0,0,.3,2.74,5.12,5.12,0,0,0,.88,1.83,3.28,3.28,0,0,0,1.4,1,5.18,5.18,0,0,0,1.86.32,5.44,5.44,0,0,0,1.58-.3,17.59,17.59,0,0,0,2.08-.83c.76-.35,1.55-.77,2.38-1.25s1.66-1,2.48-1.59,1.59-1.17,2.34-1.81a23.42,23.42,0,0,0,2-1.94ZM335,20.8a6.7,6.7,0,0,0,0-.74,2.82,2.82,0,0,0-.2-.77,1.43,1.43,0,0,0-.46-.6,1.47,1.47,0,0,0-.89-.24c-.53,0-1.06.46-1.59,1.39a21,21,0,0,0-1.54,3.54q-.74,2.16-1.38,4.75c-.44,1.73-.83,3.41-1.2,5l.91.1.93.11q.92-1.55,1.89-3.33c.65-1.2,1.24-2.38,1.76-3.53a33.79,33.79,0,0,0,1.3-3.25A8,8,0,0,0,335,20.8Z"/></g></svg>